<svg width="24" height="24" viewBox="0 0 24 24" fill="none" xmlns="http://www.w3.org/2000/svg">
<path d="M7.12207 11.979C6.53112 11.979 5.94596 11.8626 5.39999 11.6365C4.85403 11.4103 4.35795 11.0788 3.94009 10.661C3.52223 10.2431 3.19076 9.74704 2.96461 9.20108C2.73847 8.65511 2.62207 8.06995 2.62207 7.479C2.62207 6.88806 2.73847 6.30289 2.96461 5.75693C3.19076 5.21096 3.52223 4.71489 3.94009 4.29702C4.35795 3.87916 4.85403 3.54769 5.39999 3.32155C5.94596 3.0954 6.53112 2.979 7.12207 2.979C8.31554 2.979 9.46014 3.45311 10.3041 4.29702C11.148 5.14094 11.6221 6.28553 11.6221 7.479C11.6221 8.67248 11.148 9.81707 10.3041 10.661C9.46014 11.5049 8.31554 11.979 7.12207 11.979ZM7.12207 21.979C5.9286 21.979 4.784 21.5049 3.94009 20.661C3.09618 19.8171 2.62207 18.6725 2.62207 17.479C2.62207 16.2855 3.09618 15.1409 3.94009 14.297C4.784 13.4531 5.9286 12.979 7.12207 12.979C8.31554 12.979 9.46014 13.4531 10.3041 14.297C11.148 15.1409 11.6221 16.2855 11.6221 17.479C11.6221 18.6725 11.148 19.8171 10.3041 20.661C9.46014 21.5049 8.31554 21.979 7.12207 21.979ZM17.1221 11.979C16.5311 11.979 15.946 11.8626 15.4 11.6365C14.854 11.4103 14.358 11.0788 13.9401 10.661C13.5222 10.2431 13.1908 9.74704 12.9646 9.20108C12.7385 8.65511 12.6221 8.06995 12.6221 7.479C12.6221 6.88806 12.7385 6.30289 12.9646 5.75693C13.1908 5.21096 13.5222 4.71489 13.9401 4.29702C14.358 3.87916 14.854 3.54769 15.4 3.32155C15.946 3.0954 16.5311 2.979 17.1221 2.979C18.3155 2.979 19.4601 3.45311 20.3041 4.29702C21.148 5.14094 21.6221 6.28553 21.6221 7.479C21.6221 8.67248 21.148 9.81707 20.3041 10.661C19.4601 11.5049 18.3155 11.979 17.1221 11.979ZM17.1221 21.979C15.9286 21.979 14.784 21.5049 13.9401 20.661C13.0962 19.8171 12.6221 18.6725 12.6221 17.479C12.6221 16.2855 13.0962 15.1409 13.9401 14.297C14.784 13.4531 15.9286 12.979 17.1221 12.979C18.3155 12.979 19.4601 13.4531 20.3041 14.297C21.148 15.1409 21.6221 16.2855 21.6221 17.479C21.6221 18.6725 21.148 19.8171 20.3041 20.661C19.4601 21.5049 18.3155 21.979 17.1221 21.979Z" fill="#1F2A37"/>
</svg>
