<svg width="56" height="79" viewBox="0 0 56 79" fill="none" xmlns="http://www.w3.org/2000/svg">
<path fill-rule="evenodd" clip-rule="evenodd" d="M0 57.4388L28.349 31.9763C28.3505 31.9749 28.3519 31.9736 28.3534 31.9723C29.6313 30.8158 30.9262 29.4918 32.2365 27.9943C33.0868 27.0225 33.4877 25.9582 33.4877 24.6535C33.4877 23.1998 33.0242 22.3809 32.22 21.7623L32.1885 21.738L32.1576 21.7131C31.0663 20.8317 29.8045 20.3769 28.2202 20.3769C26.2101 20.3769 24.9991 20.9619 24.1676 21.8494C23.1926 22.9634 22.5927 24.3609 22.4471 26.2053L22.1847 29.5285L0.717468 27.9543L0.896659 24.6691C1.11383 20.6877 1.95383 17.0873 3.51697 13.955C5.03423 10.8495 7.07519 8.21524 9.65091 6.10784C12.196 4.02553 15.1372 2.50707 18.4295 1.53131C21.749 0.501289 25.2837 0 29.0129 0C32.5006 0 35.822 0.507538 38.9555 1.5477C42.1198 2.5319 44.9307 4.06122 47.3404 6.15408C49.8024 8.22561 51.6802 10.8302 52.9893 13.898C54.399 17.0449 55.0534 20.5905 55.0534 24.4554C55.0534 26.928 54.7992 29.2536 54.2598 31.4111L54.2563 31.4252L54.2526 31.4393C53.7233 33.481 52.9608 35.3986 51.9569 37.1794C51.041 38.8543 49.9373 40.4118 48.6512 41.8492C47.4435 43.199 46.1356 44.5062 44.7297 45.7715L44.7019 45.7964L30.2211 58.2566H55.6479V78.039H0V57.4388ZM21.1859 61.6088L42.4872 43.2798C43.8082 42.0909 45.0301 40.8689 46.153 39.614C47.2758 38.359 48.2336 37.005 49.0262 35.5519C49.8848 34.0327 50.5453 32.3814 51.0077 30.5981C51.4701 28.7487 51.7012 26.7011 51.7012 24.4554C51.7012 20.9547 51.1068 17.8833 49.9179 15.2413C48.795 12.5993 47.2098 10.4196 45.1622 8.70229C43.1147 6.91893 40.7038 5.59791 37.9297 4.73925C35.1556 3.81455 32.1833 3.35219 29.0129 3.35219C25.5782 3.35219 22.3748 3.81455 19.4025 4.73925C16.4963 5.59791 13.9533 6.91893 11.7736 8.70229C9.59397 10.4857 7.84363 12.7314 6.52262 15.4395C5.62424 17.2362 4.98552 19.2621 4.60646 21.5171C4.49177 22.1993 4.40086 22.9025 4.33371 23.6267C4.29644 24.0285 4.2665 24.4369 4.24388 24.8517L19.1053 25.9415C19.3034 23.4316 20.1621 21.318 21.6812 19.6006C23.2664 17.8833 25.4461 17.0247 28.2202 17.0247C30.532 17.0247 32.5466 17.7182 34.2639 19.1053C35.9812 20.4263 36.8398 22.2757 36.8398 24.6535C36.8398 26.7671 36.1463 28.6166 34.7593 30.2018C33.3722 31.787 31.9851 33.2071 30.5981 34.462L3.35219 58.9338V74.6869H52.2957V61.6088H21.1859Z" fill="#512B58"/>
</svg>
