<svg width="16" height="16" viewBox="0 0 16 16" fill="none" xmlns="http://www.w3.org/2000/svg">
<path d="M11.5 3.5H4.5C3.94772 3.5 3.5 3.94772 3.5 4.5V11.5C3.5 12.0523 3.94772 12.5 4.5 12.5H11.5C12.0523 12.5 12.5 12.0523 12.5 11.5V4.5C12.5 3.94772 12.0523 3.5 11.5 3.5Z" stroke="#4D5761" stroke-linecap="round" stroke-linejoin="round"/>
<path d="M6.25 6.99997C6.66421 6.99997 7 6.66418 7 6.24997C7 5.83576 6.66421 5.49997 6.25 5.49997C5.83579 5.49997 5.5 5.83576 5.5 6.24997C5.5 6.66418 5.83579 6.99997 6.25 6.99997Z" stroke="#4D5761" stroke-linecap="round" stroke-linejoin="round"/>
<path d="M12.5 9.49997L10 6.99997L4.5 12.5" stroke="#4D5761" stroke-linecap="round" stroke-linejoin="round"/>
</svg>
