<svg width="48" height="48" viewBox="0 0 48 48" fill="none" xmlns="http://www.w3.org/2000/svg">
<rect x="4" y="4" width="40" height="40" rx="4" fill="#512B58"/>
<path d="M29.1431 23.9988C29.1431 26.8392 26.8407 29.1417 24.0003 29.1417C21.1599 29.1417 18.8574 26.8392 18.8574 23.9988C18.8574 21.1584 21.1599 18.856 24.0003 18.856C26.8407 18.856 29.1431 21.1584 29.1431 23.9988Z" fill="#FCFCFD"/>
<path d="M35.4107 15.3672C35.1762 14.7317 34.802 14.1564 34.3158 13.6842C33.8436 13.198 33.2687 12.8238 32.6328 12.5893C32.117 12.389 31.3422 12.1505 29.9151 12.0856C28.3713 12.0152 27.9085 12 24.0002 12C20.0915 12 19.6287 12.0148 18.0853 12.0852C16.6582 12.1505 15.883 12.389 15.3676 12.5893C14.7317 12.8238 14.1564 13.198 13.6846 13.6842C13.1984 14.1564 12.8242 14.7313 12.5893 15.3672C12.389 15.883 12.1505 16.6582 12.0856 18.0853C12.0152 19.6287 12 20.0915 12 24.0002C12 27.9085 12.0152 28.3713 12.0856 29.9151C12.1505 31.3422 12.389 32.117 12.5893 32.6328C12.8242 33.2687 13.198 33.8436 13.6842 34.3158C14.1564 34.802 14.7313 35.1762 15.3672 35.4107C15.883 35.6114 16.6582 35.8499 18.0853 35.9148C19.6287 35.9852 20.0911 36 23.9998 36C27.9089 36 28.3717 35.9852 29.9147 35.9148C31.3418 35.8499 32.117 35.6114 32.6328 35.4107C33.9093 34.9183 34.9183 33.9093 35.4107 32.6328C35.611 32.117 35.8495 31.3422 35.9148 29.9151C35.9852 28.3713 36 27.9085 36 24.0002C36 20.0915 35.9852 19.6287 35.9148 18.0853C35.8499 16.6582 35.6114 15.883 35.4107 15.3672ZM24.0002 31.5161C19.8488 31.5161 16.4835 28.1512 16.4835 23.9998C16.4835 19.8484 19.8488 16.4835 24.0002 16.4835C28.1512 16.4835 31.5165 19.8484 31.5165 23.9998C31.5165 28.1512 28.1512 31.5161 24.0002 31.5161ZM31.8136 17.9429C30.8436 17.9429 30.0571 17.1564 30.0571 16.1864C30.0571 15.2163 30.8436 14.4298 31.8136 14.4298C32.7837 14.4298 33.5702 15.2163 33.5702 16.1864C33.5698 17.1564 32.7837 17.9429 31.8136 17.9429Z" fill="#FCFCFD"/>
</svg>
