<svg width="233" height="68" viewBox="0 0 233 68" fill="none" xmlns="http://www.w3.org/2000/svg">
<path d="M10.1764 45.056C9.79716 45.056 9.34205 44.9422 8.81108 44.7147C7.14234 43.9562 6.68723 42.7615 7.44575 41.1307L24.7969 1.93422C25.5554 0.341336 26.75 -0.113776 28.3809 0.568888C30.0875 1.28948 30.5616 2.48415 29.8031 4.15289L12.3951 43.2924C11.94 44.4682 11.2004 45.056 10.1764 45.056ZM16.8893 30.1511C16.1687 30.4545 15.486 30.4924 14.8413 30.2649C14.2345 29.9994 13.7415 29.5064 13.3622 28.7858L0.334641 4.03911C-0.0446187 3.31852 -0.101508 2.63585 0.163974 1.99111C0.467381 1.30845 0.979381 0.815408 1.69997 0.512C2.42057 0.208594 3.10323 0.189632 3.74797 0.455112C4.39271 0.682667 4.88575 1.15674 5.22708 1.87733L17.6858 26.624C18.065 27.3446 18.1978 28.0462 18.084 28.7289C18.0081 29.3736 17.6099 29.8477 16.8893 30.1511Z" fill="#FCFCFD"/>
<path d="M48.2653 31.6302C45.1933 31.6302 42.4816 30.9665 40.1302 29.6391C37.7788 28.2738 35.9204 26.4154 34.5551 24.064C33.2277 21.6747 32.564 18.944 32.564 15.872C32.564 12.7621 33.2277 10.0314 34.5551 7.68C35.9204 5.29067 37.7788 3.4323 40.1302 2.10489C42.4816 0.739557 45.1933 0.0568915 48.2653 0.0568915C51.2994 0.0568915 53.9921 0.739557 56.3435 2.10489C58.6949 3.4323 60.5343 5.29067 61.8617 7.68C63.2271 10.0314 63.9097 12.7621 63.9097 15.872C63.9097 18.944 63.246 21.6747 61.9186 24.064C60.5912 26.4154 58.7518 28.2738 56.4004 29.6391C54.049 30.9665 51.3373 31.6302 48.2653 31.6302ZM48.2653 26.5102C50.2375 26.5102 51.982 26.0551 53.4991 25.1449C55.0161 24.2347 56.1918 22.9831 57.0262 21.3902C57.8985 19.7973 58.3346 17.9579 58.3346 15.872C58.3346 13.7861 57.8985 11.9467 57.0262 10.3538C56.1918 8.72296 55.0161 7.45245 53.4991 6.54222C51.982 5.632 50.2375 5.17689 48.2653 5.17689C46.2932 5.17689 44.5486 5.632 43.0315 6.54222C41.5145 7.45245 40.3198 8.72296 39.4475 10.3538C38.5752 11.9467 38.1391 13.7861 38.1391 15.872C38.1391 17.9579 38.5752 19.7973 39.4475 21.3902C40.3198 22.9831 41.5145 24.2347 43.0315 25.1449C44.5486 26.0551 46.2932 26.5102 48.2653 26.5102Z" fill="#FCFCFD"/>
<path d="M85.5164 31.6302C82.672 31.6302 80.1499 30.9665 77.9502 29.6391C75.7884 28.2738 74.0817 26.4154 72.8302 24.064C71.5786 21.6747 70.9529 18.944 70.9529 15.872C70.9529 12.7621 71.6166 10.0314 72.944 7.68C74.3093 5.29067 76.1677 3.4323 78.5191 2.10489C80.8705 0.739557 83.5822 0.0568915 86.6542 0.0568915C89.6883 0.0568915 92.381 0.739557 94.7324 2.10489C97.0838 3.4323 98.9232 5.29067 100.251 7.68C101.616 10.0314 102.299 12.7621 102.299 15.872H98.9422C98.9422 18.944 98.3543 21.6747 97.1786 24.064C96.0409 26.4154 94.4669 28.2738 92.4569 29.6391C90.4468 30.9665 88.1333 31.6302 85.5164 31.6302ZM86.5404 44.3164C83.8477 44.3164 81.3256 43.7855 78.9742 42.7236C76.6228 41.6616 74.6317 40.1067 73.0009 38.0587C72.5078 37.4139 72.3182 36.7502 72.432 36.0676C72.5837 35.3849 72.9629 34.835 73.5697 34.4178C74.2524 33.9627 74.954 33.811 75.6746 33.9627C76.4332 34.1144 77.04 34.4936 77.4951 35.1004C78.5191 36.3899 79.8086 37.395 81.3635 38.1156C82.9185 38.8361 84.6821 39.1964 86.6542 39.1964C88.4746 39.1964 90.1434 38.7603 91.6604 37.888C93.2154 37.0157 94.448 35.7262 95.3582 34.0196C96.2684 32.3129 96.7235 30.227 96.7235 27.7618V19.6836L98.6009 14.6773L102.299 15.872V28.16C102.299 31.1561 101.635 33.8679 100.308 36.2951C98.9801 38.7603 97.1217 40.7135 94.7324 42.1547C92.381 43.5959 89.6503 44.3164 86.5404 44.3164ZM86.6542 26.5102C88.6263 26.5102 90.3709 26.0551 91.888 25.1449C93.405 24.2347 94.5807 22.9831 95.4151 21.3902C96.2874 19.7973 96.7235 17.9579 96.7235 15.872C96.7235 13.7861 96.2874 11.9467 95.4151 10.3538C94.5807 8.72296 93.405 7.45245 91.888 6.54222C90.3709 5.632 88.6263 5.17689 86.6542 5.17689C84.6821 5.17689 82.9375 5.632 81.4204 6.54222C79.9034 7.45245 78.7087 8.72296 77.8364 10.3538C76.9641 11.9467 76.528 13.7861 76.528 15.872C76.528 17.9579 76.9641 19.7973 77.8364 21.3902C78.7087 22.9831 79.9034 24.2347 81.4204 25.1449C82.9375 26.0551 84.6821 26.5102 86.6542 26.5102Z" fill="#FCFCFD"/>
<path d="M113.893 30.3218L110.024 26.9084L129.367 1.36534L133.178 4.77867L113.893 30.3218ZM112.186 31.4027C110.404 31.4027 109.512 30.5114 109.512 28.7289C109.512 26.9464 110.404 26.0551 112.186 26.0551H131.585C133.368 26.0551 134.259 26.9464 134.259 28.7289C134.259 30.5114 133.368 31.4027 131.585 31.4027H112.186ZM111.617 5.632C109.835 5.632 108.944 4.74074 108.944 2.95822C108.944 1.1757 109.835 0.284444 111.617 0.284444H131.016C132.799 0.284444 133.69 1.1757 133.69 2.95822C133.69 4.74074 132.799 5.632 131.016 5.632H111.617Z" fill="#FCFCFD"/>
<path d="M153.516 31.6302C150.748 31.6302 148.264 30.9476 146.064 29.5822C143.864 28.179 142.12 26.3016 140.83 23.9502C139.579 21.5609 138.953 18.8681 138.953 15.872C138.953 12.8759 139.636 10.1831 141.001 7.79378C142.404 5.40445 144.281 3.52711 146.633 2.16178C149.022 0.758521 151.696 0.0568915 154.654 0.0568915C157.612 0.0568915 160.267 0.758521 162.619 2.16178C164.97 3.52711 166.828 5.40445 168.194 7.79378C169.597 10.1831 170.299 12.8759 170.299 15.872H168.08C168.08 18.8681 167.435 21.5609 166.146 23.9502C164.894 26.3016 163.169 28.179 160.969 29.5822C158.769 30.9476 156.285 31.6302 153.516 31.6302ZM154.654 26.5102C156.588 26.5102 158.314 26.0551 159.831 25.1449C161.348 24.1967 162.543 22.9262 163.415 21.3333C164.287 19.7025 164.724 17.8821 164.724 15.872C164.724 13.824 164.287 12.0036 163.415 10.4107C162.543 8.77985 161.348 7.50933 159.831 6.59911C158.314 5.65096 156.588 5.17689 154.654 5.17689C152.758 5.17689 151.032 5.65096 149.477 6.59911C147.96 7.50933 146.747 8.77985 145.836 10.4107C144.964 12.0036 144.528 13.824 144.528 15.872C144.528 17.8821 144.964 19.7025 145.836 21.3333C146.747 22.9262 147.96 24.1967 149.477 25.1449C151.032 26.0551 152.758 26.5102 154.654 26.5102ZM167.397 31.4596C166.563 31.4596 165.861 31.1941 165.292 30.6631C164.761 30.0942 164.496 29.3926 164.496 28.5582V19.8542L165.577 13.824L170.299 15.872V28.5582C170.299 29.3926 170.014 30.0942 169.445 30.6631C168.914 31.1941 168.232 31.4596 167.397 31.4596Z" fill="#FCFCFD"/>
<path d="M205.217 31.4596C204.383 31.4596 203.681 31.1941 203.112 30.6631C202.581 30.0942 202.316 29.3926 202.316 28.5582V14.5636C202.316 12.4018 201.918 10.6382 201.121 9.27289C200.325 7.90756 199.244 6.90252 197.879 6.25778C196.551 5.57511 195.015 5.23378 193.271 5.23378C191.678 5.23378 190.237 5.55615 188.947 6.20089C187.658 6.84563 186.634 7.71793 185.875 8.81778C185.117 9.8797 184.737 11.1123 184.737 12.5156H181.153C181.153 10.1262 181.722 8.00237 182.86 6.144C184.036 4.2477 185.629 2.74963 187.639 1.64978C189.649 0.549927 191.905 0 194.408 0C197.025 0 199.358 0.568889 201.406 1.70667C203.492 2.80652 205.122 4.43733 206.298 6.59911C207.512 8.76089 208.119 11.4157 208.119 14.5636V28.5582C208.119 29.3926 207.834 30.0942 207.265 30.6631C206.734 31.1941 206.052 31.4596 205.217 31.4596ZM181.836 31.4596C181.002 31.4596 180.3 31.1941 179.731 30.6631C179.2 30.0942 178.935 29.3926 178.935 28.5582V3.18578C178.935 2.31348 179.2 1.61185 179.731 1.08089C180.3 0.549926 181.002 0.284444 181.836 0.284444C182.708 0.284444 183.41 0.549926 183.941 1.08089C184.472 1.61185 184.737 2.31348 184.737 3.18578V28.5582C184.737 29.3926 184.472 30.0942 183.941 30.6631C183.41 31.1941 182.708 31.4596 181.836 31.4596Z" fill="#FCFCFD"/>
<path fill-rule="evenodd" clip-rule="evenodd" d="M-4.37114e-08 60.252C-1.95703e-08 59.9759 0.223858 59.752 0.5 59.752L19.5 59.752C19.7761 59.752 20 59.9759 20 60.252C20 60.5281 19.7761 60.752 19.5 60.752L0.5 60.752C0.223858 60.752 -6.78525e-08 60.5281 -4.37114e-08 60.252Z" fill="#FCFCFD"/>
<path d="M28.546 64.116C28.3873 64.116 28.2567 64.0647 28.154 63.962C28.0513 63.8593 28 63.7287 28 63.57V53.728C28 53.5693 28.0513 53.4387 28.154 53.336C28.2567 53.2333 28.3873 53.182 28.546 53.182H31.346C32.0367 53.182 32.648 53.336 33.18 53.644C33.712 53.9427 34.1273 54.358 34.426 54.89C34.7247 55.422 34.874 56.038 34.874 56.738C34.874 57.4193 34.7247 58.026 34.426 58.558C34.1273 59.0807 33.712 59.496 33.18 59.804C32.648 60.1027 32.0367 60.252 31.346 60.252H29.092V63.57C29.092 63.7287 29.0407 63.8593 28.938 63.962C28.8353 64.0647 28.7047 64.116 28.546 64.116ZM29.092 59.202H31.346C31.822 59.202 32.2467 59.0993 32.62 58.894C32.9933 58.6793 33.2827 58.3853 33.488 58.012C33.7027 57.6387 33.81 57.214 33.81 56.738C33.81 56.2433 33.7027 55.8093 33.488 55.436C33.2827 55.0627 32.9933 54.7687 32.62 54.554C32.2467 54.3393 31.822 54.232 31.346 54.232H29.092V59.202Z" fill="#FCFCFD"/>
<path d="M36.9783 60.994C36.8103 60.994 36.6749 60.9427 36.5723 60.84C36.4789 60.7373 36.4323 60.6067 36.4323 60.448V53.728C36.4323 53.56 36.4789 53.4293 36.5723 53.336C36.6749 53.2333 36.8103 53.182 36.9783 53.182C37.1369 53.182 37.2629 53.2333 37.3563 53.336C37.4589 53.4293 37.5103 53.56 37.5103 53.728V60.448C37.5103 60.6067 37.4589 60.7373 37.3563 60.84C37.2629 60.9427 37.1369 60.994 36.9783 60.994ZM42.9983 64.116C42.8396 64.116 42.7089 64.0647 42.6063 63.962C42.5036 63.8593 42.4523 63.7333 42.4523 63.584V59.944C42.4523 59.3653 42.3403 58.8893 42.1163 58.516C41.9016 58.1427 41.6029 57.8627 41.2203 57.676C40.8469 57.4893 40.4223 57.396 39.9463 57.396C39.4889 57.396 39.0736 57.4847 38.7003 57.662C38.3363 57.8393 38.0469 58.082 37.8323 58.39C37.6176 58.698 37.5103 59.048 37.5103 59.44H36.7403C36.7589 58.852 36.9176 58.3293 37.2163 57.872C37.5149 57.4053 37.9116 57.0413 38.4063 56.78C38.9009 56.5093 39.4516 56.374 40.0583 56.374C40.7209 56.374 41.3136 56.514 41.8363 56.794C42.3589 57.0647 42.7696 57.466 43.0683 57.998C43.3763 58.53 43.5303 59.1787 43.5303 59.944V63.584C43.5303 63.7333 43.4789 63.8593 43.3763 63.962C43.2736 64.0647 43.1476 64.116 42.9983 64.116ZM36.9783 64.116C36.8103 64.116 36.6749 64.0693 36.5723 63.976C36.4789 63.8733 36.4323 63.7427 36.4323 63.584V57.004C36.4323 56.836 36.4789 56.7053 36.5723 56.612C36.6749 56.5093 36.8103 56.458 36.9783 56.458C37.1369 56.458 37.2629 56.5093 37.3563 56.612C37.4589 56.7053 37.5103 56.836 37.5103 57.004V63.584C37.5103 63.7427 37.4589 63.8733 37.3563 63.976C37.2629 64.0693 37.1369 64.116 36.9783 64.116Z" fill="#FCFCFD"/>
<path d="M49.3929 64.186C48.6462 64.186 47.9789 64.018 47.3909 63.682C46.8029 63.346 46.3409 62.884 46.0049 62.296C45.6689 61.708 45.5009 61.0407 45.5009 60.294C45.5009 59.538 45.6689 58.866 46.0049 58.278C46.3409 57.69 46.8029 57.228 47.3909 56.892C47.9789 56.556 48.6462 56.388 49.3929 56.388C50.1395 56.388 50.8022 56.556 51.3809 56.892C51.9689 57.228 52.4309 57.69 52.7669 58.278C53.1029 58.866 53.2755 59.538 53.2849 60.294C53.2849 61.0407 53.1122 61.708 52.7669 62.296C52.4309 62.884 51.9689 63.346 51.3809 63.682C50.8022 64.018 50.1395 64.186 49.3929 64.186ZM49.3929 63.206C49.9342 63.206 50.4195 63.08 50.8489 62.828C51.2782 62.576 51.6142 62.2307 51.8569 61.792C52.0995 61.3533 52.2209 60.854 52.2209 60.294C52.2209 59.734 52.0995 59.2347 51.8569 58.796C51.6142 58.348 51.2782 57.998 50.8489 57.746C50.4195 57.494 49.9342 57.368 49.3929 57.368C48.8515 57.368 48.3662 57.494 47.9369 57.746C47.5075 57.998 47.1669 58.348 46.9149 58.796C46.6722 59.2347 46.5509 59.734 46.5509 60.294C46.5509 60.854 46.6722 61.3533 46.9149 61.792C47.1669 62.2307 47.5075 62.576 47.9369 62.828C48.3662 63.08 48.8515 63.206 49.3929 63.206Z" fill="#FCFCFD"/>
<path d="M58.3775 64.116C57.8828 64.116 57.4395 63.9993 57.0475 63.766C56.6648 63.5327 56.3615 63.2153 56.1375 62.814C55.9135 62.4033 55.8015 61.9367 55.8015 61.414V54.568C55.8015 54.4093 55.8482 54.2787 55.9415 54.176C56.0442 54.0733 56.1748 54.022 56.3335 54.022C56.4922 54.022 56.6228 54.0733 56.7255 54.176C56.8282 54.2787 56.8795 54.4093 56.8795 54.568V61.414C56.8795 61.89 57.0195 62.282 57.2995 62.59C57.5795 62.8887 57.9388 63.038 58.3775 63.038H58.7555C58.9048 63.038 59.0261 63.0893 59.1195 63.192C59.2128 63.2947 59.2595 63.4253 59.2595 63.584C59.2595 63.7427 59.2035 63.8733 59.0915 63.976C58.9795 64.0693 58.8395 64.116 58.6715 64.116H58.3775ZM54.8915 57.676C54.7515 57.676 54.6348 57.634 54.5415 57.55C54.4482 57.4567 54.4015 57.3447 54.4015 57.214C54.4015 57.074 54.4482 56.962 54.5415 56.878C54.6348 56.7847 54.7515 56.738 54.8915 56.738H58.4615C58.6015 56.738 58.7182 56.7847 58.8115 56.878C58.9048 56.962 58.9515 57.074 58.9515 57.214C58.9515 57.3447 58.9048 57.4567 58.8115 57.55C58.7182 57.634 58.6015 57.676 58.4615 57.676H54.8915Z" fill="#FCFCFD"/>
<path d="M64.5003 64.186C63.7536 64.186 63.0863 64.018 62.4983 63.682C61.9103 63.346 61.4483 62.884 61.1123 62.296C60.7763 61.708 60.6083 61.0407 60.6083 60.294C60.6083 59.538 60.7763 58.866 61.1123 58.278C61.4483 57.69 61.9103 57.228 62.4983 56.892C63.0863 56.556 63.7536 56.388 64.5003 56.388C65.247 56.388 65.9096 56.556 66.4883 56.892C67.0763 57.228 67.5383 57.69 67.8743 58.278C68.2103 58.866 68.383 59.538 68.3923 60.294C68.3923 61.0407 68.2196 61.708 67.8743 62.296C67.5383 62.884 67.0763 63.346 66.4883 63.682C65.9096 64.018 65.247 64.186 64.5003 64.186ZM64.5003 63.206C65.0416 63.206 65.527 63.08 65.9563 62.828C66.3856 62.576 66.7216 62.2307 66.9643 61.792C67.207 61.3533 67.3283 60.854 67.3283 60.294C67.3283 59.734 67.207 59.2347 66.9643 58.796C66.7216 58.348 66.3856 57.998 65.9563 57.746C65.527 57.494 65.0416 57.368 64.5003 57.368C63.959 57.368 63.4736 57.494 63.0443 57.746C62.615 57.998 62.2743 58.348 62.0223 58.796C61.7796 59.2347 61.6583 59.734 61.6583 60.294C61.6583 60.854 61.7796 61.3533 62.0223 61.792C62.2743 62.2307 62.615 62.576 63.0443 62.828C63.4736 63.08 63.959 63.206 64.5003 63.206Z" fill="#FCFCFD"/>
<path d="M73.8629 64.186C73.1256 64.186 72.4722 64.0227 71.9029 63.696C71.3336 63.36 70.8856 62.898 70.5589 62.31C70.2416 61.722 70.0829 61.05 70.0829 60.294C70.0829 59.5287 70.2509 58.852 70.5869 58.264C70.9229 57.676 71.3849 57.2187 71.9729 56.892C72.5609 56.556 73.2282 56.388 73.9749 56.388C74.7309 56.388 75.3982 56.556 75.9769 56.892C76.5649 57.2187 77.0222 57.676 77.3489 58.264C77.6849 58.852 77.8576 59.5287 77.8669 60.294L77.2369 60.63C77.2369 61.3207 77.0922 61.9367 76.8029 62.478C76.5136 63.01 76.1122 63.43 75.5989 63.738C75.0949 64.0367 74.5162 64.186 73.8629 64.186ZM74.0029 67.14C73.2656 67.14 72.6169 67 72.0569 66.72C71.4969 66.4493 71.0349 66.076 70.6709 65.6C70.5682 65.488 70.5216 65.3667 70.5309 65.236C70.5496 65.1053 70.6196 64.998 70.7409 64.914C70.8622 64.83 70.9976 64.802 71.1469 64.83C71.2962 64.858 71.4129 64.928 71.4969 65.04C71.7676 65.376 72.1129 65.6467 72.5329 65.852C72.9622 66.0573 73.4569 66.16 74.0169 66.16C74.5396 66.16 75.0109 66.034 75.4309 65.782C75.8509 65.53 76.1822 65.1753 76.4249 64.718C76.6769 64.2607 76.8029 63.724 76.8029 63.108V60.98L77.2089 60.168L77.8669 60.294V63.15C77.8669 63.906 77.6989 64.5827 77.3629 65.18C77.0269 65.7867 76.5696 66.2627 75.9909 66.608C75.4122 66.9627 74.7496 67.14 74.0029 67.14ZM73.9749 63.206C74.5256 63.206 75.0109 63.0847 75.4309 62.842C75.8602 62.59 76.1962 62.2447 76.4389 61.806C76.6816 61.3673 76.8029 60.8633 76.8029 60.294C76.8029 59.7247 76.6816 59.2207 76.4389 58.782C76.1962 58.334 75.8602 57.9887 75.4309 57.746C75.0109 57.494 74.5256 57.368 73.9749 57.368C73.4242 57.368 72.9342 57.494 72.5049 57.746C72.0756 57.9887 71.7396 58.334 71.4969 58.782C71.2542 59.2207 71.1329 59.7247 71.1329 60.294C71.1329 60.8633 71.2542 61.3673 71.4969 61.806C71.7396 62.2447 72.0756 62.59 72.5049 62.842C72.9342 63.0847 73.4242 63.206 73.9749 63.206Z" fill="#FCFCFD"/>
<path d="M80.4115 59.398C80.4395 58.8193 80.5888 58.3013 80.8595 57.844C81.1395 57.3867 81.4988 57.0273 81.9375 56.766C82.3855 56.5047 82.8802 56.374 83.4215 56.374C83.8508 56.374 84.1822 56.4347 84.4155 56.556C84.6488 56.6773 84.7375 56.8547 84.6815 57.088C84.6442 57.228 84.5788 57.3213 84.4855 57.368C84.4015 57.4147 84.2942 57.4333 84.1635 57.424C84.0422 57.4147 83.9022 57.4053 83.7435 57.396C83.2208 57.3493 82.7542 57.4053 82.3435 57.564C81.9422 57.7133 81.6202 57.9467 81.3775 58.264C81.1442 58.5813 81.0275 58.9593 81.0275 59.398H80.4115ZM80.4955 64.116C80.3275 64.116 80.1968 64.0693 80.1035 63.976C80.0102 63.8827 79.9635 63.752 79.9635 63.584V56.99C79.9635 56.822 80.0102 56.6913 80.1035 56.598C80.1968 56.5047 80.3275 56.458 80.4955 56.458C80.6635 56.458 80.7942 56.5047 80.8875 56.598C80.9809 56.6913 81.0275 56.822 81.0275 56.99V63.584C81.0275 63.752 80.9809 63.8827 80.8875 63.976C80.7942 64.0693 80.6635 64.116 80.4955 64.116Z" fill="#FCFCFD"/>
<path d="M89.1891 64.186C88.4704 64.186 87.8264 64.018 87.2571 63.682C86.6877 63.3367 86.2351 62.87 85.8991 62.282C85.5724 61.694 85.4091 61.0313 85.4091 60.294C85.4091 59.5473 85.5771 58.88 85.9131 58.292C86.2584 57.704 86.7251 57.242 87.3131 56.906C87.9011 56.5607 88.5637 56.388 89.3011 56.388C90.0384 56.388 90.6964 56.5607 91.2751 56.906C91.8631 57.242 92.3251 57.704 92.6611 58.292C93.0064 58.88 93.1837 59.5473 93.1931 60.294L92.7591 60.63C92.7591 61.302 92.6004 61.9087 92.2831 62.45C91.9751 62.982 91.5504 63.4067 91.0091 63.724C90.4771 64.032 89.8704 64.186 89.1891 64.186ZM89.3011 63.206C89.8424 63.206 90.3231 63.08 90.7431 62.828C91.1724 62.576 91.5084 62.2307 91.7511 61.792C92.0031 61.344 92.1291 60.8447 92.1291 60.294C92.1291 59.734 92.0031 59.2347 91.7511 58.796C91.5084 58.3573 91.1724 58.012 90.7431 57.76C90.3231 57.4987 89.8424 57.368 89.3011 57.368C88.7691 57.368 88.2884 57.4987 87.8591 57.76C87.4297 58.012 87.0891 58.3573 86.8371 58.796C86.5851 59.2347 86.4591 59.734 86.4591 60.294C86.4591 60.8447 86.5851 61.344 86.8371 61.792C87.0891 62.2307 87.4297 62.576 87.8591 62.828C88.2884 63.08 88.7691 63.206 89.3011 63.206ZM92.6471 64.116C92.4884 64.116 92.3577 64.0693 92.2551 63.976C92.1524 63.8733 92.1011 63.7427 92.1011 63.584V61.19L92.3671 60.084L93.1931 60.294V63.584C93.1931 63.7427 93.1417 63.8733 93.0391 63.976C92.9364 64.0693 92.8057 64.116 92.6471 64.116Z" fill="#FCFCFD"/>
<path d="M95.8357 67.392C95.6677 67.392 95.5324 67.3407 95.4297 67.238C95.3364 67.1447 95.2897 67.014 95.2897 66.846V60.238C95.299 59.51 95.4717 58.8567 95.8077 58.278C96.153 57.69 96.615 57.228 97.1937 56.892C97.7817 56.556 98.4397 56.388 99.1677 56.388C99.9144 56.388 100.582 56.5607 101.17 56.906C101.758 57.242 102.22 57.704 102.556 58.292C102.901 58.88 103.074 59.5473 103.074 60.294C103.074 61.0313 102.906 61.694 102.57 62.282C102.243 62.87 101.795 63.3367 101.226 63.682C100.656 64.018 100.012 64.186 99.2937 64.186C98.6684 64.186 98.099 64.0553 97.5857 63.794C97.0817 63.5233 96.6757 63.1687 96.3677 62.73V66.846C96.3677 67.014 96.3164 67.1447 96.2137 67.238C96.1204 67.3407 95.9944 67.392 95.8357 67.392ZM99.1677 63.206C99.709 63.206 100.194 63.08 100.624 62.828C101.053 62.576 101.389 62.2307 101.632 61.792C101.884 61.344 102.01 60.8447 102.01 60.294C102.01 59.734 101.884 59.2347 101.632 58.796C101.389 58.3573 101.053 58.012 100.624 57.76C100.194 57.4987 99.709 57.368 99.1677 57.368C98.6357 57.368 98.155 57.4987 97.7257 57.76C97.2963 58.012 96.9604 58.3573 96.7177 58.796C96.475 59.2347 96.3537 59.734 96.3537 60.294C96.3537 60.8447 96.475 61.344 96.7177 61.792C96.9604 62.2307 97.2963 62.576 97.7257 62.828C98.155 63.08 98.6357 63.206 99.1677 63.206Z" fill="#FCFCFD"/>
<path d="M105.734 60.994C105.566 60.994 105.431 60.9427 105.328 60.84C105.235 60.7373 105.188 60.6067 105.188 60.448V53.728C105.188 53.56 105.235 53.4293 105.328 53.336C105.431 53.2333 105.566 53.182 105.734 53.182C105.893 53.182 106.019 53.2333 106.112 53.336C106.215 53.4293 106.266 53.56 106.266 53.728V60.448C106.266 60.6067 106.215 60.7373 106.112 60.84C106.019 60.9427 105.893 60.994 105.734 60.994ZM111.754 64.116C111.595 64.116 111.465 64.0647 111.362 63.962C111.259 63.8593 111.208 63.7333 111.208 63.584V59.944C111.208 59.3653 111.096 58.8893 110.872 58.516C110.657 58.1427 110.359 57.8627 109.976 57.676C109.603 57.4893 109.178 57.396 108.702 57.396C108.245 57.396 107.829 57.4847 107.456 57.662C107.092 57.8393 106.803 58.082 106.588 58.39C106.373 58.698 106.266 59.048 106.266 59.44H105.496C105.515 58.852 105.673 58.3293 105.972 57.872C106.271 57.4053 106.667 57.0413 107.162 56.78C107.657 56.5093 108.207 56.374 108.814 56.374C109.477 56.374 110.069 56.514 110.592 56.794C111.115 57.0647 111.525 57.466 111.824 57.998C112.132 58.53 112.286 59.1787 112.286 59.944V63.584C112.286 63.7333 112.235 63.8593 112.132 63.962C112.029 64.0647 111.903 64.116 111.754 64.116ZM105.734 64.116C105.566 64.116 105.431 64.0693 105.328 63.976C105.235 63.8733 105.188 63.7427 105.188 63.584V57.004C105.188 56.836 105.235 56.7053 105.328 56.612C105.431 56.5093 105.566 56.458 105.734 56.458C105.893 56.458 106.019 56.5093 106.112 56.612C106.215 56.7053 106.266 56.836 106.266 57.004V63.584C106.266 63.7427 106.215 63.8733 106.112 63.976C106.019 64.0693 105.893 64.116 105.734 64.116Z" fill="#FCFCFD"/>
<path d="M115.979 67.448C115.904 67.448 115.82 67.4293 115.727 67.392C115.409 67.252 115.321 67.028 115.461 66.72L119.983 56.752C120.123 56.4533 120.347 56.3693 120.655 56.5C120.972 56.6307 121.061 56.85 120.921 57.158L116.385 67.126C116.291 67.3407 116.156 67.448 115.979 67.448ZM117.533 63.878C117.393 63.9433 117.262 63.9573 117.141 63.92C117.019 63.8733 116.921 63.78 116.847 63.64L113.725 57.172C113.659 57.032 113.65 56.9013 113.697 56.78C113.743 56.6587 113.837 56.5653 113.977 56.5C114.117 56.4347 114.247 56.4253 114.369 56.472C114.49 56.5093 114.583 56.598 114.649 56.738L117.715 63.206C117.789 63.346 117.813 63.4767 117.785 63.598C117.757 63.7193 117.673 63.8127 117.533 63.878Z" fill="#FCFCFD"/>
<path d="M128.758 64.214C128.152 64.214 127.629 64.1067 127.19 63.892C126.752 63.668 126.411 63.36 126.168 62.968C125.926 62.576 125.804 62.1233 125.804 61.61C125.804 61.0127 125.991 60.462 126.364 59.958C126.738 59.4447 127.302 58.894 128.058 58.306L129.234 57.382C129.636 57.0647 129.934 56.7427 130.13 56.416C130.336 56.08 130.438 55.7347 130.438 55.38C130.438 54.9973 130.308 54.666 130.046 54.386C129.785 54.0967 129.416 53.952 128.94 53.952C128.52 53.952 128.17 54.0873 127.89 54.358C127.62 54.6193 127.484 54.9273 127.484 55.282C127.484 55.5713 127.54 55.842 127.652 56.094C127.774 56.3367 127.956 56.5793 128.198 56.822L134.484 63.094C134.596 63.2153 134.662 63.3273 134.68 63.43C134.699 63.5327 134.652 63.6447 134.54 63.766C134.298 64.0087 134.06 64.0087 133.826 63.766L127.47 57.41C127.172 57.1113 126.934 56.7847 126.756 56.43C126.588 56.066 126.504 55.688 126.504 55.296C126.504 54.8667 126.612 54.484 126.826 54.148C127.041 53.812 127.33 53.546 127.694 53.35C128.058 53.154 128.474 53.056 128.94 53.056C129.416 53.056 129.841 53.1587 130.214 53.364C130.588 53.5693 130.882 53.8493 131.096 54.204C131.311 54.5493 131.418 54.946 131.418 55.394C131.409 55.7487 131.334 56.08 131.194 56.388C131.064 56.6867 130.872 56.976 130.62 57.256C130.368 57.5267 130.065 57.802 129.71 58.082L128.548 58.978C128.147 59.2953 127.82 59.6033 127.568 59.902C127.316 60.1913 127.13 60.476 127.008 60.756C126.896 61.036 126.84 61.3207 126.84 61.61C126.84 62.114 127.008 62.52 127.344 62.828C127.68 63.1267 128.161 63.276 128.786 63.276C129.262 63.276 129.696 63.1547 130.088 62.912C130.49 62.6693 130.9 62.324 131.32 61.876L133.448 59.622C133.56 59.51 133.668 59.4447 133.77 59.426C133.873 59.398 133.985 59.44 134.106 59.552C134.218 59.6547 134.279 59.7667 134.288 59.888C134.298 60.0093 134.242 60.1307 134.12 60.252L131.992 62.506C131.507 63.038 131.003 63.458 130.48 63.766C129.967 64.0647 129.393 64.214 128.758 64.214Z" fill="#FCFCFD"/>
<path d="M144.378 64.116C144.145 64.116 143.977 63.9993 143.874 63.766L139.716 54.036C139.613 53.7747 139.604 53.5693 139.688 53.42C139.781 53.2613 139.94 53.182 140.164 53.182C140.397 53.182 140.565 53.2987 140.668 53.532L144.532 62.772H144.224L148.074 53.56C148.13 53.42 148.2 53.322 148.284 53.266C148.368 53.21 148.48 53.182 148.62 53.182C148.835 53.182 148.979 53.266 149.054 53.434C149.129 53.5927 149.124 53.7747 149.04 53.98L144.868 63.766C144.812 63.8967 144.742 63.99 144.658 64.046C144.574 64.0927 144.481 64.116 144.378 64.116Z" fill="#FCFCFD"/>
<path d="M151.403 64.116C151.235 64.116 151.1 64.0693 150.997 63.976C150.904 63.8733 150.857 63.738 150.857 63.57V57.004C150.857 56.836 150.904 56.7053 150.997 56.612C151.1 56.5093 151.235 56.458 151.403 56.458C151.562 56.458 151.688 56.5093 151.781 56.612C151.884 56.7053 151.935 56.836 151.935 57.004V63.57C151.935 63.738 151.884 63.8733 151.781 63.976C151.688 64.0693 151.562 64.116 151.403 64.116ZM151.389 55.002C151.184 55.002 151.007 54.9273 150.857 54.778C150.708 54.6287 150.633 54.4467 150.633 54.232C150.633 53.9987 150.708 53.8167 150.857 53.686C151.016 53.546 151.198 53.476 151.403 53.476C151.599 53.476 151.772 53.546 151.921 53.686C152.08 53.8167 152.159 53.9987 152.159 54.232C152.159 54.4467 152.085 54.6287 151.935 54.778C151.786 54.9273 151.604 55.002 151.389 55.002Z" fill="#FCFCFD"/>
<path d="M158.166 64.186C157.429 64.186 156.766 64.018 156.178 63.682C155.59 63.3367 155.124 62.87 154.778 62.282C154.442 61.694 154.274 61.0267 154.274 60.28C154.274 59.5427 154.438 58.88 154.764 58.292C155.1 57.704 155.553 57.242 156.122 56.906C156.692 56.5607 157.336 56.388 158.054 56.388C158.68 56.388 159.244 56.5233 159.748 56.794C160.252 57.0553 160.658 57.4053 160.966 57.844V53.728C160.966 53.56 161.018 53.4293 161.12 53.336C161.223 53.2333 161.354 53.182 161.512 53.182C161.671 53.182 161.802 53.2333 161.904 53.336C162.007 53.4293 162.058 53.56 162.058 53.728V60.336C162.04 61.064 161.858 61.722 161.512 62.31C161.176 62.8887 160.714 63.346 160.126 63.682C159.548 64.018 158.894 64.186 158.166 64.186ZM158.166 63.206C158.708 63.206 159.188 63.08 159.608 62.828C160.038 62.5667 160.374 62.2167 160.616 61.778C160.868 61.3393 160.994 60.84 160.994 60.28C160.994 59.7293 160.868 59.2347 160.616 58.796C160.374 58.348 160.038 57.998 159.608 57.746C159.188 57.494 158.708 57.368 158.166 57.368C157.634 57.368 157.154 57.494 156.724 57.746C156.295 57.998 155.954 58.348 155.702 58.796C155.45 59.2347 155.324 59.7293 155.324 60.28C155.324 60.84 155.45 61.3393 155.702 61.778C155.954 62.2167 156.295 62.5667 156.724 62.828C157.154 63.08 157.634 63.206 158.166 63.206Z" fill="#FCFCFD"/>
<path d="M168.051 64.186C167.295 64.186 166.623 64.0227 166.035 63.696C165.456 63.36 164.999 62.898 164.663 62.31C164.336 61.722 164.173 61.05 164.173 60.294C164.173 59.5287 164.327 58.8567 164.635 58.278C164.952 57.69 165.386 57.228 165.937 56.892C166.487 56.556 167.122 56.388 167.841 56.388C168.55 56.388 169.166 56.5513 169.689 56.878C170.221 57.1953 170.631 57.6387 170.921 58.208C171.21 58.7773 171.355 59.426 171.355 60.154C171.355 60.3033 171.308 60.4247 171.215 60.518C171.121 60.602 171 60.644 170.851 60.644H164.901V59.748H170.963L170.361 60.182C170.37 59.6407 170.272 59.1553 170.067 58.726C169.861 58.2967 169.567 57.9607 169.185 57.718C168.811 57.4753 168.363 57.354 167.841 57.354C167.309 57.354 166.842 57.48 166.441 57.732C166.039 57.984 165.727 58.334 165.503 58.782C165.288 59.2207 165.181 59.7247 165.181 60.294C165.181 60.8633 165.302 61.3673 165.545 61.806C165.797 62.2447 166.137 62.59 166.567 62.842C166.996 63.094 167.491 63.22 168.051 63.22C168.387 63.22 168.723 63.164 169.059 63.052C169.404 62.9307 169.679 62.7813 169.885 62.604C169.987 62.52 170.104 62.478 170.235 62.478C170.365 62.4687 170.477 62.5013 170.571 62.576C170.692 62.688 170.753 62.8093 170.753 62.94C170.762 63.0707 170.711 63.1827 170.599 63.276C170.291 63.5373 169.899 63.7567 169.423 63.934C168.947 64.102 168.489 64.186 168.051 64.186Z" fill="#FCFCFD"/>
<path d="M176.391 64.186C175.644 64.186 174.977 64.018 174.389 63.682C173.801 63.346 173.339 62.884 173.003 62.296C172.667 61.708 172.499 61.0407 172.499 60.294C172.499 59.538 172.667 58.866 173.003 58.278C173.339 57.69 173.801 57.228 174.389 56.892C174.977 56.556 175.644 56.388 176.391 56.388C177.138 56.388 177.8 56.556 178.379 56.892C178.967 57.228 179.429 57.69 179.765 58.278C180.101 58.866 180.274 59.538 180.283 60.294C180.283 61.0407 180.11 61.708 179.765 62.296C179.429 62.884 178.967 63.346 178.379 63.682C177.8 64.018 177.138 64.186 176.391 64.186ZM176.391 63.206C176.932 63.206 177.418 63.08 177.847 62.828C178.276 62.576 178.612 62.2307 178.855 61.792C179.098 61.3533 179.219 60.854 179.219 60.294C179.219 59.734 179.098 59.2347 178.855 58.796C178.612 58.348 178.276 57.998 177.847 57.746C177.418 57.494 176.932 57.368 176.391 57.368C175.85 57.368 175.364 57.494 174.935 57.746C174.506 57.998 174.165 58.348 173.913 58.796C173.67 59.2347 173.549 59.734 173.549 60.294C173.549 60.854 173.67 61.3533 173.913 61.792C174.165 62.2307 174.506 62.576 174.935 62.828C175.364 63.08 175.85 63.206 176.391 63.206Z" fill="#FCFCFD"/>
<path d="M185.754 64.186C185.016 64.186 184.363 64.0227 183.794 63.696C183.224 63.36 182.776 62.898 182.45 62.31C182.132 61.722 181.974 61.05 181.974 60.294C181.974 59.5287 182.142 58.852 182.478 58.264C182.814 57.676 183.276 57.2187 183.864 56.892C184.452 56.556 185.119 56.388 185.866 56.388C186.622 56.388 187.289 56.556 187.868 56.892C188.456 57.2187 188.913 57.676 189.24 58.264C189.576 58.852 189.748 59.5287 189.758 60.294L189.128 60.63C189.128 61.3207 188.983 61.9367 188.694 62.478C188.404 63.01 188.003 63.43 187.49 63.738C186.986 64.0367 186.407 64.186 185.754 64.186ZM185.894 67.14C185.156 67.14 184.508 67 183.948 66.72C183.388 66.4493 182.926 66.076 182.562 65.6C182.459 65.488 182.412 65.3667 182.422 65.236C182.44 65.1053 182.51 64.998 182.632 64.914C182.753 64.83 182.888 64.802 183.038 64.83C183.187 64.858 183.304 64.928 183.388 65.04C183.658 65.376 184.004 65.6467 184.424 65.852C184.853 66.0573 185.348 66.16 185.908 66.16C186.43 66.16 186.902 66.034 187.322 65.782C187.742 65.53 188.073 65.1753 188.316 64.718C188.568 64.2607 188.694 63.724 188.694 63.108V60.98L189.1 60.168L189.758 60.294V63.15C189.758 63.906 189.59 64.5827 189.254 65.18C188.918 65.7867 188.46 66.2627 187.882 66.608C187.303 66.9627 186.64 67.14 185.894 67.14ZM185.866 63.206C186.416 63.206 186.902 63.0847 187.322 62.842C187.751 62.59 188.087 62.2447 188.33 61.806C188.572 61.3673 188.694 60.8633 188.694 60.294C188.694 59.7247 188.572 59.2207 188.33 58.782C188.087 58.334 187.751 57.9887 187.322 57.746C186.902 57.494 186.416 57.368 185.866 57.368C185.315 57.368 184.825 57.494 184.396 57.746C183.966 57.9887 183.63 58.334 183.388 58.782C183.145 59.2207 183.024 59.7247 183.024 60.294C183.024 60.8633 183.145 61.3673 183.388 61.806C183.63 62.2447 183.966 62.59 184.396 62.842C184.825 63.0847 185.315 63.206 185.866 63.206Z" fill="#FCFCFD"/>
<path d="M192.302 59.398C192.33 58.8193 192.479 58.3013 192.75 57.844C193.03 57.3867 193.389 57.0273 193.828 56.766C194.276 56.5047 194.771 56.374 195.312 56.374C195.741 56.374 196.073 56.4347 196.306 56.556C196.539 56.6773 196.628 56.8547 196.572 57.088C196.535 57.228 196.469 57.3213 196.376 57.368C196.292 57.4147 196.185 57.4333 196.054 57.424C195.933 57.4147 195.793 57.4053 195.634 57.396C195.111 57.3493 194.645 57.4053 194.234 57.564C193.833 57.7133 193.511 57.9467 193.268 58.264C193.035 58.5813 192.918 58.9593 192.918 59.398H192.302ZM192.386 64.116C192.218 64.116 192.087 64.0693 191.994 63.976C191.901 63.8827 191.854 63.752 191.854 63.584V56.99C191.854 56.822 191.901 56.6913 191.994 56.598C192.087 56.5047 192.218 56.458 192.386 56.458C192.554 56.458 192.685 56.5047 192.778 56.598C192.871 56.6913 192.918 56.822 192.918 56.99V63.584C192.918 63.752 192.871 63.8827 192.778 63.976C192.685 64.0693 192.554 64.116 192.386 64.116Z" fill="#FCFCFD"/>
<path d="M201.08 64.186C200.361 64.186 199.717 64.018 199.148 63.682C198.578 63.3367 198.126 62.87 197.79 62.282C197.463 61.694 197.3 61.0313 197.3 60.294C197.3 59.5473 197.468 58.88 197.804 58.292C198.149 57.704 198.616 57.242 199.204 56.906C199.792 56.5607 200.454 56.388 201.192 56.388C201.929 56.388 202.587 56.5607 203.166 56.906C203.754 57.242 204.216 57.704 204.552 58.292C204.897 58.88 205.074 59.5473 205.084 60.294L204.65 60.63C204.65 61.302 204.491 61.9087 204.174 62.45C203.866 62.982 203.441 63.4067 202.9 63.724C202.368 64.032 201.761 64.186 201.08 64.186ZM201.192 63.206C201.733 63.206 202.214 63.08 202.634 62.828C203.063 62.576 203.399 62.2307 203.642 61.792C203.894 61.344 204.02 60.8447 204.02 60.294C204.02 59.734 203.894 59.2347 203.642 58.796C203.399 58.3573 203.063 58.012 202.634 57.76C202.214 57.4987 201.733 57.368 201.192 57.368C200.66 57.368 200.179 57.4987 199.75 57.76C199.32 58.012 198.98 58.3573 198.728 58.796C198.476 59.2347 198.35 59.734 198.35 60.294C198.35 60.8447 198.476 61.344 198.728 61.792C198.98 62.2307 199.32 62.576 199.75 62.828C200.179 63.08 200.66 63.206 201.192 63.206ZM204.538 64.116C204.379 64.116 204.248 64.0693 204.146 63.976C204.043 63.8733 203.992 63.7427 203.992 63.584V61.19L204.258 60.084L205.084 60.294V63.584C205.084 63.7427 205.032 63.8733 204.93 63.976C204.827 64.0693 204.696 64.116 204.538 64.116Z" fill="#FCFCFD"/>
<path d="M207.726 67.392C207.558 67.392 207.423 67.3407 207.32 67.238C207.227 67.1447 207.18 67.014 207.18 66.846V60.238C207.19 59.51 207.362 58.8567 207.698 58.278C208.044 57.69 208.506 57.228 209.084 56.892C209.672 56.556 210.33 56.388 211.058 56.388C211.805 56.388 212.472 56.5607 213.06 56.906C213.648 57.242 214.11 57.704 214.446 58.292C214.792 58.88 214.964 59.5473 214.964 60.294C214.964 61.0313 214.796 61.694 214.46 62.282C214.134 62.87 213.686 63.3367 213.116 63.682C212.547 64.018 211.903 64.186 211.184 64.186C210.559 64.186 209.99 64.0553 209.476 63.794C208.972 63.5233 208.566 63.1687 208.258 62.73V66.846C208.258 67.014 208.207 67.1447 208.104 67.238C208.011 67.3407 207.885 67.392 207.726 67.392ZM211.058 63.206C211.6 63.206 212.085 63.08 212.514 62.828C212.944 62.576 213.28 62.2307 213.522 61.792C213.774 61.344 213.9 60.8447 213.9 60.294C213.9 59.734 213.774 59.2347 213.522 58.796C213.28 58.3573 212.944 58.012 212.514 57.76C212.085 57.4987 211.6 57.368 211.058 57.368C210.526 57.368 210.046 57.4987 209.616 57.76C209.187 58.012 208.851 58.3573 208.608 58.796C208.366 59.2347 208.244 59.734 208.244 60.294C208.244 60.8447 208.366 61.344 208.608 61.792C208.851 62.2307 209.187 62.576 209.616 62.828C210.046 63.08 210.526 63.206 211.058 63.206Z" fill="#FCFCFD"/>
<path d="M217.625 60.994C217.457 60.994 217.321 60.9427 217.219 60.84C217.125 60.7373 217.079 60.6067 217.079 60.448V53.728C217.079 53.56 217.125 53.4293 217.219 53.336C217.321 53.2333 217.457 53.182 217.625 53.182C217.783 53.182 217.909 53.2333 218.003 53.336C218.105 53.4293 218.157 53.56 218.157 53.728V60.448C218.157 60.6067 218.105 60.7373 218.003 60.84C217.909 60.9427 217.783 60.994 217.625 60.994ZM223.645 64.116C223.486 64.116 223.355 64.0647 223.253 63.962C223.15 63.8593 223.099 63.7333 223.099 63.584V59.944C223.099 59.3653 222.987 58.8893 222.763 58.516C222.548 58.1427 222.249 57.8627 221.867 57.676C221.493 57.4893 221.069 57.396 220.593 57.396C220.135 57.396 219.72 57.4847 219.347 57.662C218.983 57.8393 218.693 58.082 218.479 58.39C218.264 58.698 218.157 59.048 218.157 59.44H217.387C217.405 58.852 217.564 58.3293 217.863 57.872C218.161 57.4053 218.558 57.0413 219.053 56.78C219.547 56.5093 220.098 56.374 220.705 56.374C221.367 56.374 221.96 56.514 222.483 56.794C223.005 57.0647 223.416 57.466 223.715 57.998C224.023 58.53 224.177 59.1787 224.177 59.944V63.584C224.177 63.7333 224.125 63.8593 224.023 63.962C223.92 64.0647 223.794 64.116 223.645 64.116ZM217.625 64.116C217.457 64.116 217.321 64.0693 217.219 63.976C217.125 63.8733 217.079 63.7427 217.079 63.584V57.004C217.079 56.836 217.125 56.7053 217.219 56.612C217.321 56.5093 217.457 56.458 217.625 56.458C217.783 56.458 217.909 56.5093 218.003 56.612C218.105 56.7053 218.157 56.836 218.157 57.004V63.584C218.157 63.7427 218.105 63.8733 218.003 63.976C217.909 64.0693 217.783 64.116 217.625 64.116Z" fill="#FCFCFD"/>
<path d="M227.869 67.448C227.795 67.448 227.711 67.4293 227.617 67.392C227.3 67.252 227.211 67.028 227.351 66.72L231.873 56.752C232.013 56.4533 232.237 56.3693 232.545 56.5C232.863 56.6307 232.951 56.85 232.811 57.158L228.275 67.126C228.182 67.3407 228.047 67.448 227.869 67.448ZM229.423 63.878C229.283 63.9433 229.153 63.9573 229.031 63.92C228.91 63.8733 228.812 63.78 228.737 63.64L225.615 57.172C225.55 57.032 225.541 56.9013 225.587 56.78C225.634 56.6587 225.727 56.5653 225.867 56.5C226.007 56.4347 226.138 56.4253 226.259 56.472C226.381 56.5093 226.474 56.598 226.539 56.738L229.605 63.206C229.68 63.346 229.703 63.4767 229.675 63.598C229.647 63.7193 229.563 63.8127 229.423 63.878Z" fill="#FCFCFD"/>
</svg>
