<svg width="16" height="16" viewBox="0 0 16 16" fill="none" xmlns="http://www.w3.org/2000/svg">
<rect x="1" y="1" width="14" height="14" rx="6" fill="url(#paint0_radial_236_12249)"/>
<rect x="1" y="1" width="14" height="14" rx="6" fill="url(#paint1_radial_236_12249)"/>
<rect x="1" y="1" width="14" height="14" rx="6" fill="url(#paint2_radial_236_12249)"/>
<path d="M11.5 5.25C11.5 5.66421 11.1642 6 10.75 6C10.3358 6 10 5.66421 10 5.25C10 4.83579 10.3358 4.5 10.75 4.5C11.1642 4.5 11.5 4.83579 11.5 5.25Z" fill="white"/>
<path fill-rule="evenodd" clip-rule="evenodd" d="M8 10.5C9.38071 10.5 10.5 9.38071 10.5 8C10.5 6.61929 9.38071 5.5 8 5.5C6.61929 5.5 5.5 6.61929 5.5 8C5.5 9.38071 6.61929 10.5 8 10.5ZM8 9.5C8.82843 9.5 9.5 8.82843 9.5 8C9.5 7.17157 8.82843 6.5 8 6.5C7.17157 6.5 6.5 7.17157 6.5 8C6.5 8.82843 7.17157 9.5 8 9.5Z" fill="white"/>
<path fill-rule="evenodd" clip-rule="evenodd" d="M3 7.8C3 6.11984 3 5.27976 3.32698 4.63803C3.6146 4.07354 4.07354 3.6146 4.63803 3.32698C5.27976 3 6.11984 3 7.8 3H8.2C9.88016 3 10.7202 3 11.362 3.32698C11.9265 3.6146 12.3854 4.07354 12.673 4.63803C13 5.27976 13 6.11984 13 7.8V8.2C13 9.88016 13 10.7202 12.673 11.362C12.3854 11.9265 11.9265 12.3854 11.362 12.673C10.7202 13 9.88016 13 8.2 13H7.8C6.11984 13 5.27976 13 4.63803 12.673C4.07354 12.3854 3.6146 11.9265 3.32698 11.362C3 10.7202 3 9.88016 3 8.2V7.8ZM7.8 4H8.2C9.05658 4 9.63887 4.00078 10.089 4.03755C10.5274 4.07337 10.7516 4.1383 10.908 4.21799C11.2843 4.40973 11.5903 4.71569 11.782 5.09202C11.8617 5.24842 11.9266 5.47262 11.9624 5.91104C11.9992 6.36113 12 6.94342 12 7.8V8.2C12 9.05658 11.9992 9.63887 11.9624 10.089C11.9266 10.5274 11.8617 10.7516 11.782 10.908C11.5903 11.2843 11.2843 11.5903 10.908 11.782C10.7516 11.8617 10.5274 11.9266 10.089 11.9624C9.63887 11.9992 9.05658 12 8.2 12H7.8C6.94342 12 6.36113 11.9992 5.91104 11.9624C5.47262 11.9266 5.24842 11.8617 5.09202 11.782C4.71569 11.5903 4.40973 11.2843 4.21799 10.908C4.1383 10.7516 4.07337 10.5274 4.03755 10.089C4.00078 9.63887 4 9.05658 4 8.2V7.8C4 6.94342 4.00078 6.36113 4.03755 5.91104C4.07337 5.47262 4.1383 5.24842 4.21799 5.09202C4.40973 4.71569 4.71569 4.40973 5.09202 4.21799C5.24842 4.1383 5.47262 4.07337 5.91104 4.03755C6.36113 4.00078 6.94342 4 7.8 4Z" fill="white"/>
<defs>
<radialGradient id="paint0_radial_236_12249" cx="0" cy="0" r="1" gradientUnits="userSpaceOnUse" gradientTransform="translate(6 11.5) rotate(-55.3758) scale(12.7598)">
<stop stop-color="#B13589"/>
<stop offset="0.79309" stop-color="#C62F94"/>
<stop offset="1" stop-color="#8A3AC8"/>
</radialGradient>
<radialGradient id="paint1_radial_236_12249" cx="0" cy="0" r="1" gradientUnits="userSpaceOnUse" gradientTransform="translate(5.5 15.5) rotate(-65.1363) scale(11.2971)">
<stop stop-color="#E0E8B7"/>
<stop offset="0.444662" stop-color="#FB8A2E"/>
<stop offset="0.71474" stop-color="#E2425C"/>
<stop offset="1" stop-color="#E2425C" stop-opacity="0"/>
</radialGradient>
<radialGradient id="paint2_radial_236_12249" cx="0" cy="0" r="1" gradientUnits="userSpaceOnUse" gradientTransform="translate(0.250001 1.5) rotate(-8.1301) scale(19.4454 4.15918)">
<stop offset="0.156701" stop-color="#406ADC"/>
<stop offset="0.467799" stop-color="#6A45BE"/>
<stop offset="1" stop-color="#6A45BE" stop-opacity="0"/>
</radialGradient>
</defs>
</svg>
