<svg width="92" height="104" viewBox="0 0 92 104" fill="none" xmlns="http://www.w3.org/2000/svg">
<circle cx="47.6666" cy="55" r="37" fill="#79BAC1"/>
<g clip-path="url(#clip0_246_10268)">
<path d="M61.2756 46.67L60.7108 61.5063L79.2679 62.2128L79.8327 47.3764L61.2756 46.67Z" fill="white"/>
<path d="M79.8351 47.3773H79.7441H79.4828L78.4749 47.347L74.6652 47.2093L61.2669 46.7264L61.3229 46.6728C61.1549 51.0891 60.9659 56.1517 60.763 61.5082L60.7046 61.4452L79.2728 62.1731L79.2192 62.2221C79.4011 57.7567 79.5505 54.0566 79.6554 51.4647C79.7114 50.1699 79.7534 49.1527 79.7838 48.4575C79.7978 48.1122 79.8117 47.8462 79.8187 47.6643C79.8257 47.4823 79.8351 47.3866 79.8351 47.3866C79.8351 47.3866 79.8351 47.4753 79.8351 47.6526C79.8351 47.8299 79.8211 48.0959 79.8117 48.4365C79.7884 49.1364 79.7534 50.1442 79.7091 51.4344C79.6181 54.0333 79.4758 57.7474 79.3242 62.2267V62.2757H79.2728L60.714 61.5758H60.6533V61.5152C60.861 56.1493 61.0546 51.0961 61.2249 46.6821V46.6261H61.2786L74.7119 47.165L78.4983 47.3237L79.4968 47.368L79.7511 47.382L79.8351 47.3773Z" fill="#263238"/>
<path d="M62.1434 47.649L61.6243 60.6273L78.8906 61.318L79.4098 48.3396L62.1434 47.649Z" fill="#455A64"/>
<path d="M61.3882 60.5983L67.7199 52.7665L71.2614 57.9527L73.8976 55.3514L78.6406 61.2562L61.3882 60.5983Z" fill="#512B58"/>
<path d="M73.0765 51.9826C73.0684 52.252 72.9805 52.513 72.8238 52.7323C72.6672 52.9517 72.4489 53.1195 72.1967 53.2146C71.9445 53.3097 71.6697 53.3277 71.4073 53.2663C71.1448 53.205 70.9065 53.067 70.7226 52.87C70.5387 52.6729 70.4175 52.4257 70.3743 52.1596C70.3312 51.8935 70.3681 51.6207 70.4803 51.3756C70.5925 51.1305 70.775 50.9244 71.0047 50.7832C71.2343 50.6421 71.5007 50.5723 71.77 50.5828C72.1283 50.5968 72.4666 50.7517 72.7113 51.0139C72.9559 51.276 73.0872 51.6242 73.0765 51.9826Z" fill="#512B58"/>
<g opacity="0.7">
<path opacity="0.6" d="M61.3881 60.5983L67.7198 52.7665L71.2612 57.9527L73.8975 55.3514L78.6404 61.2562L61.3881 60.5983Z" fill="white"/>
<path opacity="0.6" d="M73.0763 51.9826C73.0683 52.252 72.9803 52.513 72.8237 52.7323C72.6671 52.9517 72.4488 53.1195 72.1966 53.2146C71.9444 53.3097 71.6696 53.3277 71.4072 53.2663C71.1447 53.205 70.9064 53.067 70.7225 52.87C70.5386 52.6729 70.4174 52.4257 70.3742 52.1596C70.3311 51.8935 70.368 51.6207 70.4802 51.3756C70.5924 51.1305 70.7749 50.9244 71.0045 50.7832C71.2342 50.6421 71.5005 50.5723 71.7699 50.5828C72.1282 50.5968 72.4665 50.7517 72.7111 51.0139C72.9558 51.276 73.0871 51.6242 73.0763 51.9826Z" fill="white"/>
</g>
<path d="M28.3984 69.0686L26.5668 75.3L34.3605 77.5908L36.1921 71.3595L28.3984 69.0686Z" fill="white"/>
<path d="M36.192 71.3627H36.1524L36.0404 71.3323L35.6111 71.2134L34.0083 70.7584L28.3835 69.1253L28.4512 69.088L26.6245 75.3217C26.6245 75.3381 26.5475 75.1794 26.5848 75.2471H26.6058H26.6221H26.6548L26.7225 75.2681L26.8578 75.3077L27.1261 75.3847L27.6603 75.5434L28.7101 75.8513L30.7328 76.4486L34.3793 77.5287L34.3046 77.5707L35.6554 73.0681C35.8211 72.5292 35.9494 72.1022 36.0404 71.8036L36.1454 71.47C36.1555 71.4301 36.1688 71.3911 36.185 71.3533C36.1784 71.3903 36.1699 71.4269 36.1594 71.463C36.136 71.5446 36.1057 71.652 36.0684 71.7919C35.9844 72.0882 35.8631 72.5128 35.7114 73.0494L34.4026 77.5987L34.3886 77.6477L34.3396 77.6337C33.2245 77.3071 32.0066 76.9478 30.6862 76.5676L28.6635 75.975L27.6137 75.667L27.0817 75.5084L26.8111 75.4314L26.6781 75.3917L26.6105 75.3707H26.5755H26.5591H26.5451C26.5801 75.4384 26.4915 75.2774 26.5008 75.2937C27.1657 73.0448 27.791 70.9194 28.3392 69.0647L28.3555 69.0134L28.4069 69.0274L34.0503 70.7164L35.6344 71.197L36.0474 71.3254C36.0966 71.3333 36.145 71.3458 36.192 71.3627Z" fill="#263238"/>
<path d="M28.552 69.5426L26.9513 74.9884L34.1989 77.1187L35.7996 71.6729L28.552 69.5426Z" fill="#512B58"/>
<path d="M26.951 74.9881L30.4762 72.3472L31.421 74.9275L32.8185 74.1063L34.1973 77.1181L26.951 74.9881Z" fill="#263238"/>
<path d="M32.8326 72.5898C32.7992 72.7026 32.7333 72.8029 32.6429 72.8782C32.5526 72.9535 32.442 73.0004 32.3251 73.0128C32.2081 73.0253 32.0901 73.0028 31.986 72.9482C31.8818 72.8937 31.7961 72.8095 31.7398 72.7062C31.6835 72.603 31.659 72.4854 31.6695 72.3683C31.6799 72.2512 31.7249 72.1398 31.7986 72.0482C31.8724 71.9566 31.9716 71.8889 32.0838 71.8537C32.196 71.8185 32.3161 71.8173 32.429 71.8503C32.5041 71.8722 32.5741 71.9088 32.6351 71.9579C32.6961 72.0069 32.7467 72.0676 32.7842 72.1363C32.8217 72.205 32.8453 72.2804 32.8536 72.3582C32.8619 72.4361 32.8547 72.5147 32.8326 72.5898Z" fill="#263238"/>
<path d="M47.8389 13.457L12.9368 22.4523L20.1282 50.355L55.0303 41.3596L47.8389 13.457Z" fill="white"/>
<path d="M47.6819 13.1664L47.5163 13.2131L47.0287 13.3414L45.1436 13.8407L38.0234 15.707L12.8808 22.307L12.9182 22.2394C15.0832 30.5238 17.5655 40.0214 20.1901 50.0695L20.1177 50.0275L54.9351 40.9429L54.8978 41.0035L49.6509 20.7999C49.021 18.369 48.5288 16.4606 48.1905 15.1588C48.0248 14.5079 47.8965 14.011 47.8102 13.6727C47.7239 13.3344 47.6819 13.1594 47.6819 13.1594C47.6819 13.1594 47.7286 13.3274 47.8172 13.6587C47.9059 13.99 48.0365 14.4892 48.2092 15.1331C48.5498 16.4303 49.0514 18.3316 49.6906 20.7579C50.9667 25.6199 52.7935 32.5815 54.9958 40.9802L55.0098 41.0269L54.9608 41.0409L20.1481 50.1395L20.0898 50.1558L20.0734 50.0952C17.4512 40.0447 14.9735 30.5471 12.8132 22.2627L12.7992 22.2114L12.8529 22.1974L38.0374 15.6534L45.153 13.8103L47.031 13.3274L47.5116 13.2037L47.6819 13.1664Z" fill="#263238"/>
<path d="M46.892 15.2448L14.524 23.6941L20.875 48.0237L53.243 39.5744L46.892 15.2448Z" fill="#512B58"/>
<path opacity="0.6" d="M46.892 15.2448L14.524 23.6941L20.875 48.0237L53.243 39.5744L46.892 15.2448Z" fill="white"/>
<path d="M20.876 48.0212L28.2319 29.9476L37.7061 37.5811L41.1356 31.2821L53.2437 39.5712L20.876 48.0212Z" fill="#263238"/>
<path d="M37.7247 25.4916C37.856 25.9958 37.8349 26.5275 37.664 27.0196C37.4931 27.5118 37.1801 27.9421 36.7645 28.2564C36.349 28.5706 35.8497 28.7546 35.3296 28.785C34.8095 28.8154 34.2921 28.6909 33.8428 28.4273C33.3935 28.1636 33.0324 27.7726 32.8053 27.3038C32.5782 26.8349 32.4953 26.3093 32.5669 25.7933C32.6386 25.2773 32.8616 24.7941 33.2079 24.4049C33.5541 24.0156 34.008 23.7378 34.5122 23.6066C34.8469 23.5191 35.1956 23.4985 35.5383 23.5459C35.8809 23.5934 36.2109 23.7079 36.5093 23.883C36.8077 24.0581 37.0686 24.2903 37.2772 24.5663C37.4857 24.8423 37.6378 25.1568 37.7247 25.4916Z" fill="#263238"/>
<path d="M28.6494 59.4737C28.108 59.5535 27.5578 59.5535 27.0164 59.4737C27.5578 59.3939 28.108 59.3939 28.6494 59.4737Z" fill="#512B58"/>
<path d="M29.5196 56.8631C29.6005 57.5091 29.6005 58.1628 29.5196 58.8088C29.4388 58.1628 29.4388 57.5091 29.5196 56.8631Z" fill="#512B58"/>
<path d="M30.4482 59.4107C30.9897 59.3309 31.5399 59.3309 32.0813 59.4107C31.5399 59.4905 30.9897 59.4905 30.4482 59.4107Z" fill="#512B58"/>
<path d="M29.578 62.0213C29.4971 61.3745 29.4971 60.7201 29.578 60.0733C29.6589 60.7201 29.6589 61.3745 29.578 62.0213Z" fill="#512B58"/>
<path d="M30.9032 60.9015C30.8775 60.9201 30.7235 60.7545 30.5626 60.5282C30.4016 60.3019 30.2943 60.1036 30.3293 60.0849C30.3643 60.0663 30.5089 60.2319 30.6722 60.4559C30.8355 60.6798 30.9312 60.8805 30.9032 60.9015Z" fill="#512B58"/>
<path d="M30.8286 57.9409C30.8542 57.9619 30.7376 58.1392 30.5719 58.3375C30.4063 58.5358 30.2476 58.6758 30.222 58.6548C30.1963 58.6338 30.3106 58.4565 30.4786 58.2582C30.6466 58.0599 30.8052 57.9199 30.8286 57.9409Z" fill="#512B58"/>
<path d="M28.9388 58.6945C28.9155 58.7178 28.7662 58.6128 28.6075 58.4612C28.4489 58.3095 28.3369 58.1626 28.3603 58.1392C28.3836 58.1159 28.5329 58.2209 28.6915 58.3725C28.8502 58.5242 28.9692 58.6735 28.9388 58.6945Z" fill="#512B58"/>
<path d="M28.8712 59.9986C28.8992 60.0196 28.7965 60.1946 28.6379 60.3906C28.4792 60.5865 28.3416 60.7265 28.3136 60.7055C28.2856 60.6845 28.3906 60.5095 28.5469 60.3159C28.7032 60.1223 28.8455 59.98 28.8712 59.9986Z" fill="#512B58"/>
<path d="M66.6235 30.3931C66.4466 30.4533 66.2587 30.474 66.0729 30.4538C65.8879 30.4742 65.7007 30.4535 65.5247 30.3931C65.701 30.3341 65.8879 30.3134 66.0729 30.3325C66.2587 30.3135 66.4463 30.3342 66.6235 30.3931Z" fill="#512B58"/>
<path d="M67.1997 28.9C67.2806 29.2673 67.2806 29.6478 67.1997 30.0151C67.1188 29.6478 67.1188 29.2673 67.1997 28.9Z" fill="#512B58"/>
<path d="M67.8271 30.3581C68.0032 30.2977 68.1904 30.277 68.3754 30.2975C68.5612 30.2772 68.7491 30.2979 68.926 30.3581C68.7488 30.417 68.5612 30.4377 68.3754 30.4188C68.1904 30.4378 68.0035 30.4171 67.8271 30.3581Z" fill="#512B58"/>
<path d="M67.244 31.8442C67.1837 31.6649 67.163 31.4747 67.1834 31.2866C67.1628 31.0993 67.1835 30.9098 67.244 30.7314C67.3032 30.9101 67.3239 31.0993 67.3047 31.2866C67.3237 31.4747 67.303 31.6646 67.244 31.8442Z" fill="#512B58"/>
<path d="M68.1328 31.212C68.1072 31.233 67.9998 31.1443 67.8995 31.016C67.7992 30.8877 67.7245 30.7641 67.7502 30.7431C67.7759 30.7221 67.8832 30.8084 67.9835 30.939C68.0838 31.0697 68.1562 31.1887 68.1328 31.212Z" fill="#512B58"/>
<path d="M68.0791 29.5112C68.1047 29.5369 68.0324 29.6466 67.9204 29.7585C67.8085 29.8705 67.6988 29.9452 67.6871 29.9218C67.6755 29.8985 67.7338 29.7865 67.8458 29.6746C67.9578 29.5626 68.0557 29.4926 68.0791 29.5112Z" fill="#512B58"/>
<path d="M66.8218 29.9475C66.8008 29.9732 66.6958 29.9242 66.5885 29.8355C66.4811 29.7469 66.4135 29.6536 66.4345 29.6279C66.4555 29.6022 66.5605 29.6536 66.6678 29.7422C66.7751 29.8309 66.8428 29.9219 66.8218 29.9475Z" fill="#512B58"/>
<path d="M66.7727 30.6941C66.7961 30.7174 66.7354 30.827 66.6327 30.939C66.5301 31.051 66.4274 31.121 66.3994 31.1C66.3715 31.079 66.4368 30.967 66.5394 30.855C66.6421 30.743 66.7471 30.6777 66.7727 30.6941Z" fill="#512B58"/>
<path d="M67.7012 33.1553L67.7549 33.2837C67.85 33.5095 68.0302 33.6888 68.2565 33.7829L68.3988 33.8389L68.2635 33.8949C68.1494 33.9409 68.0457 34.0094 67.9587 34.0964C67.8717 34.1834 67.8032 34.2871 67.7572 34.4012L67.7199 34.4945L67.6615 34.3755C67.5573 34.1602 67.3744 33.9932 67.1506 33.9089L67.027 33.8646L67.188 33.7876C67.388 33.691 67.5463 33.5253 67.6335 33.321L67.7012 33.1553Z" fill="#512B58"/>
<path d="M33.873 50.9326L33.9266 51.061C34.0218 51.2868 34.2019 51.4661 34.4282 51.5602L34.5705 51.6162L34.4352 51.6722C34.3211 51.7182 34.2175 51.7867 34.1305 51.8737C34.0435 51.9607 33.975 52.0644 33.929 52.1785L33.8916 52.2718L33.8333 52.1528C33.7285 51.9371 33.5447 51.77 33.32 51.6862L33.1987 51.6419L33.3597 51.5649C33.5597 51.4683 33.718 51.3026 33.8053 51.0983L33.873 50.9326Z" fill="#512B58"/>
<path d="M34.643 66.5496L34.6686 66.6149C34.717 66.7272 34.8075 66.816 34.9206 66.8622L34.9906 66.8926L34.9229 66.9182C34.8663 66.9419 34.8148 66.9766 34.7716 67.0203C34.7284 67.0639 34.6942 67.1156 34.671 67.1725L34.6523 67.2192L34.622 67.1609C34.5701 67.0535 34.4791 66.97 34.3677 66.9276L34.3047 66.9066L34.3863 66.8669C34.4855 66.8179 34.5641 66.7352 34.608 66.6336L34.643 66.5496Z" fill="#512B58"/>
<path d="M53.393 23.4688L53.4466 23.5995C53.493 23.7115 53.5613 23.8131 53.6474 23.8984C53.7335 23.9838 53.8358 24.0511 53.9482 24.0964L54.0882 24.1547L53.9529 24.2084C53.8393 24.2548 53.7362 24.3235 53.6496 24.4104C53.563 24.4974 53.4948 24.6008 53.449 24.7147L53.4093 24.8103L53.3533 24.6913C53.2485 24.4756 53.0648 24.3085 52.8401 24.2247L52.7188 24.1804L52.8774 24.1011C53.0783 24.0049 53.2375 23.8391 53.3253 23.6345L53.393 23.4688Z" fill="#512B58"/>
<path d="M58.6027 97.3263L58.6143 95.18L54.6016 95.131L54.5503 98.2712L54.7999 98.2899C55.9081 98.3645 60.4387 98.5932 61.183 98.3762C62.0065 98.1359 58.6027 97.3263 58.6027 97.3263Z" fill="#512B58"/>
<path d="M56.0014 98.2572C55.9454 97.9173 55.766 97.6099 55.4975 97.394C55.2354 97.1795 54.9024 97.0713 54.5643 97.0907L54.5503 98.2129L56.0014 98.2572Z" fill="#455A64"/>
<path d="M60.266 97.7813C60.266 97.7813 61.4582 98.1406 61.3065 98.3366C61.1549 98.5325 56.5659 98.4719 54.5409 98.2712V98.1802L59.8927 98.2946C59.8927 98.2946 60.0304 97.7883 60.266 97.7813Z" fill="#455A64"/>
<path d="M54.4896 98.1779C54.5129 98.1794 54.5363 98.1794 54.5596 98.1779L54.7579 98.1919L55.4881 98.2339C56.104 98.2642 56.9556 98.2945 57.8981 98.3062C58.8406 98.3179 59.6922 98.3062 60.3104 98.3062L61.0406 98.2852H61.2389H61.3089C61.2857 98.2828 61.2622 98.2828 61.2389 98.2852H61.0406H60.3104C59.6922 98.2852 58.8406 98.2852 57.8981 98.2852C56.9556 98.2852 56.104 98.2479 55.4881 98.2269L54.7579 98.2012H54.5596L54.4896 98.1779Z" fill="#263238"/>
<path d="M59.9021 98.3575C59.9345 98.2364 59.9815 98.1197 60.042 98.0099C60.1162 97.9089 60.2007 97.8159 60.294 97.7323C60.1695 97.7782 60.0659 97.8677 60.0024 97.9843C59.9237 98.0919 59.888 98.225 59.9021 98.3575Z" fill="#263238"/>
<path d="M58.724 97.7393C58.7357 97.7393 58.7917 97.6787 58.8523 97.5877C58.913 97.4967 58.9526 97.415 58.941 97.408C58.9293 97.401 58.871 97.4687 58.8126 97.562C58.7543 97.6553 58.7123 97.7323 58.724 97.7393Z" fill="#263238"/>
<path d="M58.3997 97.5643C58.3997 97.5643 58.4744 97.5317 58.5444 97.471C58.6143 97.4104 58.6633 97.352 58.654 97.3427C58.6447 97.3334 58.5817 97.373 58.5117 97.4337C58.4417 97.4943 58.3927 97.5527 58.3997 97.5643Z" fill="#263238"/>
<path d="M58.1991 97.1817C58.337 97.2159 58.4811 97.2159 58.619 97.1817C58.5517 97.1579 58.4802 97.1484 58.4091 97.1537C58.3379 97.1473 58.2661 97.1568 58.1991 97.1817Z" fill="#263238"/>
<path d="M58.1338 96.9134C58.2018 96.9619 58.2836 96.9873 58.3671 96.9857C58.4462 96.9982 58.5271 96.9877 58.6004 96.9554C58.5233 96.9421 58.4453 96.9359 58.3671 96.9368C58.2903 96.9213 58.2121 96.9135 58.1338 96.9134Z" fill="#263238"/>
<path d="M58.864 97.401C58.9497 97.4153 59.0373 97.4153 59.123 97.401C59.2162 97.3893 59.3083 97.3698 59.3983 97.3427C59.4534 97.328 59.5067 97.3069 59.5569 97.2797C59.5878 97.2623 59.6111 97.234 59.6222 97.2004C59.6263 97.1813 59.6248 97.1614 59.6177 97.1431C59.6107 97.1249 59.5985 97.1091 59.5826 97.0977C59.4852 97.0472 59.3731 97.0326 59.266 97.0565C59.1589 97.0803 59.0637 97.1412 58.997 97.2284C58.9563 97.2783 58.9269 97.3364 58.9107 97.3987C58.9055 97.4217 58.9055 97.4456 58.9107 97.4687C58.9394 97.3897 58.9803 97.3157 59.032 97.2494C59.0918 97.1834 59.1684 97.1351 59.2536 97.1094C59.3041 97.0932 59.3573 97.0872 59.4102 97.0916C59.463 97.096 59.5145 97.1108 59.5616 97.135C59.6036 97.1654 59.5849 97.212 59.5406 97.24C59.4932 97.264 59.4441 97.2843 59.3936 97.3007C59.3066 97.3288 59.2178 97.3507 59.1276 97.366C58.962 97.3847 58.864 97.3823 58.864 97.401Z" fill="#263238"/>
<path d="M58.9315 97.401C58.9627 97.3467 58.9743 97.2832 58.9642 97.2214C58.9569 97.1536 58.9329 97.0886 58.8942 97.0324C58.8731 96.9938 58.8425 96.9612 58.8054 96.9375C58.7683 96.9138 58.7258 96.8999 58.6819 96.8971C58.6554 96.9022 58.6319 96.9175 58.6166 96.9398C58.6014 96.9621 58.5955 96.9895 58.6003 97.0161C58.6056 97.0568 58.62 97.0959 58.6422 97.1304C58.6755 97.1884 58.7163 97.2417 58.7636 97.289C58.803 97.3363 58.8535 97.3732 58.9105 97.3964C58.9105 97.3964 58.8592 97.3497 58.7892 97.2657C58.7486 97.2171 58.7127 97.1648 58.6819 97.1094C58.6469 97.0557 58.6236 96.9554 58.6819 96.9461C58.7402 96.9368 58.8126 97.0044 58.8522 97.0581C58.8874 97.1083 58.9113 97.1657 58.9222 97.226C58.9302 97.284 58.9334 97.3425 58.9315 97.401Z" fill="#263238"/>
<path d="M54.5853 97.0791C54.5853 97.0791 54.702 97.0791 54.8816 97.0931C55.1178 97.1252 55.3411 97.2202 55.5279 97.3684C55.7101 97.5208 55.8472 97.72 55.9245 97.9446C55.9828 98.1173 55.9875 98.2339 55.9968 98.2339C56.0007 98.2068 56.0007 98.1793 55.9968 98.1523C55.9896 98.0788 55.9755 98.0061 55.9548 97.9353C55.8859 97.698 55.7467 97.4871 55.5555 97.3305C55.3643 97.1739 55.1302 97.0789 54.8839 97.0581C54.8064 97.0497 54.7282 97.0497 54.6507 97.0581C54.6279 97.0615 54.6058 97.0686 54.5853 97.0791Z" fill="#263238"/>
<path d="M55.0238 95.411C54.9914 95.6851 54.9758 95.9609 54.9771 96.2369C54.9601 96.5119 54.9601 96.7877 54.9771 97.0627C55.0223 96.5134 55.0363 95.9619 55.0191 95.411H55.0238Z" fill="#263238"/>
<path d="M56.5123 97.8676C56.7044 97.9165 56.9021 97.9392 57.1002 97.9353C57.2971 97.9463 57.4946 97.933 57.6882 97.8956C57.6882 97.8793 57.4245 97.8956 57.1002 97.8956C56.776 97.8956 56.5147 97.8676 56.5123 97.8676Z" fill="#263238"/>
<path d="M55.7261 97.8676C55.7261 97.8676 55.7471 97.9236 55.7727 97.9842C55.7984 98.0449 55.8124 98.0962 55.8264 98.0962C55.8404 98.0962 55.8474 98.0332 55.8264 97.9632C55.8054 97.8933 55.7354 97.8513 55.7261 97.8676Z" fill="#263238"/>
<path d="M55.4345 97.4873C55.4228 97.4873 55.4485 97.5387 55.4904 97.5807C55.5324 97.6226 55.5721 97.6506 55.5814 97.6413C55.5908 97.632 55.5674 97.59 55.5254 97.548C55.4834 97.506 55.4438 97.478 55.4345 97.4873Z" fill="#263238"/>
<path d="M55.0121 97.3124C55.0121 97.3264 55.0681 97.3264 55.1264 97.3473C55.1847 97.3683 55.2267 97.401 55.2384 97.3917C55.25 97.3823 55.2151 97.3287 55.1427 97.303C55.0704 97.2774 55.0074 97.3007 55.0121 97.3124Z" fill="#263238"/>
<path d="M54.709 97.2284C54.709 97.2424 54.7276 97.2634 54.7603 97.275C54.793 97.2867 54.8256 97.289 54.8303 97.275C54.835 97.2611 54.8116 97.2424 54.779 97.2284C54.7463 97.2144 54.716 97.2167 54.709 97.2284Z" fill="#263238"/>
<path d="M62.5804 96.2649L63.1893 94.3262L59.5662 93.1597L58.647 96.0012L58.8663 96.0876C59.8485 96.4632 63.8868 97.9306 64.6194 97.9423C65.4383 97.9446 62.5804 96.2649 62.5804 96.2649Z" fill="#512B58"/>
<path d="M59.9674 96.3838C60.0116 96.0614 59.9352 95.7341 59.7528 95.4646C59.5745 95.1967 59.3023 95.0053 58.9899 94.928L58.6656 95.9406L59.9674 96.3838Z" fill="#455A64"/>
<path d="M63.9592 97.1397C63.9592 97.1397 64.939 97.7953 64.7477 97.9306C64.5564 98.0659 60.42 96.7361 58.647 95.9919L58.6796 95.9126L63.4902 97.5037C63.4902 97.5037 63.7469 97.0814 63.9592 97.1397Z" fill="#455A64"/>
<path d="M58.6235 95.8916C58.6235 95.8916 58.6422 95.9033 58.6819 95.9196L58.8568 95.9873L59.5077 96.2206C60.056 96.4189 60.8189 96.6871 61.6681 96.9554C62.5173 97.2237 63.3012 97.4594 63.8541 97.6203L64.5213 97.8046L64.7033 97.8513C64.7245 97.858 64.7464 97.8619 64.7686 97.863L64.7056 97.842L64.526 97.786L63.8634 97.5877C63.3035 97.422 62.5313 97.1864 61.6821 96.9134C60.8329 96.6405 60.07 96.3792 59.5171 96.1902L58.8638 95.9569L58.6865 95.8963L58.6235 95.8916Z" fill="#263238"/>
<path d="M63.4669 97.5597C63.5321 97.4579 63.6105 97.3653 63.7002 97.2844C63.7939 97.2128 63.8957 97.1525 64.0035 97.1047C63.8799 97.1182 63.7632 97.1689 63.6691 97.2501C63.5749 97.3314 63.5077 97.4393 63.4763 97.5597H63.4669Z" fill="#263238"/>
<path d="M62.5758 96.6731C62.5758 96.6731 62.6551 96.6381 62.7344 96.5705C62.8138 96.5028 62.8721 96.4422 62.8651 96.4328C62.8581 96.4235 62.7858 96.4702 62.7041 96.5355C62.6225 96.6008 62.5688 96.6638 62.5758 96.6731Z" fill="#263238"/>
<path d="M62.3331 96.4235C62.3331 96.4352 62.4077 96.4235 62.487 96.3792C62.5664 96.3348 62.6294 96.3045 62.6247 96.2928C62.62 96.2812 62.55 96.2928 62.4684 96.3372C62.3867 96.3815 62.3261 96.4118 62.3331 96.4235Z" fill="#263238"/>
<path d="M62.2561 96.0222C62.3098 96.0639 62.3719 96.0934 62.4381 96.1085C62.4995 96.1367 62.5665 96.1503 62.634 96.1482C62.634 96.1365 62.5571 96.0992 62.4521 96.0642C62.3906 96.0362 62.3237 96.0219 62.2561 96.0222Z" fill="#263238"/>
<path d="M62.27 95.7679C62.3193 95.8291 62.386 95.8738 62.4613 95.8962C62.5329 95.9338 62.6144 95.9485 62.6946 95.9382C62.6284 95.9034 62.5588 95.8752 62.487 95.8542C62.4168 95.8204 62.3443 95.7915 62.27 95.7679Z" fill="#263238"/>
<path d="M62.7997 96.3979C62.8726 96.4355 62.9516 96.4599 63.033 96.4702C63.1207 96.4869 63.2097 96.4955 63.2989 96.4958C63.3529 96.4967 63.4069 96.492 63.4599 96.4818C63.4761 96.4789 63.4916 96.4726 63.5052 96.4633C63.5189 96.4541 63.5305 96.4421 63.5392 96.4282C63.5496 96.4131 63.5551 96.3952 63.5551 96.3769C63.5551 96.3585 63.5496 96.3407 63.5392 96.3255C63.4652 96.2525 63.3679 96.2078 63.2642 96.1993C63.1606 96.1907 63.0573 96.2189 62.9723 96.2789C62.9214 96.3129 62.8785 96.3574 62.8463 96.4095C62.823 96.4469 62.816 96.4702 62.8207 96.4725C62.8658 96.4072 62.9228 96.3511 62.9887 96.3069C63.0593 96.2649 63.1398 96.2424 63.222 96.2415C63.3235 96.2399 63.4216 96.2785 63.4949 96.3489C63.5229 96.3885 63.4949 96.4282 63.4459 96.4399C63.3967 96.4491 63.3467 96.4538 63.2966 96.4539C63.2092 96.455 63.1219 96.4495 63.0353 96.4375C62.8907 96.4189 62.802 96.3909 62.7997 96.3979Z" fill="#263238"/>
<path d="M62.858 96.4282C62.858 96.4282 62.9116 96.3838 62.935 96.2742C62.9509 96.2122 62.9509 96.1472 62.935 96.0852C62.928 96.0438 62.9101 96.0051 62.883 95.9731C62.8559 95.941 62.8206 95.9169 62.781 95.9032C62.7558 95.9012 62.7308 95.9086 62.7109 95.9242C62.691 95.9398 62.6777 95.9623 62.6737 95.9872C62.6638 96.0255 62.6638 96.0656 62.6737 96.1039C62.6878 96.1652 62.7089 96.2247 62.7367 96.2812C62.7599 96.3349 62.796 96.3822 62.8416 96.4188C62.8416 96.4188 62.8066 96.3605 62.767 96.2672C62.7441 96.2123 62.7269 96.1553 62.7157 96.0969C62.6993 96.0362 62.7157 95.9406 62.767 95.9499C62.8183 95.9592 62.8673 96.0386 62.8883 96.0969C62.907 96.1524 62.9126 96.2115 62.9046 96.2695C62.8924 96.3233 62.8768 96.3763 62.858 96.4282Z" fill="#263238"/>
<path d="M59.0156 94.9257C59.0156 94.9257 59.1206 94.949 59.2792 95.0214C59.4838 95.114 59.6581 95.2626 59.7819 95.45C59.9057 95.6374 59.9741 95.856 59.9791 96.0805C59.9791 96.2532 59.9558 96.3605 59.9651 96.3628C59.9764 96.3392 59.9843 96.314 59.9885 96.2882C60.0022 96.2197 60.01 96.1503 60.0118 96.0805C60.013 95.847 59.9456 95.6183 59.8182 95.4226C59.688 95.2288 59.5027 95.0784 59.2862 94.991C59.2205 94.9648 59.1526 94.9445 59.0833 94.9304C59.0343 94.9234 59.0156 94.921 59.0156 94.9257Z" fill="#263238"/>
<path d="M59.8742 93.5376C59.7697 93.7771 59.6793 94.0225 59.6035 94.2725C59.5107 94.5172 59.4328 94.7673 59.3702 95.0214C59.4742 94.7817 59.5646 94.5363 59.6409 94.2865C59.7337 94.0418 59.8116 93.7917 59.8742 93.5376Z" fill="#263238"/>
<path d="M60.5391 96.1785C60.7 96.2724 60.8715 96.3468 61.05 96.4002C61.2249 96.4661 61.4076 96.5092 61.5936 96.5285C61.5936 96.5145 61.3603 96.4538 61.0663 96.3558C60.7724 96.2578 60.5437 96.1645 60.5391 96.1785Z" fill="#263238"/>
<path d="M59.8298 95.9476C59.8181 95.9476 59.8298 96.0059 59.8298 96.0666C59.8298 96.1272 59.8298 96.1809 59.8461 96.1856C59.8624 96.1902 59.8834 96.1342 59.8764 96.0619C59.8694 95.9896 59.8391 95.9429 59.8298 95.9476Z" fill="#263238"/>
<path d="M59.6687 95.5346C59.6571 95.5346 59.6687 95.586 59.6944 95.635C59.72 95.6839 59.748 95.7213 59.7597 95.7166C59.7714 95.7119 59.7597 95.6653 59.734 95.614C59.7084 95.5626 59.6804 95.5346 59.6687 95.5346Z" fill="#263238"/>
<path d="M59.3352 95.2547C59.3352 95.2687 59.3819 95.2827 59.4285 95.3177C59.4752 95.3526 59.5055 95.3946 59.5172 95.39C59.5288 95.3853 59.5172 95.3247 59.4565 95.2803C59.3959 95.236 59.3352 95.243 59.3352 95.2547Z" fill="#263238"/>
<path d="M59.0856 95.096C59.0856 95.096 59.0856 95.131 59.1182 95.152C59.1509 95.173 59.1719 95.1823 59.1812 95.173C59.1906 95.1637 59.1812 95.138 59.1462 95.117C59.1112 95.096 59.0926 95.0843 59.0856 95.096Z" fill="#263238"/>
<path d="M65.2284 57.4487L60.7234 57.1034L53.3162 56.5015L54.135 96.2905L59.9815 96.0969C59.9815 96.0969 59.9815 95.6559 59.9815 94.879L63.0727 95.6769C63.0727 95.6769 68.8935 83.7227 70.1463 78.6275C71.2008 74.3768 65.2284 57.4487 65.2284 57.4487ZM59.9675 88.7993C59.8695 79.6167 60.2778 63.9997 60.4131 62.089C60.4131 62.089 63.9942 75.8373 64.0269 76.9244C64.0502 77.5823 61.5376 83.928 59.9675 88.7993Z" fill="#263238"/>
<path d="M59.9417 86.2027C59.9593 86.3302 59.9671 86.4589 59.9651 86.5876C59.9651 86.8536 59.9767 87.2082 59.986 87.6398C59.9977 88.5287 60.007 89.7558 60.0117 91.1113C60.0164 92.4667 60.0117 93.6939 60.0117 94.5828C60.0117 95.012 60 95.3666 59.9977 95.6326C59.9956 95.756 59.9855 95.8791 59.9674 96.0012C59.9484 95.873 59.9406 95.7435 59.9441 95.6139C59.9441 95.348 59.9301 94.9934 59.9231 94.5618C59.9091 93.6729 59.8997 92.4458 59.8974 91.0903C59.8951 89.7348 59.8974 88.5077 59.8974 87.6211C59.8974 87.1895 59.8974 86.8349 59.9137 86.569C59.9123 86.4463 59.9216 86.3237 59.9417 86.2027Z" fill="#455A64"/>
<path d="M57.1258 57.0405C57.1373 57.1084 57.1373 57.1778 57.1258 57.2458C57.1081 57.4324 57.069 57.6164 57.0092 57.794C56.8146 58.3904 56.416 58.899 55.8835 59.2306C55.351 59.5621 54.7186 59.6953 54.0976 59.6067C53.9116 59.5824 53.7292 59.5362 53.554 59.4691C53.4889 59.4488 53.4274 59.418 53.3721 59.3781C53.6134 59.4443 53.8589 59.4942 54.107 59.5274C54.7066 59.5915 55.3105 59.4535 55.8228 59.1352C56.3351 58.817 56.7263 58.3367 56.9345 57.7707C57.0141 57.5317 57.078 57.2878 57.1258 57.0405Z" fill="#455A64"/>
<path d="M60.9426 57.1035C60.9599 57.1713 60.9677 57.2411 60.9659 57.3111C60.9659 57.4464 60.9799 57.64 60.9869 57.8803C61.0009 58.3609 61.0103 59.0235 61.0149 59.7467V60.7802C61.0333 61.0716 60.966 61.3619 60.8213 61.6154C60.7682 61.7 60.698 61.7725 60.6153 61.8284C60.5325 61.8842 60.439 61.9222 60.3407 61.9397C60.2696 61.9549 60.1954 61.945 60.1307 61.9117C60.1987 61.9102 60.2664 61.9048 60.3337 61.8954C60.5109 61.8483 60.6625 61.7335 60.756 61.5758C60.8807 61.3318 60.9348 61.0579 60.9123 60.7849C60.9123 60.4629 60.9123 60.1153 60.9123 59.7514C60.9123 59.0188 60.9123 58.3516 60.9123 57.885C60.9123 57.6517 60.9123 57.4511 60.9263 57.3158C60.9227 57.2446 60.9282 57.1732 60.9426 57.1035Z" fill="#455A64"/>
<path d="M65.7416 59.5811C65.6883 59.5901 65.6339 59.5901 65.5806 59.5811C65.4341 59.5724 65.2888 59.5497 65.1467 59.5134C64.674 59.3971 64.2298 59.1862 63.8409 58.8935C63.4519 58.6008 63.1263 58.2323 62.8837 57.8104C62.8111 57.6836 62.7495 57.5509 62.6994 57.4138C62.6758 57.3646 62.6608 57.3117 62.655 57.2574C62.6737 57.2574 62.7577 57.4628 62.9537 57.7707C63.4665 58.5749 64.2528 59.1666 65.1677 59.4364C65.5153 59.5391 65.7439 59.5601 65.7416 59.5811Z" fill="#455A64"/>
<path d="M79.4501 34.8375L78.8132 32.8032L78.7735 32.8731L78.6499 32.5815L78.6639 32.2572C78.6639 32.2572 78.9508 31.1794 78.6499 31.0488C78.3489 30.9181 77.8333 32.8825 77.8333 32.8825C77.2987 33.1654 76.8936 33.6433 76.7019 34.2169C76.4452 35.0171 76.3799 35.3041 76.3799 35.3041L73.3004 41.7735L67.8785 39.5828L66.3784 44.0015C66.3784 44.0015 69.6796 45.0746 72.3788 45.8422C72.8135 45.9659 73.2685 46.0011 73.717 45.9458C74.1655 45.8905 74.5983 45.7458 74.9899 45.5202C75.3815 45.2946 75.7238 44.9928 75.9966 44.6325C76.2694 44.2723 76.4672 43.8609 76.5782 43.4229L78.6662 36.0857H78.6476L79.4501 34.8375Z" fill="#FFBE9D"/>
<path d="M78.8295 30.1949C78.7712 30.3488 77.0541 36.1416 77.0541 36.1416L77.6723 36.2443L79.527 30.3908L78.8295 30.1949Z" fill="#263238"/>
<path d="M78.6639 36.0856C78.6639 36.0856 79.7207 35.1221 79.7977 34.5529C79.8257 34.3499 79.94 31.7953 79.8117 31.779C79.6834 31.7626 78.0363 32.7915 78.2673 33.0551C78.3417 33.1274 78.438 33.1728 78.5411 33.1842C78.6442 33.1956 78.7481 33.1723 78.8365 33.1181C78.8365 33.1181 77.7797 33.72 78.0153 33.9323C78.251 34.1446 78.8972 33.7643 78.8972 33.7643C78.8972 33.7643 77.5464 34.3896 77.831 34.6975C78.1156 35.0055 79.2448 34.5155 79.2448 34.5155L78.6639 36.0856Z" fill="#FFBE9D"/>
<path d="M79.6368 32.5815C79.441 32.7678 79.2194 32.9249 78.9789 33.0481C78.8883 33.1077 78.7922 33.1585 78.6919 33.1998C78.6002 33.2298 78.5013 33.2298 78.4096 33.1998C78.2533 33.1461 78.2043 33.0504 78.216 33.0434C78.2277 33.0364 78.2977 33.0948 78.4306 33.1158C78.5057 33.1265 78.5822 33.1168 78.6523 33.0878C78.7438 33.0439 78.832 32.9932 78.9159 32.9361C79.1365 32.7815 79.3796 32.6618 79.6368 32.5815Z" fill="#EB996E"/>
<path d="M79.6788 33.272C79.3017 33.5888 78.8784 33.8461 78.4236 34.0349C78.3268 34.0948 78.2115 34.1172 78.0993 34.0979C78.068 34.0889 78.039 34.0729 78.0148 34.0511C77.9905 34.0293 77.9716 34.0022 77.9594 33.9719C77.9417 33.9147 77.9467 33.8529 77.9734 33.7993C78.0132 33.7197 78.0678 33.6485 78.1343 33.5893C78.1857 33.5363 78.2402 33.4865 78.2976 33.44C78.4031 33.3343 78.5317 33.2544 78.6732 33.2067C78.6732 33.2231 78.5449 33.3117 78.356 33.4913C78.3093 33.538 78.258 33.587 78.209 33.6453C78.155 33.7001 78.1101 33.7631 78.076 33.832C78.0457 33.8996 78.0643 33.9533 78.132 33.9719C78.2141 33.9797 78.2965 33.9591 78.3653 33.9136C79.0978 33.5893 79.6578 33.2441 79.6788 33.272Z" fill="#EB996E"/>
<path d="M79.5132 34.1236C79.388 34.219 79.2507 34.2974 79.1049 34.3569L78.6383 34.5785L78.3677 34.7045C78.2681 34.7583 78.1623 34.7998 78.0527 34.8282C77.9863 34.8393 77.9181 34.8304 77.8568 34.8025C77.8246 34.788 77.7961 34.7664 77.7735 34.7394C77.7509 34.7123 77.7347 34.6804 77.7261 34.6462C77.7142 34.5867 77.7183 34.5251 77.738 34.4678C77.7577 34.4104 77.7922 34.3593 77.8381 34.3196C77.9088 34.2577 77.9873 34.2051 78.0714 34.1633L78.279 34.0489C78.4115 33.9643 78.5542 33.8969 78.7037 33.8483C78.5896 33.9575 78.4608 34.0502 78.321 34.1236C78.1854 34.2112 78.0553 34.307 77.9314 34.4106C77.9014 34.4372 77.8787 34.4712 77.8656 34.5092C77.8525 34.5472 77.8495 34.588 77.8568 34.6275C77.8708 34.6975 77.9571 34.7348 78.0481 34.7185C78.1466 34.6921 78.242 34.6553 78.3327 34.6089L78.608 34.4876L79.0746 34.2892C79.2131 34.2155 79.3605 34.1599 79.5132 34.1236Z" fill="#EB996E"/>
<path d="M79.331 27.449C79.3325 27.7851 79.2941 28.1203 79.2167 28.4475C79.1807 28.7826 79.1023 29.1119 78.9834 29.4273C78.982 29.0902 79.0212 28.7542 79.1001 28.4265C79.1375 28.0925 79.2151 27.7643 79.331 27.449Z" fill="#263238"/>
<path d="M78.4261 27.8782C78.5355 28.1349 78.6078 28.406 78.6407 28.6831C78.7124 28.9531 78.7446 29.2321 78.7364 29.5113C78.6269 29.2546 78.5546 28.9836 78.5217 28.7064C78.45 28.4364 78.4178 28.1575 78.4261 27.8782Z" fill="#263238"/>
<path d="M79.9517 28.4381C79.874 28.6243 79.7669 28.7968 79.6345 28.9491C79.4408 29.215 79.2775 29.4156 79.2495 29.4156C79.3002 29.2173 79.3978 29.0341 79.5341 28.8814C79.7301 28.6061 79.9261 28.4171 79.9517 28.4381Z" fill="#263238"/>
<path d="M51.1348 40.0704C51.1348 40.0704 49.3804 47.116 48.8298 46.815C45.8459 45.1819 42.8877 42.1677 41.7818 40.9826C41.7399 40.8239 41.6979 40.6443 41.6559 40.439C41.6071 40.2033 41.5992 39.9611 41.6325 39.7227C41.6598 39.4247 41.7281 39.1319 41.8355 38.8525C41.9592 38.6052 41.7282 38.337 41.5089 38.4489C41.2896 38.5609 40.935 39.2305 40.8977 40.117C40.8603 41.0036 40.0461 39.8837 39.7452 39.4871C39.4442 39.0905 38.448 37.8867 38.2521 37.8867C37.9674 37.8867 37.9114 38.197 38.2217 38.5866C38.532 38.9762 39.3882 40.2197 39.1712 40.383C38.9543 40.5463 37.4448 38.4699 37.4448 38.4699C37.4448 38.4699 37.1905 37.9753 36.9363 38.1456C36.4697 38.4536 38.2451 40.5276 38.4177 40.7119C38.539 40.8472 38.3104 41.0245 38.1844 40.8729C38.0584 40.7213 36.7216 38.7732 36.2504 39.0835C35.8887 39.3168 37.6898 40.8052 37.7481 41.3652C37.8065 41.9251 36.4953 40.0984 36.1594 40.3387C36.0334 40.4296 35.9517 40.5136 36.8593 41.4515C37.6191 42.1715 38.4174 42.8498 39.2506 43.4835C41.6395 46.1501 50.4722 54.7401 52.2756 50.1348C54.4243 44.657 54.0953 41.1179 54.0953 41.1179L51.1348 40.0704Z" fill="#FFBE9D"/>
<path d="M56.2791 36.9582L60.4948 36.6199C60.5205 36.1277 60.4948 34.2239 60.4948 34.2239C60.4948 34.2239 62.2492 33.951 62.2725 32.1966C62.2959 30.4422 61.9879 26.4155 61.9879 26.4155C60.991 25.9869 59.8978 25.8323 58.8212 25.9677C57.7446 26.103 56.7236 26.5234 55.8638 27.1853L55.6025 27.386L56.2791 36.9582Z" fill="#FFBE9D"/>
<path d="M61.5771 29.4296C61.5398 29.396 61.5133 29.352 61.5009 29.3032C61.4886 29.2545 61.491 29.2032 61.5078 29.1558C61.5246 29.1084 61.5551 29.067 61.5954 29.037C61.6357 29.0069 61.684 28.9895 61.7343 28.9869C61.7845 28.9842 61.8344 28.9966 61.8776 29.0223C61.9208 29.048 61.9554 29.086 61.977 29.1314C61.9987 29.1768 62.0063 29.2276 61.9991 29.2773C61.9919 29.3271 61.9701 29.3736 61.9364 29.411C61.9142 29.4361 61.8873 29.4565 61.8571 29.4711C61.8269 29.4856 61.7942 29.494 61.7607 29.4957C61.7272 29.4975 61.6938 29.4925 61.6623 29.4812C61.6307 29.4698 61.6018 29.4523 61.5771 29.4296Z" fill="#263238"/>
<path d="M62.0018 29.0284C61.9738 29.0587 61.8012 28.9257 61.5609 28.9257C61.3206 28.9257 61.1433 29.0494 61.1153 29.019C61.0873 28.9887 61.1316 28.9491 61.2063 28.8907C61.3102 28.818 61.434 28.7789 61.5609 28.7787C61.6884 28.7798 61.8121 28.8224 61.9131 28.9001C61.9878 28.9607 62.0135 29.0144 62.0018 29.0284Z" fill="#263238"/>
<path d="M59.2186 29.2407C59.2757 29.2763 59.3165 29.333 59.3322 29.3985C59.3479 29.4639 59.3372 29.5329 59.3025 29.5906C59.2649 29.6438 59.2084 29.6806 59.1445 29.6937C59.0807 29.7067 59.0143 29.695 58.9587 29.6608C58.9032 29.6267 58.8628 29.5727 58.8456 29.5098C58.8284 29.447 58.8358 29.3799 58.8663 29.3223C58.9023 29.265 58.9596 29.2242 59.0256 29.2089C59.0916 29.1936 59.1609 29.205 59.2186 29.2407Z" fill="#263238"/>
<path d="M59.3771 29.2407C59.3491 29.271 59.1765 29.1404 58.9362 29.1381C58.6959 29.1357 58.5186 29.2617 58.4929 29.2314C58.4672 29.201 58.5069 29.1614 58.5839 29.1054C58.6856 29.0314 58.8081 28.9916 58.9338 28.9916C59.0596 28.9916 59.1821 29.0314 59.2838 29.1054C59.3654 29.173 59.3911 29.229 59.3771 29.2407Z" fill="#263238"/>
<path d="M60.3454 31.2354C60.4705 31.1858 60.603 31.1574 60.7374 31.1514C60.8004 31.1514 60.8494 31.1304 60.854 31.0977C60.8558 31.0342 60.8405 30.9714 60.8097 30.9158C60.7467 30.7571 60.6837 30.5938 60.6184 30.4258C60.4382 30.0104 60.2991 29.5783 60.2031 29.1357C60.2405 29.1217 60.4831 29.677 60.7467 30.3769C60.8097 30.5472 60.868 30.7105 60.9263 30.8714C60.9673 30.9521 60.9796 31.0442 60.9613 31.1327C60.9524 31.1573 60.9379 31.1794 60.9188 31.1972C60.8998 31.215 60.8768 31.2281 60.8517 31.2354C60.8166 31.244 60.7806 31.2487 60.7444 31.2494C60.6116 31.2677 60.4766 31.2629 60.3454 31.2354Z" fill="#263238"/>
<path d="M59.5615 31.5013C59.3095 31.352 60.2614 31.8699 60.7466 31.8466C60.6645 31.9734 60.5419 32.0687 60.3987 32.117C60.2555 32.1653 60.1003 32.1637 59.9581 32.1126C59.4332 31.9189 59.5615 31.5013 59.5615 31.5013Z" fill="white"/>
<path d="M60.4877 34.1983C59.6778 34.2139 58.8817 33.9872 58.2014 33.5474C58.2014 33.5474 58.7427 34.8118 60.4924 34.6532L60.4877 34.1983Z" fill="#EB996E"/>
<path d="M61.6938 25.9885C61.794 25.979 61.8907 25.9466 61.9765 25.8939C62.0622 25.8411 62.1347 25.7694 62.1883 25.6842C62.242 25.599 62.2754 25.5027 62.286 25.4026C62.2965 25.3025 62.284 25.2013 62.2493 25.1068C62.2146 25.0123 62.1587 24.927 62.0858 24.8575C62.013 24.788 61.9252 24.7362 61.8291 24.706C61.7331 24.6758 61.6314 24.668 61.5319 24.6832C61.4324 24.6985 61.3378 24.7364 61.2552 24.794C61.4556 24.6093 61.6146 24.3843 61.7218 24.1338C61.7722 24.0079 61.783 23.8695 61.7525 23.7373C61.7221 23.6051 61.6519 23.4854 61.5515 23.3942C61.4365 23.3256 61.3051 23.2894 61.1712 23.2894C61.0373 23.2894 60.9059 23.3256 60.7909 23.3942C60.4317 23.5762 60.1564 23.9075 59.7831 24.0638C59.4098 24.2201 58.9806 24.1804 58.5746 24.2248C58.1204 24.2608 57.6892 24.4396 57.3428 24.7357C57.1725 24.8854 57.0395 25.0728 56.9544 25.2831C56.8694 25.4933 56.8346 25.7205 56.8529 25.9465C56.279 25.9115 55.6467 25.9465 55.2198 26.3244C55.0489 26.4976 54.9185 26.7064 54.8378 26.9359C54.7572 27.1654 54.7283 27.4099 54.7532 27.6519C54.7835 28.1372 55.0122 28.5851 55.1825 29.0377C55.2226 29.1682 55.2893 29.2889 55.3784 29.3923L55.6677 30.6335L56.4469 30.5681L56.2346 27.9599C56.2346 27.9599 56.0877 26.8657 57.0395 26.9054C57.9914 26.945 59.3445 27.9295 61.1689 27.5469C61.4687 27.5128 61.7567 27.4106 62.0111 27.2483C62.1343 27.16 62.2316 27.0403 62.2927 26.9016C62.3538 26.7629 62.3766 26.6103 62.3587 26.4598C62.346 26.3852 62.3187 26.3138 62.2784 26.2497C62.2381 26.1857 62.1856 26.1302 62.1239 26.0864C62.0621 26.0427 61.9924 26.0115 61.9186 25.9947C61.8448 25.9779 61.7684 25.9758 61.6938 25.9885Z" fill="#263238"/>
<path d="M55.5908 29.082C55.5511 29.082 54.282 28.984 54.4919 30.4632C54.7019 31.9423 56.125 31.24 56.125 31.198C56.125 31.156 55.5908 29.082 55.5908 29.082Z" fill="#FFBE9D"/>
<path d="M55.5978 30.7431C55.5978 30.7431 55.5745 30.7641 55.5325 30.7898C55.5044 30.8076 55.473 30.8197 55.4401 30.8253C55.4073 30.8309 55.3737 30.8299 55.3412 30.8225C55.2372 30.7756 55.1475 30.7018 55.0815 30.6087C55.0154 30.5156 54.9754 30.4066 54.9656 30.2929C54.9433 30.1663 54.9497 30.0364 54.9843 29.9126C54.9899 29.8629 55.0081 29.8154 55.0371 29.7746C55.066 29.7338 55.1048 29.701 55.1499 29.6793C55.1786 29.667 55.2106 29.6652 55.2405 29.6742C55.2703 29.6831 55.296 29.7023 55.3132 29.7283C55.3389 29.7656 55.3319 29.7959 55.3412 29.7983C55.3505 29.8006 55.3692 29.768 55.3412 29.7096C55.3281 29.6745 55.3034 29.6449 55.2712 29.6256C55.2258 29.6003 55.1722 29.5936 55.1219 29.607C55.0636 29.6284 55.0116 29.6642 54.9708 29.7111C54.93 29.758 54.9017 29.8145 54.8886 29.8753C54.8442 30.0122 54.8338 30.158 54.8583 30.2999C54.8692 30.4328 54.9194 30.5594 55.0025 30.6637C55.0855 30.768 55.1978 30.8452 55.3249 30.8855C55.3667 30.8922 55.4095 30.8891 55.45 30.8766C55.4905 30.864 55.5275 30.8423 55.5582 30.8131C55.6002 30.7781 55.6025 30.7455 55.5978 30.7431Z" fill="#EB996E"/>
<path d="M69.8266 39.9187C67.9065 38.9295 66.5441 38.3416 65.4966 37.6697C62.2304 35.5701 61.3742 36.0366 60.5973 35.9433C59.1344 36.4053 57.5646 36.4053 56.1016 35.9433C54.7898 35.9833 53.5274 36.4532 52.5086 37.2806C51.4898 38.108 50.771 39.2472 50.4628 40.523L49.1774 45.4222L53.2018 45.9681L53.1294 43.9011C53.3464 45.6205 53.2927 46.2924 53.3627 48.3688L53.2018 56.7092L65.5432 57.4091L64.8667 49.4209L64.5657 43.1359L68.0838 44.8926L69.8219 39.9187" fill="#512B58"/>
<path d="M54.191 40.8496C54.191 40.8496 54.2144 40.9709 54.2424 41.1272C54.2704 41.2835 54.289 41.5145 54.3147 41.7898L54.226 41.7478L54.6156 41.4795L55.0099 41.2159V41.3162C54.7766 41.1902 54.5433 41.0829 54.4243 41.0013C54.3054 40.9196 54.191 40.8589 54.191 40.8496C54.2717 40.8665 54.3501 40.8932 54.4243 40.9289C54.597 40.9966 54.8116 41.0969 55.0612 41.2136L55.1522 41.2555L55.0682 41.3115L54.6763 41.5798L54.282 41.8411L54.198 41.8971V41.7991C54.184 41.5215 54.1724 41.2882 54.1747 41.0992C54.171 41.0157 54.1765 40.932 54.191 40.8496Z" fill="#E0E0E0"/>
<path d="M61.3813 40.432C61.3813 40.4437 61.4046 40.5533 61.4326 40.712C61.4606 40.8706 61.4816 41.0993 61.5049 41.3745L61.4163 41.3302C61.5399 41.2462 61.6706 41.1552 61.8082 41.0643L62.2025 40.8006V40.901C61.9552 40.7726 61.7359 40.6677 61.6146 40.586C61.4933 40.5043 61.3813 40.4437 61.3813 40.432C61.4613 40.4523 61.5394 40.4796 61.6146 40.5137C61.7895 40.5813 62.0019 40.6817 62.2515 40.7983L62.3425 40.838L62.2585 40.8963L61.8759 41.1762L61.4793 41.4375L61.3953 41.4935V41.3932C61.3813 41.1179 61.3696 40.8846 61.3719 40.6933C61.3673 40.6061 61.3704 40.5187 61.3813 40.432Z" fill="#E0E0E0"/>
<path d="M65.226 39.2772C65.226 39.2772 65.2493 39.3985 65.2773 39.5571C65.3053 39.7158 65.3239 39.9421 65.3496 40.2197L65.261 40.1754L65.6506 39.9094L66.0448 39.6458V39.7461C65.7975 39.6178 65.5782 39.5128 65.4569 39.4312C65.3356 39.3495 65.2236 39.2888 65.2236 39.2772C65.3035 39.2979 65.3815 39.3252 65.4569 39.3588C65.6296 39.4265 65.8442 39.5268 66.0938 39.6411L66.1848 39.6831L66.1008 39.7414L65.7182 40.0097L65.3333 40.271L65.2493 40.327V40.2267C65.2353 39.9514 65.2213 39.7181 65.226 39.5268C65.2173 39.4438 65.2173 39.3602 65.226 39.2772Z" fill="#E0E0E0"/>
<path d="M58.2783 46.0754C58.2783 46.0754 58.3016 46.1968 58.3296 46.3554C58.3576 46.514 58.3786 46.7427 58.4019 47.018L58.3133 46.9736L58.7029 46.7077L59.0995 46.4441V46.5444C58.8522 46.4184 58.6329 46.3111 58.5116 46.2294C58.3903 46.1478 58.2783 46.0871 58.2783 46.0754C58.3583 46.0957 58.4364 46.1231 58.5116 46.1571C58.6866 46.2248 58.8989 46.3251 59.1485 46.4417L59.2395 46.4837L59.1555 46.5397L58.7635 46.808L58.3693 47.0693L58.2853 47.1253V47.0273C58.2713 46.7497 58.2596 46.5164 58.262 46.3274C58.2586 46.2431 58.264 46.1586 58.2783 46.0754Z" fill="#E0E0E0"/>
<path d="M63.3456 51.327C63.3456 51.327 63.3689 51.4483 63.3969 51.607C63.4249 51.7656 63.4436 51.9919 63.4692 52.2672L63.3806 52.2252L63.7702 51.9569L64.1645 51.6956V51.7936C63.9312 51.6676 63.6979 51.5603 63.5789 51.4787C63.4599 51.397 63.3456 51.3364 63.3456 51.327C63.426 51.3459 63.5042 51.3733 63.5789 51.4087C63.7515 51.474 63.9662 51.5743 64.2158 51.691L64.3068 51.733L64.2228 51.789L63.8308 52.0573L63.4366 52.3209L63.3526 52.3745V52.2766C63.3386 52.0013 63.3269 51.7656 63.3293 51.5767C63.3255 51.4931 63.331 51.4094 63.3456 51.327Z" fill="#E0E0E0"/>
<path d="M59.3982 52.1412C59.3982 52.1412 59.4215 52.2625 59.4495 52.4188C59.4775 52.5751 59.4962 52.8061 59.5195 53.0814L59.4309 53.0394L59.8228 52.7711L60.2171 52.5098V52.6078C59.9698 52.4818 59.7505 52.3745 59.6292 52.2928C59.5079 52.2112 59.3959 52.1505 59.3959 52.1412C59.4762 52.1606 59.5543 52.188 59.6292 52.2229C59.8041 52.2905 60.0164 52.3885 60.2661 52.5051L60.3571 52.5471L60.2731 52.6031L59.8835 52.8714L59.5009 53.1351L59.4169 53.1887V53.0907C59.4029 52.8154 59.3912 52.5798 59.3935 52.3908C59.3847 52.3078 59.3863 52.2239 59.3982 52.1412Z" fill="#E0E0E0"/>
<path d="M57.0512 48.8751C57.0512 48.8751 57.0745 48.9964 57.1025 49.1527C57.1305 49.309 57.1492 49.54 57.1725 49.8153L57.0838 49.7733L57.4758 49.505L57.8701 49.2437V49.3417C57.6228 49.2157 57.4035 49.1084 57.2821 49.0267C57.1608 48.945 57.0488 48.8844 57.0488 48.8751C57.1296 48.8929 57.2079 48.9203 57.2821 48.9567C57.4571 49.022 57.6694 49.1224 57.919 49.239L58.01 49.281L57.926 49.337L57.5364 49.6053L57.1422 49.8666L57.0582 49.9226V49.8246C57.0442 49.5493 57.0325 49.3137 57.0348 49.1247C57.0299 49.0411 57.0354 48.9573 57.0512 48.8751Z" fill="#E0E0E0"/>
<path d="M59.0809 55.622C59.0809 55.622 59.1043 55.7433 59.1323 55.8996C59.1603 56.0559 59.1789 56.2869 59.2046 56.5622L59.1159 56.5202L59.5055 56.2519L59.9021 55.9883V56.0886C59.6549 55.9626 59.4356 55.8553 59.3142 55.7737C59.1929 55.692 59.0809 55.6313 59.0809 55.622C59.1618 55.6394 59.2402 55.6668 59.3142 55.7037C59.4892 55.769 59.7015 55.8693 59.9511 55.986L60.0421 56.0279L59.9581 56.0839L59.5662 56.3522L59.1719 56.6135L59.0879 56.6695V56.5715C59.0739 56.2962 59.0623 56.0606 59.0646 55.8716C59.0609 55.7881 59.0664 55.7044 59.0809 55.622Z" fill="#E0E0E0"/>
<path d="M55.4345 52.1412C55.4345 52.1412 55.4578 52.2625 55.4858 52.4212C55.5138 52.5798 55.5324 52.8061 55.5558 53.0837L55.4671 53.0394L55.8591 52.7711L56.2533 52.5098V52.6078C56.006 52.4818 55.7867 52.3745 55.6654 52.2928C55.5441 52.2112 55.4321 52.1505 55.4321 52.1412C55.5125 52.1602 55.5907 52.1876 55.6654 52.2229C55.8404 52.2905 56.0527 52.3885 56.3023 52.5051L56.3933 52.5471L56.3093 52.6055L55.9197 52.8714L55.5348 53.1304L55.4508 53.1864V53.0861C55.4368 52.8108 55.4251 52.5751 55.4298 52.3862C55.4212 52.3046 55.4227 52.2223 55.4345 52.1412Z" fill="#E0E0E0"/>
<path d="M58.2644 41.9344C58.2644 41.9344 58.1524 41.9834 58.0031 42.0441C57.8538 42.1048 57.6345 42.1677 57.3685 42.2494L57.3942 42.1537L57.7371 42.4804L58.0754 42.814L57.9798 42.8396C58.0521 42.5737 58.1128 42.3427 58.1664 42.2004C58.2201 42.0581 58.2574 41.9438 58.2644 41.9344C58.2654 42.0193 58.256 42.1039 58.2364 42.1864C58.2061 42.3707 58.1524 42.5993 58.0894 42.8676L58.0684 42.9656L57.9938 42.8956C57.8865 42.7907 57.7605 42.681 57.6508 42.569L57.3149 42.2354L57.2426 42.1654L57.3382 42.1398C57.6042 42.0698 57.8328 42.0091 58.0148 41.9741C58.0966 41.9536 58.1802 41.9403 58.2644 41.9344Z" fill="#E0E0E0"/>
<path d="M56.2859 51.607C56.2859 51.607 56.1716 51.6537 56.0223 51.7143C55.873 51.775 55.6537 51.8403 55.39 51.9219L55.4134 51.824L55.7563 52.1529L56.0946 52.4842L55.9989 52.5122C56.0713 52.2439 56.1343 52.0129 56.1856 51.873C56.2369 51.733 56.2766 51.6163 56.2859 51.607C56.2832 51.6909 56.273 51.7745 56.2556 51.8566C56.2252 52.0409 56.1716 52.2719 56.1086 52.5402L56.0876 52.6358L56.0153 52.5658L55.6723 52.2392L55.334 51.9079L55.2617 51.8356L55.3574 51.8123C55.6257 51.74 55.852 51.6793 56.0339 51.6443C56.116 51.6214 56.2007 51.6089 56.2859 51.607Z" fill="#E0E0E0"/>
<path d="M54.8489 47.4893C54.8489 47.4893 54.7345 47.5383 54.5852 47.5966C54.4359 47.6549 54.2166 47.7226 53.953 47.8042L53.9763 47.7086L54.3193 48.0352C54.4359 48.1518 54.5526 48.2685 54.6576 48.3665L54.5619 48.3945C54.6342 48.1262 54.6972 47.8952 54.7485 47.7552C54.7999 47.6152 54.8395 47.4986 54.8489 47.4893C54.8462 47.574 54.836 47.6583 54.8185 47.7412C54.7882 47.9255 54.7345 48.1542 54.6715 48.4224L54.6506 48.5204L54.5782 48.4504L54.2353 48.1215L53.9017 47.7902L53.8293 47.7202L53.925 47.6946C54.191 47.6246 54.4196 47.5639 54.6016 47.5266C54.6825 47.5056 54.7654 47.4931 54.8489 47.4893Z" fill="#E0E0E0"/>
<path d="M61.7101 43.6748C61.7101 43.6748 61.5958 43.7238 61.4465 43.7821C61.2972 43.8404 61.0779 43.9081 60.8142 43.9898L60.8376 43.8941L61.1805 44.2207L61.5188 44.5543L61.4231 44.58C61.4955 44.3117 61.5585 44.0831 61.6098 43.9408C61.6611 43.7985 61.7008 43.6841 61.7101 43.6748C61.7074 43.7595 61.6973 43.8438 61.6798 43.9268C61.6494 44.1111 61.5958 44.3397 61.5351 44.608L61.5118 44.706L61.4395 44.636L61.0965 44.3094L60.7582 43.9758L60.6859 43.9058L60.7816 43.8801C61.0499 43.8101 61.2762 43.7495 61.4605 43.7145C61.5423 43.6936 61.6258 43.6803 61.7101 43.6748Z" fill="#E0E0E0"/>
<path d="M63.054 46.5677C63.054 46.5677 62.9396 46.6144 62.7903 46.6751C62.641 46.7357 62.4241 46.801 62.1581 46.8827L62.1814 46.7847L62.5244 47.1137L62.8627 47.4449L62.767 47.4753C62.8393 47.207 62.9023 46.976 62.9536 46.836C63.005 46.6961 63.0446 46.5794 63.054 46.5701C63.0512 46.654 63.0411 46.7376 63.0236 46.8197C62.9933 47.004 62.9397 47.235 62.879 47.5033L62.8557 47.5989L62.7833 47.5289L62.4404 47.2023L62.1021 46.871L62.0298 46.7987L62.1254 46.7731C62.3937 46.7031 62.62 46.6424 62.8043 46.6074C62.8856 46.5838 62.9694 46.5705 63.054 46.5677Z" fill="#E0E0E0"/>
<path d="M63.8634 54.4905C63.8634 54.4905 63.7491 54.5395 63.5998 54.6002C63.4505 54.6608 63.2312 54.7238 62.9675 54.8055L62.9909 54.7098L63.3338 55.0365L63.6721 55.3701L63.5765 55.3957C63.6488 55.1298 63.7118 54.8988 63.7631 54.7565C63.8144 54.6142 63.8541 54.4999 63.8634 54.4905C63.8608 54.5753 63.8506 54.6596 63.8331 54.7425C63.8028 54.9268 63.7491 55.1554 63.6884 55.4237L63.6651 55.5217L63.5928 55.4517L63.2498 55.1251L62.9116 54.7915L62.8392 54.7215L62.9349 54.6958C63.2032 54.6259 63.4295 54.5652 63.6138 54.5302C63.6956 54.5093 63.7792 54.496 63.8634 54.4905Z" fill="#E0E0E0"/>
<path d="M61.4838 49.1247C61.4838 49.1247 61.3694 49.1737 61.2225 49.232C61.0755 49.2903 60.8539 49.358 60.5879 49.4396L60.6136 49.344L60.9542 49.6706L61.2925 50.0042L61.1968 50.0299C61.2715 49.7639 61.3321 49.5329 61.3858 49.3906C61.4394 49.2483 61.4768 49.134 61.4838 49.1247C61.4844 49.2096 61.4742 49.2943 61.4534 49.3766C61.4254 49.5609 61.3718 49.7896 61.3088 50.0579L61.2855 50.1558L61.2131 50.0859L60.8702 49.7592L60.5319 49.4256L60.4619 49.3556L60.5576 49.33C60.8235 49.26 61.0522 49.1993 61.2341 49.1643C61.316 49.1438 61.3995 49.1305 61.4838 49.1247Z" fill="#E0E0E0"/>
<path d="M61.0289 52.9858C61.0289 52.9858 60.9146 53.0348 60.7653 53.0931C60.616 53.1514 60.399 53.2191 60.1331 53.3007L60.1564 53.2051L60.4994 53.5317L60.8376 53.8653L60.742 53.891C60.8143 53.6227 60.8773 53.3941 60.9286 53.2517C60.9799 53.1094 61.0196 52.9951 61.0289 52.9858C61.0263 53.0705 61.0161 53.1548 60.9986 53.2377C60.9683 53.422 60.9146 53.6507 60.854 53.919L60.8306 54.017L60.7583 53.947L60.4154 53.6203L60.0771 53.2867L60.0048 53.2167L60.1004 53.1911C60.3687 53.1211 60.595 53.0604 60.7793 53.0254C60.8612 53.0047 60.9447 52.9914 61.0289 52.9858Z" fill="#E0E0E0"/>
<path d="M56.7409 55.1741C56.7409 55.1741 56.6266 55.2207 56.4796 55.2814C56.3326 55.3421 56.111 55.4074 55.845 55.489L55.8707 55.3911L56.2113 55.72L56.5496 56.0513L56.454 56.0793C56.5286 55.811 56.5893 55.58 56.6406 55.4401C56.6919 55.3001 56.7339 55.1834 56.7409 55.1741C56.7371 55.2532 56.7238 55.3315 56.7012 55.4074C56.6709 55.5917 56.6196 55.8203 56.5566 56.0909L56.5333 56.1866L56.461 56.1166L56.118 55.79C56.0014 55.6757 55.8847 55.5567 55.7797 55.4587L55.7074 55.3864L55.8054 55.3607C56.0713 55.2907 56.2976 55.2301 56.4819 55.1951C56.567 55.1771 56.6541 55.1701 56.7409 55.1741Z" fill="#E0E0E0"/>
<path d="M66.3784 42.5223C66.3784 42.5223 66.2641 42.5713 66.1148 42.632C65.9655 42.6926 65.7462 42.7579 65.4826 42.8373L65.5059 42.7416L65.8488 43.0682L66.1871 43.4018L66.0915 43.4298C66.1638 43.1615 66.2268 42.9306 66.2781 42.7883C66.3294 42.646 66.3691 42.5316 66.3784 42.5223C66.3759 42.607 66.3657 42.6914 66.3481 42.7743C66.3178 42.9586 66.2641 43.1872 66.2035 43.4578L66.1801 43.5535L66.1078 43.4835L65.7649 43.1569L65.4266 42.8233L65.3542 42.7533L65.4499 42.7276C65.7182 42.6576 65.9445 42.597 66.1265 42.562C66.2091 42.5411 66.2934 42.5278 66.3784 42.5223Z" fill="#E0E0E0"/>
<path d="M51.4918 41.9064C51.4918 41.9064 51.3775 41.9554 51.2281 42.0137C51.0788 42.0721 50.8619 42.1397 50.5959 42.2214L50.6192 42.1257L50.9622 42.4523L51.3005 42.7836L51.2048 42.8116C51.2771 42.5433 51.3401 42.3124 51.3914 42.1724C51.4428 42.0324 51.4824 41.9158 51.4918 41.9064C51.4891 41.9912 51.479 42.0755 51.4614 42.1584C51.4311 42.3427 51.3775 42.5713 51.3168 42.8396L51.2935 42.9376L51.2211 42.8676L50.8689 42.5387L50.5306 42.2074L50.4583 42.1374L50.5539 42.1117C50.8222 42.0394 51.0485 41.9788 51.2328 41.9438C51.3175 41.9219 51.4043 41.9094 51.4918 41.9064Z" fill="#E0E0E0"/>
<path d="M68.8187 40.0937C68.8187 40.0937 68.7044 40.1427 68.5551 40.201C68.4058 40.2593 68.1865 40.327 67.9205 40.4086L67.9462 40.313L68.2892 40.6396C68.4058 40.7539 68.5224 40.8729 68.6274 40.9709L68.5318 40.9989C68.6041 40.7306 68.6648 40.4996 68.7184 40.3596C68.747 40.2692 68.7805 40.1804 68.8187 40.0937C68.8161 40.1784 68.8059 40.2627 68.7884 40.3456C68.7581 40.5299 68.7044 40.7586 68.6414 41.0269L68.6204 41.1249L68.5458 41.0549L68.2052 40.7259L67.8669 40.3946L67.7946 40.3246L67.8902 40.299C68.1562 40.229 68.3848 40.1683 68.5668 40.131C68.6492 40.1097 68.7337 40.0972 68.8187 40.0937Z" fill="#E0E0E0"/>
<path d="M59.2093 38.9575C59.2093 38.9575 59.088 38.9575 58.927 38.9575C58.7661 38.9575 58.5374 38.9459 58.2621 38.9295L58.3181 38.8479L58.5234 39.2748L58.7241 39.7041H58.6237C58.787 39.4708 58.9247 39.2841 59.025 39.1698C59.1253 39.0555 59.2 38.9622 59.2093 38.9552C59.1815 39.0376 59.1431 39.116 59.095 39.1885C59.0017 39.3495 58.8617 39.5454 58.7194 39.7764L58.6634 39.8581L58.6191 39.7671L58.4138 39.3401L58.2131 38.9109L58.1711 38.8199H58.2715C58.5444 38.8479 58.7777 38.8712 58.9714 38.9015C59.0524 38.9117 59.1322 38.9305 59.2093 38.9575Z" fill="#E0E0E0"/>
<path d="M56.055 44.7597C56.0434 44.7597 55.9314 44.7597 55.7704 44.7597C55.6094 44.7597 55.3808 44.748 55.1055 44.7317L55.1615 44.65C55.2268 44.7853 55.2968 44.9276 55.3668 45.077L55.5674 45.5062H55.4671C55.6304 45.2729 55.7704 45.0863 55.8684 44.9743C55.9664 44.8623 56.0434 44.7643 56.055 44.7597C56.0241 44.8412 55.9851 44.9193 55.9384 44.993C55.8451 45.1563 55.7051 45.3523 55.5628 45.5809L55.5068 45.6649L55.4625 45.5739C55.3971 45.4362 55.3295 45.2939 55.2572 45.1469L55.0589 44.7177L55.0145 44.6244H55.1148C55.3878 44.65 55.6234 44.6734 55.8147 44.706C55.8964 44.7161 55.9769 44.734 56.055 44.7597Z" fill="#E0E0E0"/>
<path d="M61.2179 37.2895C61.2179 37.2895 61.2179 37.4108 61.2179 37.5718C61.2179 37.7327 61.1805 37.959 61.1432 38.2343L61.0662 38.1713L61.5048 37.9964L61.9481 37.8261L61.9341 37.924C61.7195 37.7467 61.5352 37.5951 61.4278 37.4878C61.3205 37.3805 61.2319 37.2988 61.2272 37.2895C61.3047 37.3238 61.3775 37.3677 61.4442 37.4201C61.6005 37.5228 61.7848 37.6674 62.0041 37.8331L62.0834 37.8937L61.9901 37.9334L61.5491 38.1084L61.1082 38.2787L61.0149 38.316L61.0312 38.218C61.0756 37.945 61.1152 37.7141 61.1595 37.5321C61.1711 37.4495 61.1906 37.3683 61.2179 37.2895Z" fill="#E0E0E0"/>
<path d="M55.9874 37.91C55.9757 37.91 55.8638 37.91 55.7051 37.91C55.5465 37.91 55.3155 37.8984 55.0379 37.8797L55.0939 37.7981L55.3015 38.225L55.4998 38.6566H55.4018C55.5628 38.4233 55.7028 38.2367 55.8008 38.1247C55.8987 38.0127 55.9757 37.9147 55.9874 37.91C55.958 37.9922 55.9188 38.0705 55.8707 38.1433C55.7798 38.3067 55.6491 38.5026 55.4951 38.7313L55.4415 38.8152L55.3972 38.7243L55.1919 38.2973L54.9912 37.8657L54.9492 37.7747H55.0472C55.3225 37.8004 55.5558 37.8237 55.7471 37.8564C55.8289 37.8656 55.9095 37.8836 55.9874 37.91Z" fill="#E0E0E0"/>
<path d="M51.9233 39.2912C51.9233 39.2912 51.7997 39.2912 51.6387 39.2912C51.4777 39.2912 51.2514 39.2912 50.9738 39.2632L51.0298 39.1815C51.0951 39.3168 51.1651 39.4591 51.2351 39.6085C51.3051 39.7578 51.3727 39.9001 51.4357 40.0377H51.3377C51.4987 39.8044 51.6387 39.6178 51.7367 39.5035C51.8347 39.3892 51.9117 39.2958 51.9233 39.2912C51.8918 39.3724 51.8527 39.4505 51.8067 39.5245C51.7134 39.6854 51.5734 39.8814 51.4311 40.1124L51.3751 40.194L51.3307 40.103L51.1254 39.6761L50.9271 39.2468L50.8828 39.1559H50.9831C51.2561 39.1838 51.4917 39.2072 51.683 39.2375C51.7649 39.2465 51.8454 39.2645 51.9233 39.2912Z" fill="#E0E0E0"/>
<path d="M60.28 41.9437C60.252 41.9624 60.1447 41.8457 60.0467 41.6848C59.9487 41.5238 59.8811 41.3791 59.9091 41.3605C59.9371 41.3418 60.0444 41.4585 60.1424 41.6194C60.2404 41.7804 60.308 41.9251 60.28 41.9437Z" fill="#263238"/>
<path d="M63.4669 39.6388C63.4342 39.6388 63.4249 39.4731 63.4459 39.2772C63.4669 39.0812 63.5112 38.9272 63.5439 38.9296C63.5765 38.9319 63.5882 39.0952 63.5649 39.2912C63.5416 39.4871 63.5066 39.6435 63.4669 39.6388Z" fill="#263238"/>
<path d="M63.4972 43.1359C63.4646 43.1359 63.3876 43.01 63.3222 42.828C63.2569 42.646 63.2313 42.4897 63.2639 42.4804C63.2966 42.471 63.3736 42.6064 63.4366 42.7883C63.4995 42.9703 63.5299 43.1243 63.4972 43.1359Z" fill="#263238"/>
<path d="M67.0457 41.8341C67.013 41.8341 67.0317 41.6171 67.0854 41.3675C67.139 41.1179 67.2113 40.9172 67.244 40.9242C67.2767 40.9312 67.2603 41.1412 67.2043 41.3908C67.1483 41.6405 67.0784 41.8411 67.0457 41.8341Z" fill="#263238"/>
<path d="M60.553 46.913C60.5227 46.913 60.4433 46.7754 60.378 46.5794C60.3127 46.3834 60.287 46.2178 60.3174 46.2061C60.3477 46.1944 60.4293 46.3461 60.4923 46.5421C60.5553 46.738 60.5856 46.9037 60.553 46.913Z" fill="#263238"/>
<path d="M57.2612 45.1633C57.2845 45.1889 57.1725 45.3289 57.0116 45.4759C56.8506 45.6229 56.7013 45.7092 56.678 45.6952C56.6546 45.6812 56.7689 45.5319 56.9299 45.3849C57.0909 45.2379 57.2402 45.1423 57.2612 45.1633Z" fill="#263238"/>
<path d="M55.8964 42.9843C55.866 42.9959 55.7844 42.8769 55.7144 42.716C55.6444 42.555 55.6117 42.4127 55.6421 42.401C55.6724 42.3893 55.7541 42.506 55.8264 42.667C55.8987 42.8279 55.9267 42.9703 55.8964 42.9843Z" fill="#263238"/>
<path d="M53.862 44.6034C53.841 44.5754 53.96 44.4494 54.0953 44.3001C54.2306 44.1508 54.3636 44.0294 54.3893 44.0504C54.415 44.0714 54.3356 44.2277 54.1817 44.3841C54.0277 44.5404 53.883 44.629 53.862 44.6034Z" fill="#263238"/>
<path d="M56.9835 39.6901C57.0068 39.7135 56.9299 39.8348 56.8132 39.9607C56.6966 40.0867 56.5799 40.1684 56.5519 40.1451C56.5239 40.1217 56.6056 40.0027 56.7246 39.8768C56.8435 39.7508 56.9578 39.6668 56.9835 39.6901Z" fill="#263238"/>
<path d="M57.8444 37.7141C57.8234 37.7397 57.6671 37.6534 57.4921 37.5204C57.3172 37.3875 57.1912 37.2591 57.2098 37.2311C57.2285 37.2031 57.3895 37.2918 57.5645 37.4248C57.7394 37.5578 57.8677 37.6767 57.8444 37.7141Z" fill="#263238"/>
<path d="M60.434 36.8112C60.4573 36.8345 60.371 36.9745 60.2007 37.0981C60.0304 37.2218 59.8857 37.2754 59.8694 37.2451C59.853 37.2148 59.9767 37.1191 60.126 37.0118C60.2753 36.9045 60.4176 36.7902 60.434 36.8112Z" fill="#263238"/>
<path d="M53.75 39.0765C53.6877 38.7663 53.7045 38.4453 53.799 38.1433C53.8482 38.2937 53.861 38.4536 53.8364 38.6099C53.8224 38.8759 53.785 39.0765 53.75 39.0765Z" fill="#263238"/>
<path d="M59.3772 44.3281C59.3446 44.3281 59.3329 44.1648 59.3516 43.9688C59.3702 43.7728 59.4122 43.6142 59.4449 43.6188C59.4775 43.6235 59.4892 43.7822 59.4705 43.9805C59.4519 44.1788 59.4122 44.3327 59.3772 44.3281Z" fill="#263238"/>
<path d="M63.6698 45.5739C63.6418 45.5925 63.5275 45.4712 63.4132 45.3056C63.2989 45.1399 63.2289 44.9883 63.2569 44.9696C63.2849 44.951 63.3992 45.07 63.5135 45.2379C63.6278 45.4059 63.7002 45.5529 63.6698 45.5739Z" fill="#263238"/>
<path d="M63.7773 48.6114C63.7469 48.5951 63.7913 48.4528 63.8752 48.2918C63.9592 48.1308 64.0526 48.0142 64.0805 48.0282C64.1085 48.0422 64.0665 48.1868 63.9826 48.3478C63.8986 48.5088 63.8076 48.6278 63.7773 48.6114Z" fill="#263238"/>
<path d="M62.1021 48.5858C62.0857 48.6137 61.9784 48.5858 61.8524 48.5414C61.7265 48.4971 61.6191 48.4668 61.6191 48.4341C61.6191 48.4014 61.7428 48.3805 61.8851 48.4341C62.0274 48.4878 62.1207 48.5578 62.1021 48.5858Z" fill="#263238"/>
<path d="M58.4066 50.4638C58.3786 50.4475 58.4206 50.3145 58.5023 50.1652C58.5839 50.0159 58.6749 49.9109 58.7029 49.9319C58.7309 49.9529 58.6912 50.0812 58.6096 50.2305C58.5279 50.3798 58.4369 50.4801 58.4066 50.4638Z" fill="#263238"/>
<path d="M56.5264 48.1028C56.5544 48.1215 56.482 48.2894 56.3187 48.4434C56.1554 48.5974 55.9851 48.665 55.9688 48.637C55.9524 48.609 56.0854 48.4994 56.2347 48.3571C56.384 48.2148 56.4984 48.0865 56.5264 48.1028Z" fill="#263238"/>
<path d="M54.8139 50.7904C54.7789 50.7904 54.7649 50.5781 54.7369 50.3238C54.7014 50.171 54.6927 50.0131 54.7113 49.8572C54.7416 49.8572 54.8279 50.0509 54.8583 50.3238C54.8886 50.5968 54.8466 50.7928 54.8139 50.7904Z" fill="#263238"/>
<path d="M57.8678 53.7556C57.8351 53.7556 57.7651 53.5853 57.6695 53.373C57.5738 53.1607 57.4875 52.9881 57.5155 52.9671C57.5435 52.9461 57.6788 53.0977 57.7791 53.324C57.8794 53.5503 57.9028 53.7486 57.8678 53.7556Z" fill="#263238"/>
<path d="M62.2795 52.3745C62.2492 52.3862 62.1488 52.1972 62.0462 51.9523C61.9728 51.8078 61.936 51.6476 61.9389 51.4857C61.9715 51.4857 62.0695 51.663 62.1605 51.9079C62.2515 52.1529 62.3122 52.3489 62.2795 52.3745Z" fill="#263238"/>
<path d="M61.3835 39.3588C61.3648 39.3845 61.2692 39.3472 61.1735 39.2725C61.0779 39.1978 61.0149 39.1162 61.0336 39.0905C61.0522 39.0649 61.1502 39.1022 61.2459 39.1769C61.3415 39.2515 61.4045 39.3308 61.3835 39.3588Z" fill="white"/>
<path d="M64.0759 37.8494C64.0549 37.8774 63.9452 37.833 63.8262 37.7514C63.7072 37.6697 63.6256 37.5811 63.6443 37.5554C63.6629 37.5298 63.7749 37.5694 63.8939 37.6511C64.0129 37.7327 64.0945 37.8214 64.0759 37.8494Z" fill="white"/>
<path d="M67.7828 43.1359C67.8085 43.1569 67.7455 43.2782 67.6405 43.4042C67.5355 43.5302 67.4329 43.6142 67.4072 43.5932C67.3816 43.5722 67.4445 43.4532 67.5472 43.3272C67.6498 43.2013 67.7572 43.1149 67.7828 43.1359Z" fill="white"/>
<path d="M61.7966 45.7419C61.8106 45.7722 61.7219 45.8375 61.6029 45.8888C61.4839 45.9402 61.3696 45.9518 61.3696 45.9215C61.3696 45.8912 61.4443 45.8258 61.5633 45.7745C61.6822 45.7232 61.7826 45.7115 61.7966 45.7419Z" fill="white"/>
<path d="M61.8455 42.3963C61.8571 42.4267 61.7452 42.499 61.5842 42.513C61.4232 42.527 61.2996 42.4757 61.3066 42.4453C61.3136 42.415 61.4325 42.4057 61.5725 42.3917C61.7125 42.3777 61.8338 42.366 61.8455 42.3963Z" fill="white"/>
<path d="M57.7068 44.2744C57.6764 44.2884 57.5878 44.1811 57.5061 44.0411C57.4245 43.9011 57.3825 43.7588 57.4128 43.7425C57.4431 43.7262 57.5318 43.8335 57.6135 43.9758C57.6951 44.1181 57.7371 44.2581 57.7068 44.2744Z" fill="white"/>
<path d="M57.8678 40.7539C57.8888 40.7796 57.8001 40.8846 57.6508 40.9639C57.5015 41.0432 57.3662 41.0549 57.3569 41.0222C57.3475 40.9896 57.4595 40.9289 57.5902 40.8566C57.7208 40.7843 57.8445 40.7259 57.8678 40.7539Z" fill="white"/>
<path d="M53.5378 40.4763C53.5191 40.4483 53.5984 40.3596 53.7174 40.278C53.8364 40.1963 53.9507 40.152 53.967 40.18C53.9834 40.208 53.9064 40.2967 53.7874 40.3783C53.6684 40.46 53.5564 40.5113 53.5378 40.4763Z" fill="white"/>
<path d="M54.6016 36.9768C54.6016 37.0118 54.4803 37.0608 54.317 37.0911C54.1537 37.1215 54.0184 37.1191 54.0114 37.0911C54.0044 37.0631 54.1327 37.0072 54.296 36.9768C54.4593 36.9465 54.6016 36.9535 54.6016 36.9768Z" fill="white"/>
<path d="M54.6669 46.5864C54.6669 46.619 54.5082 46.6214 54.3636 46.5094C54.2189 46.3974 54.1793 46.2481 54.2096 46.2364C54.2399 46.2248 54.3169 46.3251 54.4429 46.4137C54.5689 46.5024 54.6715 46.5537 54.6669 46.5864Z" fill="white"/>
<path d="M58.4299 48.4085C58.4019 48.4271 58.3063 48.3268 58.2176 48.1752C58.129 48.0235 58.08 47.9045 58.1103 47.8859C58.1406 47.8672 58.2316 47.9675 58.3203 48.1192C58.4089 48.2708 58.4579 48.4085 58.4299 48.4085Z" fill="white"/>
<path d="M57.2191 51.4786C57.1888 51.4786 57.1328 51.3946 57.0954 51.2687C57.0581 51.1427 57.0535 51.0354 57.0954 51.0214C57.1374 51.0074 57.1841 51.1077 57.2214 51.2337C57.2588 51.3596 57.2518 51.4693 57.2191 51.4786Z" fill="white"/>
<path d="M61.1175 51.1031C61.1292 51.1334 61.0032 51.2127 60.8236 51.243C60.6439 51.2734 60.4993 51.243 60.4993 51.2104C60.4993 51.1777 60.6369 51.1521 60.8026 51.1241C60.9682 51.0961 61.1058 51.0704 61.1175 51.1031Z" fill="white"/>
<path d="M64.1272 50.4568C64.0968 50.4428 64.1272 50.3052 64.2065 50.1488C64.2858 49.9925 64.3651 49.8782 64.3955 49.8922C64.4258 49.9062 64.3955 50.0462 64.3161 50.2002C64.2368 50.3541 64.1668 50.4708 64.1272 50.4568Z" fill="white"/>
<path d="M54.2937 53.7743C54.2587 53.7743 54.2074 53.6017 54.1327 53.3917C54.058 53.1817 53.9904 53.0114 54.0207 52.9951C54.0511 52.9788 54.17 53.1281 54.254 53.352C54.338 53.576 54.3263 53.7603 54.2937 53.7743Z" fill="white"/>
<path d="M55.2525 56.5529C55.2245 56.5739 55.0519 56.3872 54.8652 56.1376C54.7353 55.997 54.636 55.831 54.5736 55.65C54.6016 55.629 54.7742 55.8157 54.9609 56.0653C55.0908 56.2059 55.1901 56.3719 55.2525 56.5529Z" fill="#263238"/>
<path d="M61.8524 56.0279C61.8244 56.0489 61.7007 55.9183 61.5771 55.7386C61.4534 55.559 61.3764 55.398 61.4044 55.3794C61.4324 55.3607 61.5537 55.4914 61.6774 55.671C61.801 55.8506 61.8804 56.0093 61.8524 56.0279Z" fill="#263238"/>
<path d="M64.9063 53.4547C64.8783 53.4733 64.7383 53.3077 64.596 53.0837C64.4537 52.8597 64.3627 52.6661 64.3884 52.6474C64.414 52.6288 64.5563 52.7968 64.6986 53.0184C64.841 53.24 64.9343 53.436 64.9063 53.4547Z" fill="#263238"/>
<path d="M59.0085 53.0417C59.0411 53.0417 59.0598 53.1724 59.0505 53.3287C59.0411 53.485 59.0038 53.6086 58.9712 53.6063C58.9385 53.604 58.9175 53.4757 58.9292 53.3193C58.9408 53.163 58.9735 53.0394 59.0085 53.0417Z" fill="white"/>
<path d="M63.5649 53.1538C63.5322 53.1538 63.4832 53.0441 63.5066 52.8948C63.5299 52.7455 63.6116 52.6615 63.6395 52.6615C63.6675 52.6615 63.6396 52.7828 63.6279 52.9088C63.6162 53.0348 63.5976 53.1491 63.5649 53.1538Z" fill="white"/>
<path d="M51.7227 44.0714C51.7414 44.0994 51.6387 44.1998 51.4894 44.3047C51.3401 44.4097 51.2118 44.4587 51.1931 44.4307C51.1744 44.4027 51.2771 44.3001 51.4264 44.1974C51.5757 44.0948 51.704 44.0434 51.7227 44.0714Z" fill="white"/>
<path d="M49.6719 41.0176C49.6906 41.0456 49.6183 41.1249 49.5086 41.1972C49.399 41.2696 49.2963 41.3069 49.2753 41.2789C49.2543 41.2509 49.3313 41.1692 49.4386 41.0969C49.5459 41.0246 49.6533 40.9896 49.6719 41.0176Z" fill="white"/>
<path d="M52.3339 42.5876C52.3012 42.5876 52.2942 42.443 52.3176 42.275C52.3409 42.1071 52.3899 41.9717 52.4226 41.9764C52.4552 41.9811 52.4622 42.1234 52.4389 42.2914C52.4156 42.4593 52.3689 42.5923 52.3339 42.5876Z" fill="#263238"/>
<path d="M50.0126 42.7253C49.9869 42.7463 49.8796 42.6553 49.7793 42.5223C49.679 42.3894 49.6043 42.2634 49.63 42.2424C49.6556 42.2214 49.7653 42.3124 49.8633 42.4454C49.9613 42.5783 50.0406 42.7043 50.0126 42.7253Z" fill="#263238"/>
<path d="M34.9882 96.0129C34.9882 96.0129 40.8369 76.2806 40.9536 75.6507C41.0539 75.0791 39.1665 61.2398 38.7746 57.6494L46.1818 57.7217C46.1818 57.7217 46.1818 57.745 46.1818 57.7824L50.1479 57.892L47.7356 97.1421L43.8138 97.4337L43.8791 84.474C41.3852 90.7147 38.504 97.674 38.504 97.674L34.9882 96.0129Z" fill="#B78876"/>
<path d="M38.3944 57.6797C38.8587 57.8827 38.3944 57.6774 38.3944 57.6797V57.6797Z" fill="#B78876"/>
<path d="M46.4946 74.7711C46.4829 74.7711 46.5062 74.9251 46.5202 75.2004C46.5396 75.5892 46.5326 75.979 46.4992 76.3669C46.4484 76.9438 46.3509 77.5158 46.2076 78.077C46.0158 78.761 45.7821 79.4326 45.5077 80.088C44.9665 81.5041 44.4812 82.7872 44.1383 83.7204L43.7347 84.8263C43.6806 84.9596 43.6369 85.0968 43.604 85.2369C43.6724 85.1098 43.7316 84.9781 43.7813 84.8426C43.8933 84.5673 44.0403 84.1987 44.2199 83.7508C44.5862 82.8176 45.0831 81.5484 45.6197 80.1323C45.7527 79.7777 45.8857 79.4324 46.0116 79.0965C46.1299 78.7719 46.2296 78.4409 46.3103 78.1049C46.4503 77.5369 46.5401 76.9577 46.5786 76.3739C46.6051 75.9805 46.5988 75.5857 46.5599 75.1934C46.5459 75.0534 46.5272 74.9461 46.5132 74.8738C46.4992 74.8014 46.4992 74.7711 46.4946 74.7711Z" fill="#A36957"/>
<path d="M43.8558 89.1773C43.8558 89.0583 43.7788 84.7819 43.7788 84.7819C43.7788 84.7819 45.2136 80.8159 45.2486 80.9395C45.2836 81.0632 43.8558 89.1773 43.8558 89.1773Z" fill="#A36957"/>
<path d="M42.2857 28.8604C42.0243 28.6701 41.7237 28.5404 41.4059 28.4807C41.0881 28.421 40.7609 28.4328 40.4482 28.5152C40.1355 28.5976 39.8451 28.7486 39.598 28.9572C39.3509 29.1658 39.1533 29.4268 39.0196 29.7213C38.6463 30.5472 38.8166 31.5037 38.9776 32.3949C39.0616 32.8615 39.0989 33.4424 38.7093 33.7154C38.3197 33.9883 37.6618 33.7154 37.2045 33.9486C37.0491 34.042 36.9291 34.1842 36.8632 34.3531C36.7974 34.522 36.7894 34.7079 36.8406 34.8818C36.896 35.0528 36.993 35.2073 37.1229 35.3315C37.2528 35.4557 37.4115 35.5457 37.5848 35.5934C37.9341 35.6856 38.3042 35.6593 38.637 35.5187C38.5571 35.7246 38.5483 35.9513 38.6122 36.1627C38.676 36.3741 38.8087 36.558 38.9892 36.6852C39.1728 36.8064 39.3852 36.8769 39.6047 36.8896C39.8243 36.9023 40.0434 36.8568 40.2397 36.7576C40.632 36.5514 40.9277 36.1996 41.0633 35.7777C41.3199 36.2443 41.9965 36.3516 42.4514 36.102C42.6754 35.9629 42.8644 35.7743 43.004 35.5506C43.1435 35.3269 43.2298 35.0742 43.2563 34.8119C43.3088 34.2879 43.2797 33.7591 43.1699 33.2441" fill="#512B58"/>
<path d="M42.834 36.8439L47.0637 36.7669C47.1197 36.277 47.2014 34.3732 47.2014 34.3732C47.2014 34.3732 48.9698 34.2099 49.1004 32.4602C49.2311 30.7105 49.1727 26.6721 49.1727 26.6721C48.2039 26.1828 47.1219 25.9611 46.0387 26.03C44.9555 26.0989 43.9104 26.4559 43.0113 27.064L42.7407 27.246L42.834 36.8439Z" fill="#B78876"/>
<path d="M48.5731 29.7446C48.5375 29.7091 48.5132 29.6637 48.5033 29.6144C48.4935 29.5651 48.4985 29.5139 48.5177 29.4674C48.537 29.4209 48.5696 29.3812 48.6114 29.3532C48.6532 29.3252 48.7024 29.3103 48.7527 29.3103C48.803 29.3103 48.8522 29.3252 48.894 29.3532C48.9359 29.3812 48.9685 29.4209 48.9877 29.4674C49.0069 29.5139 49.0119 29.5651 49.0021 29.6144C48.9922 29.6637 48.968 29.7091 48.9324 29.7446C48.9089 29.7684 48.8809 29.7874 48.8501 29.8003C48.8193 29.8132 48.7862 29.8199 48.7527 29.8199C48.7193 29.8199 48.6862 29.8132 48.6553 29.8003C48.6245 29.7874 48.5965 29.7684 48.5731 29.7446Z" fill="#263238"/>
<path d="M49.0211 29.4553C48.9931 29.4833 48.8275 29.341 48.5872 29.3247C48.3469 29.3084 48.1626 29.4227 48.1392 29.39C48.1159 29.3573 48.1579 29.3224 48.2372 29.2687C48.3446 29.203 48.4699 29.1726 48.5954 29.1818C48.721 29.191 48.8405 29.2393 48.9371 29.32C49.0141 29.3853 49.0351 29.4437 49.0211 29.4553Z" fill="#263238"/>
<path d="M46.2868 29.418C46.328 29.4468 46.3597 29.4872 46.3779 29.5341C46.3961 29.5809 46.4 29.6321 46.3892 29.6812C46.3783 29.7303 46.3532 29.775 46.3169 29.8098C46.2806 29.8446 46.2349 29.8679 46.1854 29.8766C46.1359 29.8854 46.0849 29.8794 46.0389 29.8592C45.9928 29.839 45.9538 29.8057 45.9267 29.7633C45.8996 29.721 45.8857 29.6716 45.8866 29.6213C45.8876 29.5711 45.9035 29.5222 45.9322 29.481C45.9513 29.4535 45.9756 29.4301 46.0038 29.4121C46.032 29.394 46.0635 29.3817 46.0964 29.3759C46.1294 29.37 46.1631 29.3708 46.1958 29.378C46.2285 29.3852 46.2594 29.3988 46.2868 29.418Z" fill="#263238"/>
<path d="M46.3919 29.5113C46.3615 29.5393 46.1982 29.397 45.9579 29.3806C45.7176 29.3643 45.5333 29.4786 45.5077 29.446C45.482 29.4133 45.5263 29.3783 45.6056 29.3247C45.7133 29.2565 45.8403 29.2254 45.9673 29.236C46.0941 29.2443 46.2147 29.2943 46.3102 29.3783C46.3825 29.439 46.4059 29.4973 46.3919 29.5113Z" fill="#263238"/>
<path d="M47.2457 31.3777C47.3737 31.3362 47.5077 31.3165 47.6423 31.3194C47.7053 31.3194 47.7543 31.3054 47.7613 31.2704C47.7669 31.2079 47.7556 31.145 47.7286 31.0884C47.6749 30.9251 47.6236 30.7594 47.5676 30.5868C47.413 30.1612 47.3013 29.7212 47.234 29.2733C47.2713 29.2617 47.479 29.8309 47.7006 30.5448C47.7519 30.7198 47.8033 30.8854 47.8522 31.0511C47.8877 31.1345 47.8934 31.2275 47.8686 31.3147C47.8587 31.3385 47.8431 31.3594 47.8231 31.3757C47.8032 31.392 47.7795 31.4031 47.7543 31.408C47.7188 31.4147 47.6824 31.4147 47.6469 31.408C47.5124 31.421 47.3767 31.4107 47.2457 31.3777Z" fill="#263238"/>
<path d="M46.4361 31.611C46.2028 31.4477 47.1057 32.0216 47.6026 32.0286C47.5131 32.1502 47.385 32.2379 47.2393 32.2773C47.0935 32.3168 46.9386 32.3055 46.8001 32.2456C46.2938 32.0099 46.4361 31.611 46.4361 31.611Z" fill="white"/>
<path d="M47.2061 34.3499C46.3969 34.3145 45.6164 34.0392 44.9641 33.559C44.9641 33.559 45.4307 34.8515 47.1828 34.8025L47.2061 34.3499Z" fill="#A36957"/>
<path d="M44.3364 26.0608C44.3778 26.4222 44.5376 26.7597 44.7907 27.0209C45.0439 27.2821 45.3763 27.4523 45.7362 27.5049C46.1654 27.5563 46.6297 27.4373 47.017 27.6333C47.2788 27.8057 47.502 28.0305 47.6726 28.2935C47.7584 28.4244 47.8725 28.5343 48.0066 28.6151C48.1407 28.6959 48.2913 28.7454 48.4471 28.7601C48.5957 28.7401 48.7419 28.7049 48.8834 28.6551C48.9548 28.6315 49.0305 28.6234 49.1054 28.6314C49.1802 28.6395 49.2525 28.6635 49.3173 28.7018C49.5392 28.1877 49.629 27.6263 49.5786 27.0687C49.5499 26.791 49.4443 26.5269 49.2737 26.306C49.103 26.0851 48.8741 25.9161 48.6127 25.8182C48.2651 25.7155 47.8895 25.7809 47.5326 25.7179C47.2407 25.6501 46.9585 25.5458 46.6927 25.4076C46.2514 25.1693 45.7511 25.0624 45.2509 25.0996C44.7563 25.1743 44.2827 25.5802 44.2944 26.0795" fill="#512B58"/>
<path d="M42.8597 30.8504C43.4942 31.359 44.2594 30.0409 44.6001 29.2174C44.9092 28.3679 45.0763 27.4732 45.0946 26.5694C45.1421 26.2763 45.0878 25.9758 44.9407 25.7179C44.7587 25.4729 44.677 25.7739 44.4741 25.5429C44.0845 25.0903 43.3659 25.3329 43.0113 25.4869C42.4211 25.7412 42.0501 26.4014 41.9335 27.071C41.8526 27.7473 41.877 28.4319 42.0058 29.1007C42.0501 29.4087 42.0921 29.7166 42.1364 30.0339C42.1516 30.2522 42.2136 30.4647 42.3184 30.6568C42.3691 30.7484 42.4504 30.8193 42.548 30.8573C42.6456 30.8952 42.7534 30.8977 42.8527 30.8644" fill="#512B58"/>
<path d="M42.8387 29.411C42.8388 29.3425 42.8124 29.2765 42.765 29.227C42.7176 29.1774 42.6529 29.1481 42.5844 29.1451C42.2578 29.1451 41.7235 29.2664 41.6746 30.1669C41.6022 31.4547 42.841 31.1351 42.841 31.1001C42.841 31.0651 42.841 29.9103 42.8387 29.411Z" fill="#B78876"/>
<path d="M42.5611 30.5915C42.5611 30.5915 42.5378 30.6055 42.4981 30.6218C42.4447 30.6421 42.3858 30.6421 42.3325 30.6218C42.2511 30.565 42.1865 30.4874 42.1455 30.3971C42.1044 30.3068 42.0884 30.2072 42.0992 30.1085C42.1032 29.9981 42.1311 29.8899 42.1808 29.7913C42.1954 29.752 42.2191 29.7167 42.2499 29.6884C42.2807 29.66 42.3178 29.6393 42.3581 29.6279C42.3846 29.6227 42.4122 29.6268 42.436 29.6395C42.4598 29.6523 42.4785 29.6729 42.4888 29.6979C42.5028 29.7353 42.4888 29.7609 42.5004 29.7633C42.5121 29.7656 42.5284 29.7423 42.5214 29.6886C42.5157 29.6562 42.4993 29.6266 42.4748 29.6046C42.441 29.5762 42.3975 29.5619 42.3534 29.565C42.3001 29.5727 42.2497 29.5939 42.2068 29.6266C42.1639 29.6592 42.1301 29.7022 42.1085 29.7516C42.0464 29.8596 42.0127 29.9816 42.0105 30.1062C41.9974 30.2208 42.0185 30.3367 42.0713 30.4393C42.124 30.5418 42.206 30.6265 42.3068 30.6825C42.341 30.6941 42.3773 30.6981 42.4132 30.694C42.4491 30.69 42.4837 30.6781 42.5144 30.6591C42.5564 30.6218 42.5658 30.5938 42.5611 30.5915Z" fill="#A36957"/>
<path d="M38.1611 33.0108C38.1867 32.977 38.2094 32.9411 38.2288 32.9035C38.2521 32.8486 38.2623 32.789 38.2587 32.7295C38.255 32.67 38.2376 32.6121 38.2078 32.5605C38.159 32.4819 38.084 32.4232 37.996 32.3946C37.9081 32.3659 37.8128 32.3694 37.7272 32.4042C37.6129 32.448 37.5169 32.5293 37.455 32.6349C37.3931 32.7405 37.3689 32.864 37.3866 32.9851C37.4268 33.2162 37.5474 33.4257 37.7271 33.5764C37.9069 33.7271 38.1342 33.8094 38.3687 33.8087C38.4547 33.8067 38.5389 33.7845 38.6147 33.744C38.6905 33.7035 38.7557 33.6457 38.805 33.5754C38.9042 33.4199 38.9508 33.2367 38.938 33.0528C38.9264 32.8545 38.8896 32.6585 38.8283 32.4695C38.7047 32.0776 38.4971 31.702 38.3244 31.2914C38.133 30.8923 38.0524 30.4491 38.0911 30.0082C38.1435 29.5992 38.3046 29.2116 38.5577 28.8861C38.767 28.6082 39.039 28.3838 39.3517 28.2314C39.6643 28.0789 40.0087 28.0026 40.3564 28.0089C40.8217 28.0099 41.2774 28.1408 41.6722 28.3868C41.7788 28.4551 41.8788 28.5332 41.9709 28.6201C42.0338 28.6808 42.0642 28.7111 42.0618 28.7158C42.0595 28.7204 41.9242 28.5968 41.6489 28.4358C41.2548 28.2134 40.8089 28.0991 40.3564 28.1045C40.0471 28.1061 39.7417 28.1738 39.4606 28.3028C39.1394 28.4521 38.8604 28.679 38.6487 28.9631C38.4105 29.2739 38.2598 29.6428 38.2124 30.0316C38.18 30.4526 38.2606 30.8746 38.4457 31.254C38.6137 31.6553 38.8237 32.0379 38.9497 32.4415C39.0151 32.6408 39.0535 32.8479 39.064 33.0574C39.0781 33.2671 39.0223 33.4755 38.9053 33.65C38.8444 33.7316 38.7651 33.7977 38.674 33.8431C38.5828 33.8885 38.4822 33.9119 38.3804 33.9113C38.1193 33.9115 37.8669 33.817 37.67 33.6455C37.4732 33.4739 37.3451 33.2368 37.3096 32.9781C37.2933 32.8393 37.325 32.6992 37.3992 32.5808C37.4734 32.4625 37.5859 32.373 37.7178 32.3272C37.8172 32.2915 37.9261 32.292 38.0251 32.3287C38.1241 32.3654 38.207 32.436 38.2591 32.5278C38.2884 32.5861 38.3037 32.6504 38.3037 32.7157C38.3037 32.7809 38.2884 32.8452 38.2591 32.9035C38.2397 32.9494 38.2051 32.9873 38.1611 33.0108Z" fill="#512B58"/>
<path d="M42.7991 31.4943C42.7991 31.4943 42.862 31.674 42.6894 31.891C42.6387 31.9534 42.5752 32.0043 42.5031 32.0401C42.4311 32.0759 42.3522 32.0959 42.2718 32.0986C42.1724 32.1018 42.0735 32.0824 41.9826 32.042C41.8917 32.0016 41.8111 31.9412 41.7469 31.8653C41.6333 31.7274 41.5756 31.5519 41.5851 31.3735C41.5946 31.1952 41.6707 31.0268 41.7982 30.9018C41.9918 30.7151 42.1692 30.7035 42.1668 30.7151C42.056 30.785 41.9535 30.8671 41.8612 30.9601C41.7701 31.0628 41.7145 31.192 41.7026 31.3287C41.6927 31.4117 41.6999 31.4959 41.7236 31.5761C41.7472 31.6563 41.7869 31.7309 41.8402 31.7953C41.8935 31.8567 41.9595 31.9058 42.0336 31.9392C42.1077 31.9727 42.1882 31.9896 42.2695 31.9889C42.3361 31.9886 42.4019 31.975 42.4632 31.949C42.5245 31.923 42.58 31.885 42.6264 31.8373C42.7104 31.7383 42.7696 31.6208 42.7991 31.4943Z" fill="#263238"/>
<path d="M42.0315 29.278C42.0035 29.2944 41.8915 29.1544 41.8518 28.9444C41.8122 28.7344 41.8518 28.5641 41.8938 28.5688C41.9358 28.5735 41.9335 28.7344 41.9708 28.9211C42.0081 29.1077 42.0618 29.278 42.0315 29.278Z" fill="#263238"/>
<path d="M39.0476 38.036C39.0476 38.036 33.6818 42.702 33.5395 42.1351C32.7859 39.0462 33.1055 35.6027 33.1009 33.8577V33.0108C33.1303 32.589 33.0142 32.1698 32.7719 31.8233C32.7335 31.7618 32.7044 31.695 32.6856 31.625C32.6529 31.373 32.9772 30.0992 33.0939 29.6326C33.2338 29.0727 32.9072 28.7904 32.7952 29.0214C32.5853 29.4437 32.0627 31.247 31.883 31.4174C31.7034 31.5877 31.7757 30.6638 31.7757 30.6638C31.9927 28.6948 32.107 28.4055 31.7571 28.3308C31.3535 28.2608 31.0222 31.1934 31.0222 31.1934C31.0222 31.1934 31.0665 30.7851 30.7515 30.7128C30.4366 30.6405 30.3059 31.0487 30.3059 31.0487C30.3363 30.8411 30.04 30.8154 30.04 30.8154C29.3028 30.9461 29.7904 33.4167 29.7904 33.4167C29.4544 36.7482 28.8035 46.948 33.4135 46.6027C38.854 46.1874 40.1068 41.8994 40.1068 41.8994L39.0476 38.036Z" fill="#B78876"/>
<path d="M32.3822 33.6897C32.2047 33.5897 32.0466 33.4585 31.9156 33.3024C31.7596 33.1428 31.6183 32.9695 31.4934 32.7845C31.4234 32.6795 31.3534 32.5675 31.2881 32.4462C31.2039 32.3198 31.1548 32.1732 31.1458 32.0216C31.1497 31.9704 31.168 31.9214 31.1985 31.8801C31.229 31.8388 31.2706 31.807 31.3184 31.7883C31.4105 31.7634 31.5085 31.7734 31.5937 31.8163C31.7343 31.8773 31.8668 31.9557 31.988 32.0496C32.1831 32.1939 32.3487 32.3745 32.4756 32.5815H32.4102C32.5525 32.3202 32.7322 32.2619 32.7322 32.2712C32.6283 32.3691 32.5422 32.4844 32.4779 32.6118L32.4522 32.6725L32.4126 32.6165C32.2775 32.4294 32.1128 32.2655 31.925 32.1313C31.8075 32.0495 31.6816 31.9807 31.5494 31.926C31.4905 31.8956 31.4229 31.8865 31.3581 31.9003C31.3312 31.9133 31.3085 31.9334 31.2924 31.9585C31.2763 31.9837 31.2676 32.0128 31.2671 32.0426C31.2804 32.1698 31.3236 32.2921 31.393 32.3995C31.456 32.5185 31.5214 32.6328 31.5867 32.7332C31.7032 32.912 31.8319 33.0827 31.9716 33.2441C32.2049 33.5264 32.3939 33.6734 32.3822 33.6897Z" fill="#A36957"/>
<path d="M30.9895 31.3964C31.0456 31.5905 31.0824 31.7898 31.0991 31.9913C31.1248 32.1919 31.1551 32.4089 31.1855 32.6445C31.207 32.7756 31.2171 32.9083 31.2158 33.0411C31.2152 33.1283 31.1809 33.2119 31.1201 33.2744C31.0873 33.309 31.0446 33.3327 30.9979 33.3423C30.9512 33.3519 30.9027 33.3469 30.8588 33.3281C30.7342 33.2348 30.6506 33.0968 30.6255 32.9431C30.5851 32.8125 30.5524 32.6865 30.5276 32.5652C30.4716 32.3319 30.4342 32.0986 30.4039 31.9166C30.3597 31.7195 30.3331 31.5189 30.3246 31.317C30.4011 31.5046 30.4559 31.7003 30.4879 31.9003C30.5299 32.0823 30.5742 32.3016 30.6349 32.5395C30.6652 32.6585 30.7002 32.7728 30.7399 32.9081C30.7795 33.0435 30.8262 33.1718 30.9172 33.2161C31.0081 33.2604 31.1038 33.1554 31.1061 33.0411C31.1088 32.9155 31.101 32.7899 31.0828 32.6655C31.0618 32.4322 31.0408 32.2129 31.0221 32.0123C30.9884 31.8088 30.9775 31.6022 30.9895 31.3964Z" fill="#A36957"/>
<path d="M30.4646 32.2479C30.4646 32.2479 30.5625 32.3622 30.5789 32.5979C30.5868 32.6606 30.5868 32.7241 30.5789 32.7868C30.5721 32.8656 30.5448 32.9413 30.4996 33.0061C30.4834 33.0288 30.462 33.0472 30.4372 33.0599C30.4125 33.0727 30.3851 33.0793 30.3572 33.0793C30.3294 33.0793 30.302 33.0727 30.2772 33.0599C30.2525 33.0472 30.2311 33.0288 30.2149 33.0061C30.1626 32.9328 30.1173 32.8547 30.0796 32.7728C29.8728 32.409 29.7733 31.9941 29.7927 31.576C29.8917 31.967 30.0244 32.3487 30.1893 32.7168C30.2218 32.7868 30.26 32.8539 30.3036 32.9175C30.3456 32.9618 30.3736 32.9595 30.4132 32.9175C30.4729 32.8148 30.5035 32.6979 30.5019 32.5792C30.4996 32.3856 30.4459 32.2549 30.4646 32.2479Z" fill="#A36957"/>
<path d="M50.0825 49.4326C50.0825 49.4326 51.4823 52.7898 53.2857 52.9157L53.519 43.6212H50.8407C51.0603 44.445 51.126 45.3024 51.0344 46.1501C50.9504 46.8453 50.0825 49.4326 50.0825 49.4326Z" fill="#B78876"/>
<path d="M53.5098 43.6212C53.5098 43.6212 53.5518 44.0878 53.0875 40.355C52.8869 38.7219 51.7764 37.7141 50.5889 37.0888V37.0678L50.4839 37.0375C49.5038 36.5625 48.451 36.255 47.3694 36.1276L43.17 36.06C43.17 36.06 40.0905 35.675 38.1284 37.8097C36.1664 39.9444 34.8296 41.2019 34.8296 41.2019L37.9628 44.9673L38.8027 44.1367C38.8027 44.1367 39.036 44.6827 39.7032 46.6237C39.9598 47.3586 40.6364 49.26 40.6364 49.26L39.8642 50.9864C39.155 52.5716 38.641 54.2371 38.3337 55.9463C37.8298 58.7762 37.4379 62.8589 38.0701 66.7177C39.2366 73.8589 39.1013 75.9982 39.1013 75.9982L51.0321 76.9711C51.0321 76.9711 52.4319 65.0986 51.921 57.9433C51.6247 53.695 50.1643 50.7927 49.931 49.8922L50.9645 46.7217C51.3074 45.6718 51.1348 44.6803 50.8385 43.6188H53.5074L53.5098 43.6212Z" fill="#455A64"/>
<path d="M50.5818 47.9955C50.4472 48.013 50.3116 48.0208 50.1759 48.0188L49.0724 48.0515L45.4259 48.1635C44.0005 48.2078 42.7104 48.2381 41.7748 48.2404C41.3082 48.2404 40.9303 48.2404 40.669 48.2404C40.5334 48.2422 40.3978 48.2352 40.2631 48.2194C40.3973 48.1987 40.5332 48.1901 40.669 48.1938L41.7748 48.1611L45.4213 48.0491C46.8444 48.0048 48.1369 47.9745 49.0701 47.9721C49.5367 47.9721 49.9146 47.9721 50.1759 47.9721C50.3116 47.9687 50.4474 47.9765 50.5818 47.9955Z" fill="white"/>
<path d="M49.6253 37.0515C49.6253 37.0842 47.367 37.1122 44.5814 37.1122C41.7958 37.1122 39.5352 37.0842 39.5352 37.0515C39.5352 37.0188 41.7935 36.9908 44.5814 36.9908C47.3693 36.9908 49.6253 37.0188 49.6253 37.0515Z" fill="white"/>
<path d="M51.8906 38.6099C51.8906 38.6426 48.6944 38.6729 44.7517 38.6752C40.809 38.6776 37.6128 38.6543 37.6128 38.6193C37.6128 38.5843 40.809 38.5563 44.7517 38.5539C48.6944 38.5516 51.8906 38.5749 51.8906 38.6099Z" fill="white"/>
<path d="M52.8822 40.166C52.8822 40.201 49.1495 40.2267 44.5628 40.2267C39.9762 40.2267 36.2434 40.201 36.2434 40.166C36.2434 40.131 39.9762 40.1054 44.5628 40.1054C49.1495 40.1054 52.8822 40.1334 52.8822 40.166Z" fill="white"/>
<path d="M35.4385 41.9344C35.4385 41.9017 39.4162 41.8737 44.3225 41.8737C49.2287 41.8737 53.2088 41.9017 53.2088 41.9344C53.2088 41.9671 49.2427 41.9951 44.3225 41.9951C39.4022 41.9951 35.4385 41.9694 35.4385 41.9344Z" fill="white"/>
<path d="M50.9108 43.9314C50.9108 43.9641 47.8196 43.9921 44.0052 43.9921C40.1908 43.9921 37.1042 43.9758 37.1042 43.9314C37.1042 43.8871 40.1978 43.8708 44.0122 43.8708C47.8266 43.8708 50.9108 43.8965 50.9108 43.9314Z" fill="white"/>
<path d="M51.0345 45.9681C50.9965 45.9787 50.9572 45.9835 50.9178 45.9821L50.5842 45.9938L49.3571 46.0288L45.3024 46.1618C43.7183 46.2154 42.2858 46.2528 41.2476 46.2598C40.7274 46.2598 40.3144 46.2598 40.0158 46.2598H39.6822C39.643 46.2594 39.604 46.2555 39.5656 46.2481C39.6035 46.2375 39.6428 46.2328 39.6822 46.2341H40.0158L41.2453 46.1968L45.2977 46.0638C46.8818 46.0125 48.3166 45.9751 49.3547 45.9681C49.8727 45.9681 50.2879 45.9681 50.5842 45.9681H50.9178C50.9566 45.9633 50.9958 45.9633 51.0345 45.9681Z" fill="white"/>
<path d="M50.0826 50.0415C50.0826 50.0742 47.8849 50.1162 45.1833 50.1372C42.4817 50.1582 40.2841 50.1372 40.2841 50.1092C40.2841 50.0812 42.4817 50.0345 45.1833 50.0135C47.8849 49.9925 50.0826 50.0042 50.0826 50.0415Z" fill="white"/>
<path d="M50.6869 52.3862C50.6869 52.4212 48.1346 52.4538 44.9898 52.4608C41.8449 52.4678 39.2903 52.4468 39.2903 52.4118C39.2903 52.3768 41.8402 52.3465 44.9874 52.3395C48.1346 52.3325 50.6869 52.3535 50.6869 52.3862Z" fill="white"/>
<path d="M51.4917 54.6259C51.4917 54.6609 48.6081 54.6912 45.0527 54.6935C41.4972 54.6959 38.6136 54.6749 38.6136 54.6399C38.6136 54.6049 41.4949 54.5769 45.0527 54.5722C48.6105 54.5675 51.4917 54.5932 51.4917 54.6259Z" fill="white"/>
<path d="M51.8019 56.6112C51.8019 56.6439 48.7691 56.6765 45.013 56.6812C41.2569 56.6858 38.2263 56.6649 38.2263 56.6322C38.2263 56.5995 41.2592 56.5669 45.013 56.5599C48.7667 56.5529 51.8019 56.5739 51.8019 56.6112Z" fill="white"/>
<path d="M51.9654 58.6736C51.9654 58.7062 48.8509 58.7389 45.0085 58.7459C41.166 58.7529 38.0515 58.7319 38.0515 58.6969C38.0515 58.6619 41.166 58.6316 45.0085 58.6246C48.8509 58.6176 51.9654 58.6316 51.9654 58.6736Z" fill="white"/>
<path d="M51.9652 60.7569C51.9652 60.7895 48.7924 60.8222 44.8753 60.8292C40.9582 60.8362 37.7854 60.8129 37.7854 60.7802C37.7854 60.7475 40.9606 60.7149 44.8753 60.7079C48.7901 60.7009 51.9652 60.7219 51.9652 60.7569Z" fill="white"/>
<path d="M51.9653 62.8729C51.9653 62.9056 48.7901 62.9382 44.873 62.9452C40.956 62.9522 37.7784 62.9289 37.7784 62.8962C37.7784 62.8636 40.9536 62.8286 44.873 62.8239C48.7924 62.8193 51.9653 62.8263 51.9653 62.8729Z" fill="white"/>
<path d="M51.7716 65.0986C51.7716 65.1336 48.6594 65.1639 44.8193 65.1663C40.9793 65.1686 37.8671 65.1453 37.8671 65.1126C37.8671 65.0799 40.9793 65.0496 44.8193 65.045C48.6594 65.0403 51.7716 65.066 51.7716 65.0986Z" fill="white"/>
<path d="M51.802 66.8949C51.802 66.9299 48.7224 66.9603 44.929 66.9626C41.1356 66.9649 38.056 66.9416 38.056 66.9089C38.056 66.8763 41.1309 66.8436 44.929 66.8413C48.7271 66.839 51.802 66.8623 51.802 66.8949Z" fill="white"/>
<path d="M51.7391 69.123C51.7391 69.1557 48.7809 69.1883 45.1345 69.1976C41.488 69.207 38.5298 69.1813 38.5298 69.1487C38.5298 69.116 41.4857 69.081 45.1345 69.074C48.7832 69.067 51.7391 69.0903 51.7391 69.123Z" fill="white"/>
<path d="M51.4474 71.3486C51.4474 71.3836 48.6035 71.4139 45.097 71.4186C41.5905 71.4233 38.7373 71.3976 38.7373 71.365C38.7373 71.3323 41.5812 71.2996 45.0877 71.2973C48.5941 71.295 51.4474 71.316 51.4474 71.3486Z" fill="white"/>
<path d="M51.4055 73.306C51.4055 73.3387 48.6316 73.3737 45.2068 73.3807C41.782 73.3877 39.0081 73.3667 39.0081 73.3317C39.0081 73.2967 41.782 73.2663 45.2068 73.2593C48.6316 73.2523 51.4055 73.2733 51.4055 73.306Z" fill="white"/>
<path d="M51.2025 75.4104C51.2025 75.443 48.473 75.4757 45.1065 75.4827C41.74 75.4897 39.0081 75.471 39.0081 75.436C39.0081 75.401 41.7376 75.3707 45.1065 75.3614C48.4753 75.352 51.2025 75.3754 51.2025 75.4104Z" fill="white"/>
<path d="M50.3881 42.3427C50.4472 42.4353 50.4979 42.5329 50.5398 42.6343C50.6614 42.9072 50.7628 43.1887 50.8431 43.4765C51.2631 44.9634 51.1943 46.5459 50.6471 47.9909C50.4651 48.4575 50.2691 48.8611 50.1525 49.2157C50.0518 49.4923 49.9928 49.7825 49.9775 50.0765C49.9775 50.2842 49.9939 50.4008 49.9775 50.4008C49.9612 50.4008 49.9659 50.3752 49.9542 50.3192C49.9387 50.2423 49.9293 50.1643 49.9262 50.0859C49.9228 49.7846 49.9701 49.4849 50.0662 49.1993C50.1758 48.8331 50.3648 48.4225 50.5328 47.9605C50.7186 47.4576 50.8485 46.9358 50.9201 46.4044C51.0515 45.4368 50.9944 44.4529 50.7521 43.5069C50.5771 42.7603 50.3625 42.3427 50.3881 42.3427Z" fill="#263238"/>
<path d="M40.7717 42.5223C40.7927 42.5503 40.1884 43.0286 39.4605 43.6351C38.7326 44.2417 38.1541 44.7456 38.1307 44.72C38.2289 44.5823 38.3441 44.4577 38.4737 44.349C38.707 44.1344 39.0173 43.8451 39.3835 43.5418C39.7498 43.2385 40.0834 42.9749 40.3447 42.7929C40.4739 42.6835 40.6176 42.5924 40.7717 42.5223Z" fill="#263238"/>
<path d="M51.1861 77.1834C51.1459 77.1896 51.105 77.1896 51.0648 77.1834L50.7172 77.1414L49.441 76.9688C48.3655 76.8288 46.8747 76.6492 45.2253 76.5022C43.5759 76.3552 42.0781 76.2572 40.9933 76.2012L39.7078 76.1382L39.3579 76.1172C39.3169 76.1171 39.2761 76.1117 39.2366 76.1009C39.2776 76.0954 39.3192 76.0954 39.3602 76.1009H39.7102C40.0135 76.1009 40.452 76.1009 40.9956 76.1266C42.0828 76.1592 43.5829 76.2409 45.237 76.3925C46.8911 76.5442 48.3795 76.7378 49.455 76.9011C49.9916 76.9828 50.4255 77.0551 50.7242 77.1111L51.0671 77.1764C51.1069 77.1732 51.1469 77.1755 51.1861 77.1834Z" fill="#263238"/>
<path d="M47.9433 97.2984L47.9223 96.8574L43.7649 97.0417L43.8209 98.4975H44.0775C45.223 98.5115 49.8983 98.4975 50.6519 98.2292C51.4941 97.9423 47.9433 97.2984 47.9433 97.2984Z" fill="#512B58"/>
<path d="M49.6814 97.674C49.6814 97.674 50.9272 97.9773 50.7825 98.1872C50.6379 98.3972 45.9136 98.5932 43.8209 98.4975V98.4065L49.3338 98.2222C49.3338 98.2222 49.4411 97.695 49.6814 97.674Z" fill="#455A64"/>
<path d="M45.3209 98.4019C45.2446 98.0554 45.0426 97.7496 44.754 97.5433C44.4715 97.3368 44.122 97.2436 43.7742 97.282L43.8232 98.4485L45.3209 98.4019Z" fill="#455A64"/>
<path d="M43.7579 98.4065H43.8303H44.7891C45.426 98.4065 46.3032 98.3855 47.2737 98.3459C48.2443 98.3062 49.1215 98.2502 49.756 98.2036L50.5072 98.1406L50.7102 98.1196C50.734 98.1196 50.7577 98.1156 50.7802 98.1079H50.7102H50.5049L49.7537 98.1546C49.1191 98.1942 48.2419 98.2456 47.2714 98.2852C46.3009 98.3249 45.4237 98.3459 44.7891 98.3599L44.0356 98.3739H43.8303L43.7579 98.4065Z" fill="#263238"/>
<path d="M49.3383 98.2876C49.366 98.161 49.4082 98.0381 49.4643 97.9213C49.5316 97.814 49.6098 97.7139 49.6976 97.6227C49.5756 97.6827 49.4747 97.7785 49.4084 97.8973C49.3422 98.0161 49.3137 98.1522 49.3267 98.2876H49.3383Z" fill="#263238"/>
<path d="M48.0926 97.7183C48.0926 97.7183 48.1602 97.653 48.2162 97.555C48.2722 97.457 48.3072 97.373 48.2955 97.366C48.2839 97.359 48.2279 97.4313 48.1719 97.5293C48.1159 97.6273 48.0692 97.7113 48.0926 97.7183Z" fill="#263238"/>
<path d="M47.7496 97.555C47.7496 97.555 47.8219 97.52 47.8919 97.4523C47.9619 97.3847 48.0085 97.3217 47.9968 97.3123C47.9852 97.303 47.9245 97.3497 47.8569 97.415C47.7892 97.4803 47.7402 97.5456 47.7496 97.555Z" fill="#263238"/>
<path d="M47.521 97.1677C47.5911 97.1896 47.6651 97.196 47.738 97.1864C47.8111 97.1919 47.8845 97.1808 47.9526 97.1537C47.8828 97.1305 47.8084 97.1241 47.7356 97.1351C47.6625 97.1298 47.5892 97.141 47.521 97.1677Z" fill="#263238"/>
<path d="M47.437 96.9017C47.5072 96.9442 47.5883 96.9653 47.6703 96.9624C47.7561 96.9724 47.8429 96.957 47.9199 96.9181C47.8377 96.9104 47.7549 96.9104 47.6726 96.9181C47.5948 96.9051 47.5159 96.8996 47.437 96.9017Z" fill="#263238"/>
<path d="M48.2162 97.352C48.305 97.3627 48.3949 97.3579 48.4821 97.338C48.5784 97.3233 48.673 97.299 48.7644 97.2657C48.8197 97.2462 48.8729 97.2212 48.9231 97.191C48.9537 97.1718 48.9761 97.1419 48.9861 97.1071C48.99 97.0869 48.9876 97.066 48.9793 97.0472C48.9709 97.0284 48.957 97.0127 48.9394 97.0021C48.8358 96.9568 48.7197 96.9489 48.6108 96.9795C48.502 97.0101 48.407 97.0774 48.3422 97.1701C48.3033 97.2236 48.2762 97.2849 48.2628 97.3497C48.2628 97.3963 48.2628 97.422 48.2628 97.422C48.2862 97.3383 48.3241 97.2593 48.3748 97.1887C48.4306 97.1153 48.507 97.0601 48.5941 97.0301C48.6966 96.9882 48.8113 96.9882 48.9137 97.0301C48.9557 97.0604 48.9417 97.1094 48.8951 97.1397C48.8493 97.1677 48.8008 97.1911 48.7504 97.2097C48.6616 97.2443 48.5704 97.2724 48.4775 97.2937C48.3188 97.338 48.2162 97.3427 48.2162 97.352Z" fill="#263238"/>
<path d="M48.2862 97.3613C48.3172 97.3051 48.3255 97.2392 48.3095 97.177C48.2988 97.1074 48.2707 97.0416 48.2279 96.9857C48.2041 96.9455 48.1699 96.9125 48.1288 96.8903C48.0876 96.8681 48.0412 96.8575 47.9946 96.8597C47.9677 96.8664 47.9446 96.8833 47.9302 96.9069C47.9158 96.9305 47.9113 96.9588 47.9176 96.9857C47.926 97.0279 47.9435 97.0677 47.9689 97.1024C48.006 97.1596 48.0498 97.2121 48.0996 97.2587C48.1433 97.3036 48.1968 97.3379 48.2559 97.359C48.2559 97.359 48.2022 97.3123 48.1252 97.233C48.0813 97.1843 48.0415 97.132 48.0062 97.0767C47.9689 97.023 47.9386 96.9227 48.0062 96.9087C48.0739 96.8947 48.1416 96.9624 48.1859 97.0137C48.2256 97.0636 48.2535 97.1218 48.2675 97.184C48.2796 97.2424 48.2858 97.3017 48.2862 97.3613Z" fill="#263238"/>
<path d="M43.7953 97.2704C43.7953 97.2704 43.9143 97.2541 44.1032 97.2704C44.348 97.2877 44.583 97.3737 44.7811 97.5186C44.9792 97.6634 45.1324 97.8612 45.2231 98.0893C45.2931 98.2642 45.3047 98.3832 45.3141 98.3809C45.3182 98.353 45.3182 98.3247 45.3141 98.2969C45.3028 98.2223 45.2848 98.1489 45.2604 98.0776C45.1757 97.8373 45.0204 97.6282 44.8146 97.4779C44.6089 97.3276 44.3626 97.243 44.1079 97.2354C44.0299 97.2324 43.9517 97.237 43.8746 97.2494C43.8474 97.253 43.8207 97.2601 43.7953 97.2704Z" fill="#263238"/>
<path d="M45.825 97.9773C46.0247 98.0161 46.2287 98.0279 46.4315 98.0123C46.6346 98.0137 46.8369 97.9886 47.0334 97.9376C47.0334 97.9236 46.7628 97.9516 46.4292 97.961C46.0956 97.9703 45.825 97.9633 45.825 97.9773Z" fill="#263238"/>
<path d="M45.0129 98.0099C45.0129 98.0099 45.0363 98.0659 45.0666 98.1266C45.0969 98.1872 45.1156 98.2432 45.1296 98.2409C45.1436 98.2386 45.1483 98.1756 45.1133 98.1056C45.0783 98.0356 45.0223 97.9983 45.0129 98.0099Z" fill="#263238"/>
<path d="M44.691 97.6343C44.691 97.646 44.7097 97.688 44.754 97.73C44.7984 97.772 44.8427 97.7953 44.852 97.786C44.8613 97.7766 44.8334 97.7346 44.789 97.6926C44.7447 97.6506 44.7004 97.6343 44.691 97.6343Z" fill="#263238"/>
<path d="M44.2478 97.4873C44.2478 97.5013 44.3061 97.4873 44.3668 97.5177C44.4275 97.548 44.4741 97.5667 44.4834 97.5573C44.4928 97.548 44.4578 97.4897 44.3808 97.4687C44.3038 97.4477 44.2431 97.4733 44.2478 97.4873Z" fill="#263238"/>
<path d="M43.9329 97.4174C43.9329 97.4314 43.9515 97.45 43.9865 97.464C44.0215 97.478 44.0542 97.464 44.0588 97.464C44.0635 97.464 44.0378 97.429 44.0029 97.4174C43.9679 97.4057 43.9375 97.401 43.9329 97.4174Z" fill="#263238"/>
<path d="M38.6277 97.8676L38.8167 97.4687L35.0699 95.6606L34.4283 96.9694L34.6616 97.0977C35.6625 97.653 39.7942 99.853 40.5781 99.979C41.4483 100.117 38.6277 97.8676 38.6277 97.8676Z" fill="#512B58"/>
<path d="M39.9785 99.0201C39.9785 99.0201 40.9327 99.8787 40.7064 99.9953C40.4801 100.112 36.2247 98.0426 34.4283 96.9624L34.475 96.8831L39.4163 99.3351C39.4163 99.3351 39.7569 98.9245 39.9785 99.0201Z" fill="#455A64"/>
<path d="M35.7931 97.5946C35.8905 97.2532 35.859 96.8878 35.7044 96.5681C35.5545 96.2503 35.2905 96.0004 34.9649 95.8682L34.4586 96.9087L35.7931 97.5946Z" fill="#455A64"/>
<path d="M34.4189 96.8551C34.4189 96.8551 34.4376 96.8714 34.4796 96.8948L34.6569 96.9951L35.3195 97.352C35.8817 97.6506 36.6633 98.0519 37.5358 98.4789C38.4083 98.9058 39.2086 99.2721 39.7895 99.5287L40.4894 99.8297L40.6783 99.909L40.746 99.9323L40.683 99.8996L40.4964 99.8133L39.8035 99.5007C39.2272 99.2347 38.4317 98.8638 37.5591 98.4392C36.6866 98.0146 35.9027 97.6157 35.3358 97.3264L34.6662 96.9834L34.4843 96.8901L34.4189 96.8551Z" fill="#263238"/>
<path d="M39.386 99.398C39.5447 99.1902 39.7721 99.0455 40.0276 98.9897C39.8909 98.9745 39.7535 99.0111 39.6426 99.0924C39.5231 99.1601 39.432 99.2686 39.386 99.398Z" fill="#263238"/>
<path d="M38.5576 98.3062C38.5576 98.3179 38.6486 98.2782 38.7442 98.2199C38.8399 98.1616 38.9122 98.1032 38.9052 98.0916C38.8982 98.0799 38.8142 98.1172 38.7186 98.1779C38.6229 98.2386 38.5506 98.2945 38.5576 98.3062Z" fill="#263238"/>
<path d="M38.3337 98.0006C38.3932 98.0076 38.4536 97.9987 38.5086 97.9749C38.5996 97.9493 38.672 97.9166 38.6673 97.9026C38.6085 97.8956 38.5489 97.9044 38.4947 97.9283C38.4013 97.9539 38.3313 97.9866 38.3337 98.0006Z" fill="#263238"/>
<path d="M38.3149 97.555C38.3149 97.569 38.3896 97.6203 38.4969 97.674C38.559 97.7137 38.6291 97.7392 38.7022 97.7486C38.6502 97.6971 38.5883 97.6566 38.5202 97.6296C38.458 97.5903 38.388 97.5648 38.3149 97.555Z" fill="#263238"/>
<path d="M38.3687 97.275C38.3687 97.275 38.434 97.373 38.5553 97.4453C38.6233 97.4943 38.7048 97.5212 38.7886 97.5223C38.6457 97.4422 38.5042 97.3598 38.364 97.275H38.3687Z" fill="#263238"/>
<path d="M38.8423 98.0426C38.9131 98.0935 38.992 98.1321 39.0756 98.1569C39.1674 98.1881 39.2619 98.2108 39.3579 98.2246C39.4155 98.2358 39.4743 98.2397 39.5328 98.2362C39.5696 98.2336 39.6038 98.2169 39.6285 98.1896C39.6399 98.1732 39.6461 98.1536 39.6461 98.1336C39.6461 98.1136 39.6399 98.094 39.6285 98.0776C39.5839 98.0198 39.5268 97.9728 39.4616 97.94C39.3963 97.9072 39.3246 97.8895 39.2516 97.8881C39.1786 97.8868 39.1062 97.9019 39.0398 97.9322C38.9734 97.9626 38.9147 98.0075 38.8679 98.0636C38.8399 98.0986 38.8283 98.1219 38.8306 98.1243C38.8909 98.0626 38.9611 98.0113 39.0383 97.9726C39.1237 97.9371 39.2174 97.9258 39.3089 97.94C39.418 97.9543 39.5171 98.0113 39.5842 98.0986C39.6075 98.1453 39.5725 98.1826 39.5165 98.1872C39.463 98.1931 39.409 98.1931 39.3555 98.1872C39.2617 98.1768 39.1689 98.1588 39.0779 98.1336C38.9379 98.0799 38.8469 98.0356 38.8423 98.0426Z" fill="#263238"/>
<path d="M38.8983 98.0846C38.8983 98.0846 38.966 98.0449 39.008 97.9306C39.0303 97.8646 39.0367 97.7943 39.0266 97.7253C39.0242 97.6798 39.0101 97.6356 38.9856 97.5972C38.961 97.5588 38.927 97.5274 38.8866 97.506C38.8735 97.5025 38.8597 97.5017 38.8462 97.5036C38.8327 97.5054 38.8197 97.51 38.808 97.5169C38.7963 97.5239 38.786 97.5331 38.7779 97.544C38.7698 97.555 38.7639 97.5674 38.7607 97.5807C38.7467 97.6211 38.7427 97.6643 38.749 97.7067C38.7541 97.7751 38.7682 97.8426 38.791 97.9073C38.8074 97.9679 38.8378 98.0238 38.8796 98.0706C38.8645 98.0112 38.8458 97.9528 38.8237 97.8956C38.8075 97.833 38.7974 97.7689 38.7933 97.7043C38.7933 97.6367 38.8073 97.5364 38.8726 97.555C38.938 97.5737 38.9683 97.667 38.9823 97.7323C38.9952 97.7947 38.9952 97.859 38.9823 97.9213C38.9595 97.9782 38.9313 98.0329 38.8983 98.0846Z" fill="#263238"/>
<path d="M34.9882 95.8729C34.9882 95.8729 35.1001 95.9149 35.2588 96.0176C35.4655 96.1495 35.6319 96.336 35.7394 96.5565C35.8435 96.7791 35.8846 97.026 35.8584 97.2704C35.8439 97.371 35.8236 97.4707 35.7977 97.569C35.7977 97.569 35.8164 97.5433 35.835 97.4943C35.8625 97.4228 35.8821 97.3485 35.8934 97.2727C35.9332 97.0213 35.8956 96.7636 35.7856 96.5341C35.6756 96.3045 35.4984 96.1138 35.2775 95.9872C35.2119 95.948 35.1422 95.916 35.0698 95.8916C35.0438 95.8809 35.0162 95.8746 34.9882 95.8729Z" fill="#263238"/>
<path d="M36.4392 97.4593C36.5981 97.586 36.7721 97.6926 36.9571 97.7766C37.1356 97.8731 37.3252 97.9476 37.5217 97.9982C37.5217 97.9842 37.2767 97.8816 36.9781 97.7323C36.6795 97.583 36.4462 97.4453 36.4392 97.4593Z" fill="#263238"/>
<path d="M35.7045 97.1024C35.6905 97.1024 35.7045 97.1631 35.7045 97.2307C35.7045 97.2984 35.6928 97.3544 35.7045 97.3614C35.7161 97.3684 35.7535 97.3124 35.7558 97.2331C35.7581 97.1537 35.7231 97.0977 35.7045 97.1024Z" fill="#263238"/>
<path d="M35.6018 96.6265C35.5878 96.6265 35.6018 96.6801 35.6135 96.7384C35.6251 96.7968 35.6578 96.8411 35.6718 96.8364C35.6858 96.8318 35.6718 96.7804 35.6601 96.7221C35.6485 96.6638 35.6135 96.6218 35.6018 96.6265Z" fill="#263238"/>
<path d="M35.2845 96.2789C35.2845 96.2929 35.3289 96.3162 35.3755 96.3628C35.4222 96.4095 35.4455 96.4562 35.4595 96.4515C35.4735 96.4468 35.4595 96.3815 35.4105 96.3255C35.3615 96.2695 35.2845 96.2649 35.2845 96.2789Z" fill="#263238"/>
<path d="M35.0396 96.0689C35.0396 96.0689 35.0396 96.1062 35.0652 96.1342C35.0909 96.1622 35.1189 96.1762 35.1305 96.1669C35.1422 96.1575 35.1305 96.1272 35.1025 96.0992C35.0746 96.0712 35.0489 96.0596 35.0396 96.0689Z" fill="#263238"/>
</g>
<defs>
<clipPath id="clip0_246_10268">
<rect width="75.6" height="96" fill="white" transform="translate(8.36658 4)"/>
</clipPath>
</defs>
</svg>
