<svg width="16" height="16" viewBox="0 0 16 16" fill="none" xmlns="http://www.w3.org/2000/svg">
<path d="M12.5 6.99997C12.5 10.5 8 13.5 8 13.5C8 13.5 3.5 10.5 3.5 6.99997C3.5 5.8065 3.97411 4.6619 4.81802 3.81799C5.66193 2.97408 6.80653 2.49997 8 2.49997C9.19347 2.49997 10.3381 2.97408 11.182 3.81799C12.0259 4.6619 12.5 5.8065 12.5 6.99997Z" stroke="#4D5761" stroke-linecap="round" stroke-linejoin="round"/>
<path d="M8 8.49997C8.82843 8.49997 9.5 7.8284 9.5 6.99997C9.5 6.17154 8.82843 5.49997 8 5.49997C7.17157 5.49997 6.5 6.17154 6.5 6.99997C6.5 7.8284 7.17157 8.49997 8 8.49997Z" stroke="#4D5761" stroke-linecap="round" stroke-linejoin="round"/>
</svg>
