<svg width="91" height="104" viewBox="0 0 91 104" fill="none" xmlns="http://www.w3.org/2000/svg">
<circle cx="47" cy="55" r="37" fill="#79BAC1"/>
<g clip-path="url(#clip0_58_438)">
<path d="M52.6498 34.7448L52.824 34.8922C52.8883 34.9485 52.9607 35.0021 53.0304 35.0557C53.1697 35.1656 53.2984 35.2755 53.4592 35.3801C53.7487 35.5918 54.057 35.7848 54.3652 35.9778C54.987 36.361 55.6386 36.6936 56.3138 36.9722C56.9861 37.2587 57.6787 37.4952 58.3858 37.6798C58.5627 37.7281 58.7449 37.7602 58.9218 37.8004L59.1899 37.8594C59.2462 37.8594 59.1899 37.8594 59.1899 37.8728C59.1533 37.8814 59.1188 37.8968 59.088 37.9184C59.0639 37.9425 59.0639 37.9425 59.0746 37.9371C59.1276 37.8586 59.1691 37.7728 59.1979 37.6825C59.293 37.3732 59.3515 37.0539 59.3721 36.731C59.4043 36.3798 59.415 36.0099 59.4124 35.6374C59.4124 34.8895 59.3534 34.1256 59.2944 33.359C59.2355 32.5925 59.1416 31.8232 59.0425 31.0512C58.9433 30.2793 58.8334 29.5073 58.7181 28.7461L59.726 28.5156C60.1699 30.0454 60.5278 31.5989 60.7981 33.1687C60.9385 33.9671 61.036 34.7723 61.0903 35.5811C61.1217 35.9984 61.1316 36.4171 61.1198 36.8355C61.116 37.2973 61.0575 37.7571 60.9455 38.2052C60.8698 38.4917 60.7466 38.7635 60.581 39.0093C60.4651 39.1768 60.3209 39.3229 60.1548 39.4408C59.9641 39.5771 59.7451 39.6687 59.5142 39.7089C59.3155 39.7424 59.1125 39.7424 58.9138 39.7089L58.6056 39.6579C58.3992 39.6231 58.1901 39.5963 57.9864 39.5507C57.1645 39.3875 56.3576 39.1562 55.574 38.8592C54.7907 38.5586 54.0332 38.1947 53.3091 37.771C52.9473 37.5538 52.5935 37.326 52.2504 37.0767C52.0788 36.9534 51.91 36.8087 51.7411 36.6908C51.658 36.6211 51.5749 36.5541 51.4918 36.479C51.4087 36.404 51.331 36.3423 51.2238 36.2405L52.6498 34.7448Z" fill="#E4897B"/>
<path d="M49.7362 33.5252C52.6846 33.1259 55.054 35.5033 55.054 35.5033L52.3576 39.6633C52.3576 39.6633 49.4681 37.8138 48.9589 36.5541C48.4335 35.2434 48.2271 33.7209 49.7362 33.5252Z" fill="#512B58"/>
<path opacity="0.6" d="M49.7362 33.5252C52.6846 33.1259 55.054 35.5033 55.054 35.5033L52.3576 39.6633C52.3576 39.6633 49.4681 37.8138 48.9589 36.5541C48.4335 35.2434 48.2271 33.7209 49.7362 33.5252Z" fill="#FAFAFA"/>
<path d="M58.7423 29.108L57.7639 27.1459L60.329 27.1245C60.329 27.1245 60.38 28.4942 59.7313 29.2688L58.7423 29.108Z" fill="#E4897B"/>
<path d="M58.2196 25.0365L60.128 25.3769L60.329 27.1245L57.7639 27.1459L58.2196 25.0365Z" fill="#E4897B"/>
<path d="M39.3095 98.2833L41.7111 98.5138L43.3729 92.8743L40.9713 92.6411L39.3095 98.2833Z" fill="#E4897B"/>
<path d="M24.0393 89.9419L25.8191 91.6145L29.6628 87.3902L27.883 85.7177L24.0393 89.9419Z" fill="#E4897B"/>
<path d="M26.642 90.8131L25.3018 88.4007C25.279 88.3593 25.2421 88.3276 25.1977 88.3113C25.1534 88.2951 25.1047 88.2954 25.0606 88.3123L22.9994 89.0949C22.9483 89.1168 22.9024 89.1492 22.8647 89.1899C22.8269 89.2306 22.7982 89.2788 22.7802 89.3314C22.7623 89.3839 22.7556 89.4397 22.7606 89.495C22.7655 89.5503 22.782 89.6039 22.809 89.6524C23.2888 90.4834 23.5649 90.8613 24.1492 91.9201C24.5111 92.5741 25.2214 94.0644 25.7173 94.9703C26.2131 95.8763 27.1325 95.4233 27.0065 95.0052C26.4329 93.1289 26.5428 92.0755 26.7036 91.2526C26.7359 91.1034 26.714 90.9476 26.642 90.8131Z" fill="#263238"/>
<path d="M41.9925 97.7821H39.0816C39.0296 97.7826 38.9791 97.8002 38.9379 97.8322C38.8968 97.8641 38.8673 97.9087 38.8538 97.959L38.2185 100.261C38.2036 100.316 38.2015 100.373 38.2125 100.429C38.2234 100.484 38.2471 100.536 38.2817 100.581C38.3163 100.626 38.3608 100.662 38.4117 100.686C38.4626 100.711 38.5185 100.723 38.575 100.722C39.6016 100.722 40.0868 100.722 41.368 100.722H45.2787C46.3508 100.722 46.5653 99.6503 46.1257 99.5484C44.1529 99.1142 43.0138 98.5111 42.4053 97.9402C42.2925 97.8374 42.1451 97.7809 41.9925 97.7821Z" fill="#263238"/>
<path d="M43.373 92.8743L42.5152 95.7825H40.0439L40.9686 92.6438L43.373 92.8743Z" fill="#CE6F64"/>
<path d="M27.8803 85.7203L29.6628 87.3902L27.6793 89.5667L25.8995 87.8968L27.8803 85.7203Z" fill="#CE6F64"/>
<path d="M52.6417 31.8607C52.6229 29.9121 50.8592 29.2313 50.8592 29.2313C50.8592 29.2313 53.0652 25.0552 51.9314 22.2837C50.7976 19.5122 47.0611 19.0244 45.8764 20.319C43.7938 20.2305 43.1317 23.2218 43.1317 23.2218C43.1317 23.2218 41.3894 23.514 40.9204 24.7818C40.4513 26.0496 41.88 27.4783 41.88 27.4783C41.88 27.4783 39.8911 27.7463 39.1594 29.2768C38.4276 30.8073 38.8779 32.839 41.0758 34.592C44.2709 37.1384 50.1436 33.9434 50.1436 33.9434C50.1436 33.9434 52.6631 34.1015 52.6417 31.8607Z" fill="#263238"/>
<path d="M52.2638 33.7986C52.2638 33.7986 53.3359 34.2677 49.7549 48.4121L39.8375 47.5517C40.3522 43.5311 40.5746 41.033 39.3604 32.5737C40.7754 32.4064 42.2007 32.3428 43.6249 32.3834C45.135 32.4061 46.6416 32.536 48.1333 32.772C49.5264 33.045 50.905 33.3877 52.2638 33.7986Z" fill="#512B58"/>
<path opacity="0.6" d="M52.2638 33.7986C52.2638 33.7986 53.3359 34.2677 49.7549 48.4121L39.8375 47.5517C40.3522 43.5311 40.5746 41.033 39.3604 32.5737C40.7754 32.4064 42.2007 32.3428 43.6249 32.3834C45.135 32.4061 46.6416 32.536 48.1333 32.772C49.5264 33.045 50.905 33.3877 52.2638 33.7986Z" fill="#FAFAFA"/>
<path d="M49.6933 33.1071C49.1787 32.9838 48.6211 32.8659 48.1119 32.772C46.6202 32.5351 45.1136 32.4043 43.6035 32.3807C43.0861 32.3619 42.5688 32.3619 42.0837 32.3807L42.416 33.0133C42.475 33.1258 43.8903 35.766 46.5787 37.2644L47.3185 37.6771L48.0073 37.1866C49.7442 35.9456 50.0015 34.332 49.6933 33.1071Z" fill="#FAFAFA"/>
<path d="M44.4907 27.3443C44.6488 28.8212 44.7024 31.5042 43.6061 32.3834C43.6061 32.3834 44.8606 34.7662 47.2354 36.0877C49.3368 34.592 48.1145 32.772 48.1145 32.772C46.5304 32.236 46.6752 31.0512 47.0424 29.9469L44.4907 27.3443Z" fill="#E4897B"/>
<path d="M45.5333 28.4057L47.0504 29.9469C46.958 30.203 46.8881 30.4667 46.8414 30.735C46.2329 30.5929 45.3484 29.9576 45.3377 29.3036C45.3499 28.9952 45.4161 28.6913 45.5333 28.4057Z" fill="#CE6F64"/>
<path d="M44.4263 23.9938C44.1342 26.4061 43.9599 27.4274 44.9436 28.8774C46.4232 31.0539 49.4574 30.8824 50.4625 28.6094C51.3685 26.5562 51.6928 22.9484 49.5244 21.568C49.049 21.262 48.5033 21.0825 47.939 21.0464C47.3748 21.0103 46.8107 21.1188 46.3001 21.3618C45.7896 21.6047 45.3495 21.9739 45.0216 22.4345C44.6937 22.8952 44.4888 23.4319 44.4263 23.9938Z" fill="#E4897B"/>
<path d="M46.2972 21.0212C48.1601 21.5037 46.3187 27.17 43.3488 25.527C43.3488 25.527 43.4828 23.1334 44.3084 22.1175C44.8077 21.5123 45.5189 21.1202 46.2972 21.0212Z" fill="#263238"/>
<path d="M46.0989 21.3348C46.903 22.6429 52.8669 25.1222 50.8619 22.3078C48.857 19.4934 46.0989 21.3348 46.0989 21.3348Z" fill="#263238"/>
<path d="M43.6597 26.0818C43.6263 26.5518 43.7794 27.016 44.0859 27.3738C44.4987 27.8428 45.0428 27.5587 45.2144 26.9905C45.3671 26.4812 45.3377 25.6235 44.7882 25.3608C44.6669 25.3073 44.5343 25.2846 44.4022 25.2948C44.27 25.3049 44.1424 25.3476 44.0308 25.4189C43.9191 25.4903 43.8268 25.5881 43.762 25.7038C43.6973 25.8194 43.6622 25.9493 43.6597 26.0818Z" fill="#E4897B"/>
<path d="M49.7442 48.4121C49.7442 48.4121 53.1027 63.2721 50.8619 73.7471C49.3609 80.7643 43.9439 94.9382 43.9439 94.9382L39.7089 94.8309C39.7089 94.8309 43.8072 79.9548 44.6568 74.1062C46.1069 64.0977 42.475 47.7822 42.475 47.7822L49.7442 48.4121Z" fill="#263238"/>
<path d="M45.8711 51.4114L43.7536 54.7512C44.3918 58.7115 44.7963 62.7059 44.9651 66.7137C47.943 61.3824 46.5331 54.2339 45.8711 51.4114Z" fill="#263238"/>
<path d="M44.2923 95.1579L39.0602 95.0239L39.3631 93.4184L45.075 93.6891L44.2923 95.1579Z" fill="#512B58"/>
<path opacity="0.6" d="M44.2923 95.1579L39.0602 95.0239L39.3631 93.4184L45.075 93.6891L44.2923 95.1579Z" fill="#FAFAFA"/>
<path d="M47.5731 48.2513C47.5731 48.2513 45.603 64.0119 41.3305 72.6159C37.8808 79.5555 28.6764 89.4729 28.6764 89.4729L26.323 87.0471C26.323 87.0471 32.5415 76.2961 35.1066 71.6778C41.3948 60.3586 36.2538 51.7224 39.8188 47.5544L47.5731 48.2513Z" fill="#263238"/>
<path d="M28.9123 89.7838L25.8727 86.822L26.8832 85.4496L30.1935 88.8725L28.9123 89.7838Z" fill="#512B58"/>
<path opacity="0.6" d="M28.9123 89.7838L25.8727 86.822L26.8832 85.4496L30.1935 88.8725L28.9123 89.7838Z" fill="#FAFAFA"/>
<path d="M39.7169 46.9566L39.1943 47.8063C39.1514 47.8733 39.2291 47.9511 39.3417 47.9591L49.755 48.8597C49.8461 48.8597 49.9238 48.8302 49.9345 48.7739L50.1007 47.8948C50.1007 47.8331 50.0391 47.7741 49.9399 47.7661L39.8858 46.895C39.8547 46.8898 39.8228 46.8927 39.7932 46.9035C39.7636 46.9143 39.7373 46.9326 39.7169 46.9566Z" fill="#512B58"/>
<path opacity="0.3" d="M39.7169 46.9566L39.1943 47.8063C39.1514 47.8733 39.2291 47.9511 39.3417 47.9591L49.755 48.8597C49.8461 48.8597 49.9238 48.8302 49.9345 48.7739L50.1007 47.8948C50.1007 47.8331 50.0391 47.7741 49.9399 47.7661L39.8858 46.895C39.8547 46.8898 39.8228 46.8927 39.7932 46.9035C39.7636 46.9143 39.7373 46.9326 39.7169 46.9566Z" fill="black"/>
<path d="M40.9713 48.195L40.7033 48.1709C40.6497 48.1709 40.6122 48.136 40.6175 48.1012L40.8453 46.9593C40.8453 46.9245 40.9016 46.9004 40.9552 46.9057L41.2233 46.9298C41.2769 46.9298 41.3144 46.9647 41.3091 46.9995L41.0839 48.1414C41.0732 48.1789 41.0249 48.195 40.9713 48.195Z" fill="#263238"/>
<path d="M48.991 48.8919L48.723 48.8677C48.6694 48.8677 48.6319 48.8329 48.6372 48.7981L48.8651 47.6535C48.8651 47.6214 48.9214 47.5972 48.975 47.6026L49.243 47.6267C49.2966 47.6267 49.3341 47.6616 49.3288 47.6937L49.1036 48.8383C49.0929 48.8731 49.0473 48.8945 48.991 48.8919Z" fill="#263238"/>
<path d="M44.9812 48.5434L44.7131 48.522C44.6595 48.522 44.622 48.4845 44.6273 48.4523L44.8552 47.3078C44.8552 47.2756 44.9115 47.2515 44.9651 47.2568L45.2331 47.2783C45.2867 47.2783 45.3242 47.3158 45.3189 47.348L45.0937 48.4925C45.083 48.5247 45.0267 48.5488 44.9812 48.5434Z" fill="#263238"/>
<path d="M47.9296 25.3259C47.8947 25.5189 47.9698 25.6958 48.0958 25.72C48.2218 25.7441 48.3638 25.6047 48.3906 25.409C48.4174 25.2134 48.3531 25.0365 48.2244 25.015C48.0958 24.9936 47.9752 25.1437 47.9296 25.3259Z" fill="#263238"/>
<path d="M50.1195 25.728C50.0846 25.921 50.1597 26.0979 50.2857 26.122C50.4116 26.1461 50.5537 26.0068 50.5805 25.8111C50.6073 25.6154 50.543 25.4385 50.4143 25.4171C50.2857 25.3956 50.1677 25.5323 50.1195 25.728Z" fill="#263238"/>
<path d="M50.3687 25.4117L50.8593 25.3635C50.8593 25.3635 50.5537 25.6797 50.3687 25.4117Z" fill="#263238"/>
<path d="M49.4869 25.9478C49.5806 26.4235 49.7384 26.8842 49.956 27.3175C49.8435 27.3699 49.7209 27.3971 49.5968 27.3971C49.4727 27.3971 49.3501 27.3699 49.2376 27.3175L49.4869 25.9478Z" fill="#DE5753"/>
<path d="M48.4228 27.9608C48.1613 27.9202 47.9133 27.8175 47.6996 27.6613C47.486 27.505 47.313 27.2998 47.1952 27.0628C47.1908 27.0511 47.1911 27.0381 47.1961 27.0266C47.2011 27.0151 47.2104 27.006 47.222 27.0012C47.2276 26.9985 47.2337 26.9971 47.2399 26.9969C47.2461 26.9967 47.2522 26.9977 47.258 27C47.2638 27.0022 47.269 27.0056 47.2734 27.01C47.2778 27.0144 47.2813 27.0196 47.2836 27.0253C47.3966 27.2462 47.5601 27.4373 47.7608 27.5831C47.9616 27.7289 48.1939 27.8252 48.4389 27.8643C48.4517 27.8643 48.4639 27.8694 48.473 27.8784C48.482 27.8874 48.4871 27.8997 48.4871 27.9125C48.4871 27.9253 48.482 27.9376 48.473 27.9466C48.4639 27.9557 48.4517 27.9608 48.4389 27.9608H48.4228Z" fill="#263238"/>
<path d="M47.4069 23.8035C47.3865 23.8039 47.3664 23.7977 47.3496 23.7859C47.3329 23.7742 47.3203 23.7573 47.3137 23.7379C47.3071 23.7185 47.3069 23.6975 47.3131 23.678C47.3192 23.6585 47.3315 23.6414 47.348 23.6293C47.4892 23.5155 47.6557 23.4374 47.8334 23.4015C48.0111 23.3656 48.1949 23.3729 48.3692 23.4229C48.3812 23.4271 48.3922 23.4336 48.4016 23.4421C48.4111 23.4506 48.4188 23.4608 48.4243 23.4723C48.4297 23.4837 48.4329 23.4962 48.4336 23.5088C48.4342 23.5215 48.4324 23.5342 48.4282 23.5462C48.424 23.5581 48.4174 23.5692 48.4089 23.5786C48.4005 23.5881 48.3902 23.5958 48.3788 23.6012C48.3673 23.6067 48.3549 23.6099 48.3422 23.6106C48.3295 23.6112 48.3168 23.6094 48.3049 23.6051C48.161 23.5656 48.0099 23.561 47.8639 23.5918C47.718 23.6226 47.5815 23.6878 47.4659 23.782C47.4488 23.7949 47.4283 23.8024 47.4069 23.8035Z" fill="#263238"/>
<path d="M51.3739 24.9882C51.3596 24.9881 51.3455 24.985 51.3325 24.979C51.3196 24.973 51.3081 24.9642 51.2988 24.9534C51.2073 24.8353 51.0892 24.7405 50.9541 24.6767C50.8191 24.6129 50.6708 24.5818 50.5215 24.5861C50.496 24.5884 50.4706 24.5808 50.4506 24.5648C50.4307 24.5488 50.4176 24.5257 50.4143 24.5004C50.4128 24.4878 50.4139 24.4751 50.4174 24.463C50.421 24.4509 50.4269 24.4396 50.4349 24.4299C50.4429 24.4201 50.4528 24.4121 50.464 24.4062C50.4752 24.4004 50.4875 24.3968 50.5001 24.3958C50.6815 24.3865 50.8625 24.4211 51.0277 24.4967C51.1929 24.5723 51.3374 24.6867 51.4489 24.8301C51.4664 24.8485 51.4762 24.873 51.4762 24.8984C51.4762 24.9239 51.4664 24.9483 51.4489 24.9668C51.4275 24.9831 51.4007 24.9907 51.3739 24.9882Z" fill="#263238"/>
<path d="M40.0921 36.1332C39.689 36.9331 39.2416 37.7098 38.7519 38.4598C38.2695 39.1996 37.7602 39.9233 37.2107 40.6202C36.6555 41.3196 36.0604 41.9863 35.4283 42.6171C35.1013 42.9253 34.7823 43.2389 34.4312 43.5284L34.1631 43.7482L34.0988 43.8018L34.013 43.8688C33.9565 43.9149 33.8974 43.9579 33.8361 43.9975C33.5924 44.1644 33.3274 44.2979 33.0481 44.3942C32.5221 44.5657 31.9664 44.6268 31.4157 44.5738C30.9225 44.5244 30.4367 44.4174 29.9683 44.2548C29.1008 43.9521 28.2735 43.5443 27.5051 43.0406C26.0265 42.0815 24.6646 40.9535 23.447 39.6794L24.1599 38.9315C24.8006 39.4462 25.476 39.9581 26.1675 40.4218C26.8449 40.8963 27.5502 41.3295 28.2797 41.7191C28.9742 42.1007 29.7074 42.4071 30.4669 42.6332C31.1906 42.8342 31.917 42.869 32.4182 42.66C32.7014 42.5368 32.9547 42.354 33.1607 42.1239C33.4582 41.8558 33.7343 41.5583 34.0157 41.2688C34.5652 40.6711 35.0745 40.0305 35.5757 39.3926C36.0769 38.7546 36.5299 38.0524 36.9695 37.3555C37.192 37.007 37.4037 36.6532 37.6128 36.2994C37.8219 35.9456 38.0229 35.573 38.1971 35.2407L40.0921 36.1332Z" fill="#E4897B"/>
<path d="M24.8381 39.2505L23.8839 37.2778L22.2971 39.2934C22.2971 39.2934 23.3478 40.1699 24.369 40.1377L24.8381 39.2505Z" fill="#E4897B"/>
<path d="M22.8412 36.7015L21.9433 38.4196L22.2971 39.2934L23.8839 37.2778L22.8412 36.7015Z" fill="#E4897B"/>
<path d="M39.339 32.5737C38.1221 32.7881 36.4147 36.2807 36.4147 36.2807L39.7571 39.3015C39.7571 39.3015 41.9229 36.3932 41.7942 34.8065C41.6843 33.4529 40.8882 32.3003 39.339 32.5737Z" fill="#512B58"/>
<path opacity="0.6" d="M39.339 32.5737C38.1221 32.7881 36.4147 36.2807 36.4147 36.2807L39.7571 39.3015C39.7571 39.3015 41.9229 36.3932 41.7942 34.8065C41.6843 33.4529 40.8882 32.3003 39.339 32.5737Z" fill="#FAFAFA"/>
<path d="M27.1111 92.1077C27.0791 92.1079 27.0473 92.1025 27.0173 92.0916C26.7251 91.9951 26.5348 91.4563 26.4463 91.1427C26.4437 91.1336 26.4438 91.1239 26.4467 91.1148C26.4496 91.1058 26.455 91.0978 26.4624 91.0918C26.4706 91.0871 26.4798 91.0846 26.4892 91.0846C26.4986 91.0846 26.5079 91.0871 26.516 91.0918C26.6045 91.1374 27.3818 91.5555 27.4059 91.8611C27.4096 91.8946 27.4037 91.9284 27.389 91.9588C27.3743 91.9891 27.3514 92.0147 27.3228 92.0326C27.2625 92.0803 27.188 92.1067 27.1111 92.1077ZM26.575 91.2285C26.709 91.66 26.8832 91.9442 27.0494 92.0005C27.0873 92.0118 27.1275 92.013 27.1661 92.0041C27.2046 91.9952 27.2402 91.9764 27.2692 91.9495C27.2839 91.9409 27.2957 91.9282 27.3033 91.913C27.3109 91.8977 27.314 91.8807 27.3121 91.8638C27.296 91.6761 26.8404 91.3786 26.5723 91.2285H26.575Z" fill="#512B58"/>
<path d="M27.2317 91.3491C26.9667 91.3481 26.7054 91.2867 26.4678 91.1695C26.4603 91.1659 26.454 91.1602 26.4497 91.153C26.4454 91.1459 26.4433 91.1377 26.4436 91.1293C26.4437 91.1204 26.4462 91.1117 26.451 91.1041C26.4557 91.0965 26.4624 91.0904 26.4704 91.0865C26.4946 91.0865 27.111 90.7353 27.4434 90.8533C27.4843 90.8666 27.5217 90.8889 27.5527 90.9186C27.5838 90.9483 27.6078 90.9846 27.623 91.0248C27.6442 91.0635 27.6515 91.1082 27.6437 91.1517C27.6359 91.1951 27.6134 91.2345 27.5801 91.2634C27.4764 91.3292 27.3541 91.3593 27.2317 91.3491ZM26.5991 91.1293C26.8671 91.2419 27.3737 91.3116 27.5185 91.1883C27.5426 91.1695 27.564 91.1347 27.5346 91.0597C27.5239 91.0325 27.5073 91.008 27.486 90.988C27.4646 90.9681 27.4391 90.9532 27.4113 90.9444C27.1834 90.864 26.7733 91.0436 26.5991 91.1293Z" fill="#512B58"/>
<path d="M43.2845 98.2538C43.0137 98.2476 42.7442 98.2135 42.4804 98.1519C42.4704 98.1497 42.4614 98.1443 42.4546 98.1366C42.4479 98.1289 42.4438 98.1193 42.4429 98.1091C42.4415 98.0992 42.4433 98.0891 42.4481 98.0804C42.453 98.0717 42.4606 98.0648 42.4697 98.0608C42.5903 98.0045 43.6437 97.5247 43.9117 97.6963C43.9356 97.7128 43.9547 97.7355 43.967 97.7619C43.9792 97.7883 43.9842 97.8174 43.9814 97.8464C43.9782 97.8989 43.9636 97.9501 43.9386 97.9964C43.9136 98.0427 43.8788 98.083 43.8367 98.1144C43.6708 98.2154 43.4784 98.264 43.2845 98.2538ZM42.6573 98.0876C42.9709 98.1466 43.5499 98.2216 43.7884 98.0421C43.82 98.0185 43.8459 97.9882 43.8645 97.9535C43.883 97.9188 43.8936 97.8804 43.8956 97.841C43.8972 97.8289 43.8956 97.8166 43.8909 97.8053C43.8862 97.794 43.8786 97.7841 43.8688 97.7767C43.7187 97.6748 43.0942 97.8946 42.6573 98.0876Z" fill="#512B58"/>
<path d="M42.5018 98.152C42.4915 98.1561 42.48 98.1561 42.4697 98.152C42.463 98.146 42.458 98.1384 42.4552 98.13C42.4524 98.1215 42.4518 98.1125 42.4536 98.1037C42.4536 98.0608 42.7056 97.0181 43.2765 97.0852C43.4212 97.1012 43.4587 97.1736 43.4668 97.2299C43.5043 97.4979 42.8369 98.034 42.5206 98.16L42.5018 98.152ZM43.2256 97.1682C42.8583 97.1682 42.6466 97.774 42.5742 98.0179C42.92 97.8357 43.3944 97.4014 43.3783 97.2326C43.3783 97.2192 43.3783 97.1817 43.2738 97.1709L43.2256 97.1682Z" fill="#512B58"/>
<path d="M48.1682 25.015L48.6587 24.9641C48.6587 24.9641 48.3531 25.2857 48.1682 25.015Z" fill="#263238"/>
<path opacity="0.6" d="M28.0036 9.73952L20.1474 60.5247L64.3523 67.3543L72.2085 16.5665L28.0036 9.73952ZM46.1659 38.626C44.1369 38.312 42.2466 37.4032 40.7343 36.0146C39.2219 34.6261 38.1553 32.8201 37.6695 30.8253C37.1837 28.8304 37.3005 26.7363 38.0052 24.8079C38.7098 22.8794 39.9706 21.2033 41.628 19.9915C43.2854 18.7798 45.265 18.0869 47.3164 18.0004C49.3677 17.914 51.3986 18.4379 53.1521 19.506C54.9056 20.574 56.3029 22.1382 57.1672 24.0005C58.0316 25.8628 58.3241 27.9397 58.0078 29.9684C57.5841 32.6861 56.0989 35.1245 53.8785 36.7478C51.6581 38.3712 48.8841 39.0467 46.1659 38.626Z" fill="#512B58"/>
<g style="mix-blend-mode:multiply" opacity="0.3">
<path d="M63.0175 65.4272H62.9505L18.6786 58.5681V58.501L26.5562 7.65686H26.6206L70.8924 14.516V14.583L63.0175 65.4272ZM18.8314 58.4582L62.9049 65.2744L70.7397 14.6151L26.6661 7.80964L18.8314 58.4582Z" fill="#512B58"/>
</g>
<path d="M47.7581 39.1514C47.2043 39.1507 46.6515 39.1077 46.1043 39.0227C43.3545 38.5937 40.8777 37.1164 39.1937 34.9007C37.5096 32.685 36.7491 29.9032 37.0718 27.1389C37.3944 24.3746 38.7752 21.8427 40.9243 20.0745C43.0734 18.3063 45.8238 17.4391 48.5985 17.6549C51.3732 17.8708 53.9564 19.1529 55.8062 21.2322C57.656 23.3116 58.6285 26.0265 58.5198 28.8075C58.4111 31.5884 57.2295 34.2191 55.223 36.1477C53.2166 38.0763 50.5411 39.1528 47.7581 39.1514ZM46.2276 38.2293C48.1769 38.5305 50.1717 38.2469 51.9599 37.4144C53.748 36.5819 55.2492 35.2379 56.2736 33.5523C57.298 31.8668 57.7996 29.9153 57.7149 27.9447C57.6303 25.974 56.9633 24.0728 55.7982 22.4812C54.6331 20.8896 53.0222 19.6793 51.1693 19.0031C49.3164 18.327 47.3046 18.2154 45.3882 18.6826C43.4719 19.1498 41.7371 20.1746 40.4032 21.6276C39.0693 23.0806 38.1962 24.8965 37.8943 26.8457C37.4929 29.4599 38.1448 32.1265 39.7071 34.2606C41.2694 36.3947 43.6143 37.822 46.2276 38.2293Z" fill="#FAFAFA"/>
<path d="M37.6271 41.768L27.8897 40.2623L27.5514 42.4503L37.2887 43.956L37.6271 41.768Z" fill="#512B58"/>
<path opacity="0.6" d="M37.6271 41.768L27.8897 40.2623L27.5514 42.4503L37.2887 43.956L37.6271 41.768Z" fill="#FAFAFA"/>
<path d="M45.4975 42.9854L38.9097 41.9667L38.5714 44.1547L45.1592 45.1734L45.4975 42.9854Z" fill="#512B58"/>
<path opacity="0.6" d="M45.4975 42.9854L38.9097 41.9667L38.5714 44.1547L45.1592 45.1734L45.4975 42.9854Z" fill="#FAFAFA"/>
<path d="M62.4143 50.1407L27.2025 44.696L26.8642 46.8839L62.076 52.3287L62.4143 50.1407Z" fill="#FAFAFA"/>
<path d="M44.2798 51.9794L26.7396 49.3218L26.4075 51.5136L43.9477 54.1712L44.2798 51.9794Z" fill="#FAFAFA"/>
<path d="M58.7031 54.3304L46.9897 52.5192L46.6514 54.7072L58.3648 56.5184L58.7031 54.3304Z" fill="#FAFAFA"/>
<path d="M53.915 58.3551L25.7651 54.0023L25.4267 56.1903L53.5766 60.5431L53.915 58.3551Z" fill="#FAFAFA"/>
<path d="M72.6802 67.3544H72.4122C72.4132 66.6892 72.3313 66.0265 72.1683 65.3816L72.4363 65.3173C72.6021 65.9835 72.684 66.6678 72.6802 67.3544ZM71.6295 63.8913C71.0397 62.657 70.1483 61.5913 69.0376 60.7928L69.1931 60.5757C70.3401 61.3993 71.2618 62.4979 71.8734 63.7707L71.6295 63.8913Z" fill="#512B58"/>
<path opacity="0.6" d="M72.6802 67.3544H72.4122C72.4132 66.6892 72.3313 66.0265 72.1683 65.3816L72.4363 65.3173C72.6021 65.9835 72.684 66.6678 72.6802 67.3544ZM71.6295 63.8913C71.0397 62.657 70.1483 61.5913 69.0376 60.7928L69.1931 60.5757C70.3401 61.3993 71.2618 62.4979 71.8734 63.7707L71.6295 63.8913Z" fill="#FAFAFA"/>
<path d="M64.3523 59.9645C62.8907 59.9645 61.462 60.3979 60.2467 61.2099C59.0315 62.022 58.0843 63.1761 57.525 64.5264C56.9657 65.8767 56.8193 67.3626 57.1045 68.796C57.3896 70.2295 58.0934 71.5463 59.1269 72.5797C60.1604 73.6132 61.4771 74.317 62.9106 74.6022C64.3441 74.8873 65.8299 74.741 67.1802 74.1817C68.5306 73.6223 69.6847 72.6752 70.4967 71.4599C71.3087 70.2447 71.7421 68.8159 71.7421 67.3544C71.7421 65.3945 70.9635 63.5148 69.5777 62.129C68.1918 60.7431 66.3122 59.9645 64.3523 59.9645ZM64.3523 73.7873C63.08 73.7873 61.8362 73.41 60.7783 72.7031C59.7205 71.9963 58.8959 70.9916 58.409 69.8161C57.9221 68.6407 57.7948 67.3472 58.043 66.0993C58.2912 64.8515 58.9039 63.7053 59.8035 62.8056C60.7032 61.9059 61.8494 61.2933 63.0973 61.045C64.3451 60.7968 65.6386 60.9242 66.814 61.4111C67.9895 61.898 68.9942 62.7225 69.7011 63.7804C70.4079 64.8383 70.7852 66.082 70.7852 67.3544C70.7852 69.0605 70.1074 70.6967 68.901 71.9031C67.6946 73.1095 66.0584 73.7873 64.3523 73.7873Z" fill="#512B58"/>
<path opacity="0.6" d="M64.3523 59.9645C62.8907 59.9645 61.462 60.3979 60.2467 61.2099C59.0315 62.022 58.0843 63.1761 57.525 64.5264C56.9657 65.8767 56.8193 67.3626 57.1045 68.796C57.3896 70.2295 58.0934 71.5463 59.1269 72.5797C60.1604 73.6132 61.4771 74.317 62.9106 74.6022C64.3441 74.8873 65.8299 74.741 67.1802 74.1817C68.5306 73.6223 69.6847 72.6752 70.4967 71.4599C71.3087 70.2447 71.7421 68.8159 71.7421 67.3544C71.7421 65.3945 70.9635 63.5148 69.5777 62.129C68.1918 60.7431 66.3122 59.9645 64.3523 59.9645ZM64.3523 73.7873C63.08 73.7873 61.8362 73.41 60.7783 72.7031C59.7205 71.9963 58.8959 70.9916 58.409 69.8161C57.9221 68.6407 57.7948 67.3472 58.043 66.0993C58.2912 64.8515 58.9039 63.7053 59.8035 62.8056C60.7032 61.9059 61.8494 61.2933 63.0973 61.045C64.3451 60.7968 65.6386 60.9242 66.814 61.4111C67.9895 61.898 68.9942 62.7225 69.7011 63.7804C70.4079 64.8383 70.7852 66.082 70.7852 67.3544C70.7852 69.0605 70.1074 70.6967 68.901 71.9031C67.6946 73.1095 66.0584 73.7873 64.3523 73.7873Z" fill="#FAFAFA"/>
<path d="M64.3523 73.7846C67.9036 73.7846 70.7825 70.9057 70.7825 67.3543C70.7825 63.803 67.9036 60.9241 64.3523 60.9241C60.801 60.9241 57.9221 63.803 57.9221 67.3543C57.9221 70.9057 60.801 73.7846 64.3523 73.7846Z" fill="#512B58"/>
<path opacity="0.2" d="M64.3523 73.7846C67.9036 73.7846 70.7825 70.9057 70.7825 67.3543C70.7825 63.803 67.9036 60.9241 64.3523 60.9241C60.801 60.9241 57.9221 63.803 57.9221 67.3543C57.9221 70.9057 60.801 73.7846 64.3523 73.7846Z" fill="black"/>
<path d="M63.3525 71.4232L59.5786 67.6492L60.5274 66.703L63.3525 69.5281L68.1799 64.7008L69.1261 65.6496L63.3525 71.4232Z" fill="#FAFAFA"/>
</g>
<defs>
<clipPath id="clip0_58_438">
<rect width="60.1749" height="97.5485" fill="white" transform="translate(15.4125 3.22576)"/>
</clipPath>
</defs>
</svg>
