<svg width="92" height="104" viewBox="0 0 92 104" fill="none" xmlns="http://www.w3.org/2000/svg">
<circle cx="47.6666" cy="55" r="37" fill="#79BAC1"/>
<g clip-path="url(#clip0_58_424)">
<path d="M58.4002 17.4704H12.3176L15.8985 79.6178H61.9786L58.4002 17.4704Z" fill="#263238"/>
<path d="M59.2954 17.4704H13.2129L16.7938 79.6178H62.8763L59.2954 17.4704Z" fill="#512B58"/>
<path opacity="0.5" d="M56.121 19.5595H15.3199L18.245 75.8149H60.1058L56.121 19.5595Z" fill="black"/>
<path d="M15.3199 19.5595C18.3522 38.3121 16.2725 57.0648 19.3098 75.8149H61.1656C58.1333 57.0648 60.213 38.3121 57.1758 19.5595H15.3199Z" fill="white"/>
<g opacity="0.3">
<path d="M23.8781 36.4157C24.8024 36.423 25.6887 36.7813 26.354 37.4168C27.0194 38.0522 27.4131 38.9163 27.454 39.8308C27.4726 40.2707 27.4006 40.7098 27.2424 41.1213C27.0842 41.5328 26.8431 41.9081 26.5338 42.2243C26.2245 42.5406 25.8534 42.7912 25.4431 42.9609C25.0328 43.1306 24.592 43.2159 24.1474 43.2114C23.2287 43.2039 22.3483 42.8466 21.6885 42.2135C21.0288 41.5804 20.6404 40.7201 20.6039 39.8111C20.5847 39.3725 20.655 38.9345 20.8105 38.5234C20.966 38.1123 21.2036 37.7364 21.5091 37.4182C21.8156 37.1029 22.1837 36.8527 22.5909 36.6829C22.9982 36.5131 23.4362 36.4272 23.8781 36.4305M23.8531 35.7168C23.3156 35.7135 22.7831 35.8188 22.2881 36.0262C21.7931 36.2336 21.346 36.5389 20.9742 36.9232C20.6024 37.3076 20.3136 37.7631 20.1256 38.2617C19.9376 38.7604 19.8543 39.2918 19.8808 39.8234C19.9243 40.9209 20.3928 41.9598 21.1891 42.7244C21.9853 43.489 23.0483 43.9207 24.1574 43.93C24.6973 43.9345 25.2326 43.8303 25.7307 43.6239C26.2288 43.4175 26.6794 43.113 27.0552 42.7291C27.431 42.3452 27.7243 41.8897 27.9171 41.3902C28.1099 40.8908 28.1984 40.3577 28.1771 39.8234C28.1236 38.7211 27.6455 37.6811 26.8412 36.9172C26.0369 36.1533 24.9675 35.7237 23.8531 35.7168Z" fill="#512B58"/>
</g>
<path d="M47.0216 67.2214H33.8053C33.7064 67.2197 33.6083 67.2389 33.5176 67.2778C33.4268 67.3166 33.3454 67.3742 33.2789 67.4466C33.2123 67.5191 33.1621 67.6047 33.1317 67.6979C33.1012 67.791 33.0911 67.8896 33.1021 67.9869C33.1262 68.1951 33.2256 68.3876 33.3819 68.5287C33.5382 68.6699 33.7409 68.7503 33.9524 68.7549H47.1687C47.2677 68.7567 47.3658 68.7374 47.4566 68.6984C47.5474 68.6594 47.6286 68.6015 47.6948 68.5286C47.761 68.4558 47.8106 68.3698 47.8403 68.2763C47.8701 68.1828 47.8791 68.0841 47.867 67.9869C47.8435 67.7796 47.7449 67.5878 47.5894 67.447C47.434 67.3062 47.2322 67.2261 47.0216 67.2214Z" fill="#E0E0E0"/>
<path d="M54.0911 63.9988H33.5385C33.439 63.9969 33.3403 64.0159 33.2488 64.0545C33.1573 64.0931 33.075 64.1504 33.0074 64.2227C32.9399 64.295 32.8885 64.3806 32.8567 64.474C32.8248 64.5673 32.8133 64.6662 32.8228 64.7643C32.8407 64.9718 32.9359 65.1653 33.0898 65.3072C33.2437 65.4492 33.4454 65.5294 33.6557 65.5323H54.1983C54.298 65.5351 54.397 65.517 54.4891 65.4792C54.5811 65.4414 54.664 65.3846 54.7324 65.3128C54.8007 65.2409 54.8529 65.1556 54.8855 65.0623C54.9181 64.969 54.9303 64.87 54.9215 64.7717C54.9053 64.5635 54.8112 64.3688 54.6576 64.2258C54.504 64.0829 54.3019 64.0019 54.0911 63.9988Z" fill="#E0E0E0"/>
<g opacity="0.3">
<path d="M24.2996 49.7084C25.2171 49.7149 26.0966 50.0724 26.7542 50.7061C27.4118 51.3398 27.7966 52.2007 27.8281 53.1088C27.8449 53.5484 27.7721 53.9869 27.614 54.398C27.4559 54.8091 27.2157 55.1845 26.9079 55.5016C26.5998 55.8176 26.2301 56.0681 25.8211 56.2379C25.4121 56.4077 24.9724 56.4933 24.529 56.4894C23.6092 56.4832 22.7272 56.1264 22.066 55.4933C21.4048 54.8601 21.0152 53.9991 20.978 53.089C20.9629 52.6488 21.0378 52.21 21.1982 51.7991C21.3585 51.3882 21.6011 51.0136 21.9114 50.6979C22.2216 50.3821 22.5931 50.1317 23.0034 49.9617C23.4138 49.7917 23.8547 49.7055 24.2996 49.7084ZM24.2996 48.9923C23.7592 48.989 23.2238 49.0938 22.7254 49.3004C22.227 49.5071 21.7759 49.8113 21.3991 50.1948C21.0223 50.5783 20.7276 51.0332 20.5327 51.5322C20.3378 52.0313 20.2467 52.5642 20.2648 53.0989C20.3091 54.1994 20.7801 55.2407 21.5799 56.006C22.3797 56.7714 23.4467 57.2019 24.5589 57.208C25.0976 57.2101 25.6312 57.1041 26.1274 56.8965C26.6236 56.6889 27.0723 56.3839 27.4462 55.9999C27.8202 55.616 28.1118 55.161 28.3034 54.6624C28.4951 54.1638 28.5827 53.632 28.5612 53.0989C28.5239 52.0019 28.0594 50.9617 27.265 50.1963C26.4706 49.4308 25.4079 48.9993 24.2996 48.9923Z" fill="#512B58"/>
</g>
<path d="M39.6854 38.964H32.6159C32.4081 38.9623 32.209 38.8816 32.0596 38.7387C31.9102 38.5958 31.8219 38.4015 31.8129 38.196C31.8096 38.0967 31.8264 37.9977 31.8625 37.9049C31.8986 37.8122 31.9532 37.7275 32.023 37.6561C32.0928 37.5847 32.1764 37.5279 32.2688 37.4891C32.3613 37.4504 32.4606 37.4304 32.561 37.4305H39.628C39.8358 37.4321 40.0352 37.5122 40.1853 37.6545C40.3355 37.7968 40.4251 37.9905 40.4359 38.196C40.4396 38.2958 40.4229 38.3952 40.3868 38.4884C40.3508 38.5816 40.296 38.6666 40.2259 38.7384C40.1558 38.8101 40.0718 38.8671 39.9789 38.9058C39.886 38.9446 39.7862 38.9644 39.6854 38.964Z" fill="#E0E0E0"/>
<path d="M47.8445 38.964H43.0567C42.8487 38.9623 42.6493 38.8817 42.4995 38.7389C42.3497 38.596 42.2608 38.4017 42.2513 38.196C42.2479 38.0967 42.2648 37.9977 42.3009 37.9049C42.337 37.8122 42.3916 37.7275 42.4614 37.6561C42.5312 37.5847 42.6148 37.5279 42.7072 37.4891C42.7996 37.4504 42.899 37.4304 42.9994 37.4305H47.7897C47.9972 37.4321 48.1963 37.5123 48.3461 37.6547C48.4958 37.797 48.5849 37.9907 48.5951 38.196C48.5988 38.2958 48.5821 38.3952 48.546 38.4884C48.5099 38.5816 48.4552 38.6666 48.3851 38.7384C48.315 38.8101 48.2309 38.8671 48.1381 38.9058C48.0452 38.9446 47.9453 38.9644 47.8445 38.964Z" fill="#E0E0E0"/>
<path d="M51.7048 42.1866H32.7281C32.5205 42.1855 32.3213 42.105 32.1721 41.9619C32.0229 41.8188 31.9354 41.6242 31.9277 41.4186C31.9243 41.3193 31.9412 41.2203 31.9773 41.1276C32.0134 41.0348 32.068 40.9502 32.1378 40.8788C32.2076 40.8073 32.2912 40.7506 32.3836 40.7118C32.476 40.673 32.5754 40.6531 32.6758 40.6531H51.6499C51.8569 40.6543 52.0555 40.7345 52.2042 40.8772C52.3528 41.0198 52.4402 41.2138 52.4479 41.4186C52.4515 41.5178 52.4351 41.6166 52.3994 41.7094C52.3638 41.8021 52.3097 41.8867 52.2404 41.9584C52.1711 42.03 52.088 42.0871 51.996 42.1263C51.904 42.1655 51.8049 42.186 51.7048 42.1866Z" fill="#E0E0E0"/>
<g opacity="0.3">
<path d="M24.8406 62.9838C25.7709 63.0019 26.6617 63.359 27.3426 63.9868C28.0235 64.6147 28.4467 65.4691 28.5312 66.3867C28.576 66.8165 28.5302 67.2509 28.3967 67.6624C28.2632 68.0738 28.0449 68.4534 27.7557 68.777C27.4641 69.0951 27.1072 69.3477 26.709 69.5181C26.3107 69.6884 25.8803 69.7726 25.4466 69.7648C24.5083 69.7498 23.6079 69.3959 22.9145 68.7698C22.2212 68.1436 21.7826 67.2883 21.6812 66.3644C21.6384 65.9314 21.6888 65.4942 21.8289 65.0818C21.969 64.6694 22.1957 64.291 22.4941 63.9716C22.7944 63.6544 23.1582 63.4028 23.5622 63.2327C23.9662 63.0626 24.4017 62.9778 24.8406 62.9838ZM24.8057 62.2702C24.2717 62.2598 23.7415 62.3613 23.2499 62.5681C22.7582 62.7749 22.3163 63.0822 21.953 63.4699C21.5897 63.8577 21.3132 64.3171 21.1418 64.8181C20.9703 65.319 20.9077 65.8502 20.958 66.3768C21.1501 68.6437 23.2273 70.4834 25.5164 70.4834C27.8056 70.4834 29.4464 68.6437 29.2569 66.3768C29.158 65.2692 28.6489 64.237 27.8276 63.4789C27.0063 62.7208 25.9308 62.2902 24.8082 62.2702H24.8057Z" fill="#512B58"/>
</g>
<path d="M54.9465 53.9385H33.0498C32.9494 53.9384 32.85 53.9583 32.7576 53.9971C32.6652 54.0359 32.5816 54.0927 32.5118 54.1641C32.442 54.2355 32.3874 54.3201 32.3513 54.4129C32.3152 54.5056 32.2983 54.6046 32.3017 54.704C32.3106 54.9088 32.3987 55.1025 32.5476 55.2449C32.6966 55.3874 32.8951 55.4678 33.1021 55.4695H55.0088C55.1092 55.4695 55.2085 55.4496 55.301 55.4108C55.3934 55.3721 55.477 55.3153 55.5468 55.2438C55.6166 55.1724 55.6712 55.0878 55.7073 54.9951C55.7434 54.9023 55.7603 54.8033 55.7569 54.704C55.7491 54.497 55.6601 54.3012 55.5087 54.1582C55.3574 54.0152 55.1556 53.9364 54.9465 53.9385Z" fill="#E0E0E0"/>
<path d="M49.7572 50.7135H32.955C32.8544 50.7134 32.7549 50.7334 32.6623 50.7724C32.5697 50.8113 32.4859 50.8683 32.4161 50.94C32.3463 51.0117 32.2917 51.0966 32.2558 51.1896C32.2199 51.2827 32.2032 51.3819 32.2069 51.4815C32.214 51.6861 32.3008 51.8801 32.4491 52.0228C32.5973 52.1655 32.7956 52.2458 33.0024 52.247H49.8071C49.9074 52.247 50.0068 52.2271 50.0992 52.1883C50.1917 52.1496 50.2753 52.0928 50.3451 52.0213C50.4149 51.9499 50.4694 51.8653 50.5055 51.7726C50.5416 51.6798 50.5585 51.5808 50.5552 51.4815C50.5493 51.2758 50.4627 51.0804 50.3137 50.937C50.1646 50.7936 49.965 50.7134 49.7572 50.7135Z" fill="#E0E0E0"/>
<path d="M24.2571 42.2311L23.9629 41.752C23.317 40.7075 21.968 39.7765 21.5042 39.5024L21.8533 38.89C22.7692 39.439 23.5852 40.1369 24.2671 40.9544C25.3269 39.5444 26.8755 38.0948 28.9726 36.5292L29.424 37.1071C27.1797 38.7789 25.5887 40.3173 24.5688 41.7816C24.4666 41.9323 24.3619 42.0829 24.2571 42.2311Z" fill="#512B58"/>
<path d="M24.6312 55.5164C24.534 55.3559 24.4342 55.1954 24.3345 55.0374C23.6861 53.9928 22.3396 53.0618 21.8807 52.7853L22.2348 52.1728C23.1461 52.7234 23.9577 53.4212 24.6362 54.2373C25.6985 52.8297 27.2595 51.3777 29.3891 49.8121L29.8305 50.3899C27.5563 52.0617 25.9554 53.6002 24.9404 55.0645L24.6312 55.5164Z" fill="#512B58"/>
<path d="M25.4865 68.8314L25.1574 68.3523C24.4392 67.3078 23.0477 66.3768 22.569 66.1027L22.8931 65.4903C23.8354 66.0433 24.6844 66.739 25.4092 67.5523C26.3867 66.1447 27.873 64.6927 29.9377 63.1296L30.404 63.7074C28.1996 65.3792 26.686 66.9176 25.7658 68.382L25.4865 68.8314Z" fill="#512B58"/>
<path d="M41.2564 24.2735C40.8175 25.2218 40.3678 26.1692 39.9073 27.1158C40.8566 27.5834 41.6683 28.2853 42.264 29.1538C42.8598 30.0223 43.2196 31.0282 43.3087 32.0744H46.6227C46.4033 28.7185 44.2238 25.7972 41.2564 24.2735Z" fill="#512B58"/>
<path d="M28.631 32.0794H31.945C31.8638 31.1511 32.0346 30.2182 32.4397 29.3772C32.8448 28.5362 33.4695 27.8177 34.2492 27.2961C33.6041 26.3479 32.9491 25.3996 32.2842 24.4514C29.8653 26.0022 28.419 28.8444 28.631 32.0794Z" fill="#263238"/>
<path d="M36.7727 23.1722C35.1827 23.1566 33.6226 23.6012 32.2842 24.4513C32.9492 25.3996 33.6042 26.3478 34.2492 27.2961C35.1132 26.737 36.1247 26.4432 37.1568 26.4515C38.1116 26.457 39.0516 26.6863 39.8998 27.1208C40.3586 26.1725 40.8083 25.2251 41.2488 24.2785C39.8673 23.5613 38.3325 23.182 36.7727 23.1722Z" fill="#512B58"/>
<path opacity="0.5" d="M36.7727 23.1722C35.1827 23.1566 33.6226 23.6012 32.2842 24.4513C32.9492 25.3996 33.6042 26.3478 34.2492 27.2961C35.1132 26.737 36.1247 26.4432 37.1568 26.4515C38.1116 26.457 39.0516 26.6863 39.8998 27.1208C40.3586 26.1725 40.8083 25.2251 41.2488 24.2785C39.8673 23.5613 38.3325 23.182 36.7727 23.1722Z" fill="#263238"/>
<path d="M40.8225 29.8322C40.8225 29.8322 37.476 31.1879 37.1219 31.4348C37.0373 31.4983 36.9664 31.5778 36.9133 31.6688C36.8603 31.7597 36.8261 31.8603 36.8129 31.9645C36.7996 32.0687 36.8076 32.1745 36.8362 32.2757C36.8649 32.3768 36.9137 32.4713 36.9798 32.5535C37.1047 32.7292 37.2937 32.8498 37.5069 32.8899C37.72 32.93 37.9406 32.8864 38.1219 32.7683C38.4884 32.5066 40.8275 29.8322 40.8225 29.8322ZM37.3064 32.3016C37.2739 32.2612 37.2498 32.2147 37.2357 32.1649C37.2216 32.1151 37.2177 32.063 37.2242 32.0117C37.2307 31.9604 37.2475 31.9109 37.2736 31.8661C37.2997 31.8213 37.3346 31.7821 37.3763 31.7509C37.466 31.6937 37.5746 31.6728 37.6794 31.6926C37.7843 31.7124 37.8775 31.7712 37.9398 31.8571C37.9724 31.8976 37.9964 31.944 38.0105 31.9938C38.0247 32.0436 38.0286 32.0957 38.0221 32.147C38.0156 32.1983 37.9988 32.2478 37.9727 32.2926C37.9465 32.3374 37.9116 32.3766 37.87 32.4078C37.7814 32.466 37.6737 32.4885 37.5689 32.4706C37.4641 32.4527 37.3702 32.3957 37.3064 32.3115V32.3016Z" fill="#263238"/>
<path d="M44.7899 28.2641C44.8062 28.4127 44.7904 28.5631 44.7434 28.7052C44.6964 28.8473 44.6194 28.9778 44.5175 29.0881C44.4155 29.1984 44.291 29.2859 44.1523 29.3448C44.0135 29.4037 43.8636 29.4326 43.7127 29.4296C43.3928 29.4234 43.0863 29.3014 42.8511 29.0867C42.6158 28.8719 42.4681 28.5793 42.4359 28.2641C42.4188 28.1162 42.4338 27.9665 42.48 27.8249C42.5261 27.6833 42.6022 27.553 42.7032 27.4429C42.8043 27.3328 42.9279 27.2453 43.0659 27.1863C43.2039 27.1274 43.353 27.0983 43.5032 27.101C43.8239 27.1064 44.1317 27.2275 44.3686 27.4417C44.6055 27.6558 44.7553 27.9483 44.7899 28.2641Z" fill="white"/>
<path d="M43.3311 27.9974C43.3335 28.0209 43.3309 28.0446 43.3235 28.067C43.3161 28.0894 43.304 28.11 43.288 28.1275C43.272 28.1449 43.2525 28.1589 43.2307 28.1684C43.2089 28.1779 43.1853 28.1827 43.1615 28.1826C43.1103 28.1822 43.0611 28.1631 43.0233 28.1289C42.9856 28.0947 42.9619 28.0478 42.957 27.9974C42.9541 27.9739 42.9564 27.95 42.9637 27.9274C42.971 27.9048 42.983 27.884 42.9991 27.8665C43.0152 27.8489 43.0349 27.835 43.0569 27.8256C43.0789 27.8162 43.1026 27.8117 43.1266 27.8122C43.1778 27.8126 43.227 27.8317 43.2647 27.8659C43.3025 27.9001 43.3261 27.947 43.3311 27.9974Z" fill="#263238"/>
<path d="M44.2238 27.9974C44.2263 28.021 44.2237 28.045 44.2161 28.0675C44.2085 28.0901 44.1962 28.1109 44.1799 28.1284C44.1637 28.1459 44.1438 28.1598 44.1217 28.1691C44.0996 28.1785 44.0758 28.183 44.0518 28.1826C44.0009 28.1811 43.9523 28.1616 43.9147 28.1276C43.8772 28.0936 43.8532 28.0474 43.8473 27.9974C43.8444 27.9736 43.8467 27.9495 43.8541 27.9268C43.8615 27.904 43.8738 27.8831 43.8902 27.8655C43.9065 27.8479 43.9266 27.834 43.9489 27.8248C43.9712 27.8156 43.9952 27.8113 44.0193 27.8122C44.0705 27.8125 44.1197 27.8317 44.1575 27.8659C44.1953 27.9001 44.2189 27.9469 44.2238 27.9974Z" fill="#263238"/>
<path d="M43.6678 28.9654C43.4211 28.9635 43.1839 28.8711 43.002 28.7061C42.9849 28.689 42.9753 28.666 42.9753 28.6419C42.9753 28.6179 42.9849 28.5948 43.002 28.5777C43.0103 28.569 43.0204 28.5622 43.0315 28.5574C43.0427 28.5527 43.0547 28.5503 43.0668 28.5503C43.0789 28.5503 43.0909 28.5527 43.102 28.5574C43.1132 28.5622 43.1232 28.569 43.1316 28.5777C43.2792 28.7124 43.472 28.7881 43.6727 28.7901C43.7659 28.7921 43.8585 28.7747 43.9444 28.739C44.0304 28.7033 44.1077 28.65 44.1715 28.5826C44.1883 28.565 44.2116 28.5546 44.2362 28.5539C44.2483 28.5536 44.2604 28.5556 44.2718 28.5599C44.2832 28.5642 44.2936 28.5707 44.3024 28.5789C44.3112 28.5872 44.3183 28.5971 44.3233 28.6081C44.3283 28.6191 44.331 28.631 44.3314 28.643C44.3317 28.655 44.3297 28.667 44.3253 28.6783C44.321 28.6895 44.3145 28.6998 44.3061 28.7086C44.224 28.7935 44.1247 28.8603 44.0147 28.9045C43.9046 28.9488 43.7864 28.9695 43.6678 28.9654Z" fill="#263238"/>
<path d="M38.1442 24.7922C38.1649 24.9391 38.153 25.0887 38.1095 25.2307C38.066 25.3727 37.9919 25.5036 37.8923 25.6144C37.7927 25.7252 37.67 25.8133 37.5327 25.8726C37.3954 25.9319 37.2467 25.9609 37.0969 25.9577C36.7743 25.9503 36.4652 25.8286 36.2254 25.6148C35.9857 25.4009 35.8313 25.1091 35.7902 24.7922C35.768 24.6459 35.7783 24.4966 35.8206 24.3547C35.8629 24.2128 35.936 24.0818 36.0349 23.971C36.1338 23.8601 36.256 23.772 36.393 23.713C36.5299 23.6539 36.6783 23.6253 36.8276 23.6291C37.1508 23.6366 37.4607 23.7578 37.7019 23.9709C37.9431 24.1839 38.0999 24.4751 38.1442 24.7922Z" fill="white"/>
<path d="M36.678 24.5205C36.6812 24.5437 36.6794 24.5673 36.6725 24.5897C36.6657 24.6121 36.6541 24.6328 36.6385 24.6504C36.6229 24.668 36.6036 24.682 36.582 24.6916C36.5605 24.7011 36.537 24.7059 36.5134 24.7057C36.462 24.7044 36.4127 24.6851 36.3743 24.6512C36.336 24.6173 36.311 24.5709 36.3039 24.5205C36.3003 24.4972 36.3018 24.4735 36.3085 24.4509C36.3151 24.4283 36.3267 24.4074 36.3424 24.3897C36.3581 24.372 36.3776 24.358 36.3993 24.3486C36.4211 24.3392 36.4448 24.3347 36.4685 24.3353C36.5201 24.3361 36.5697 24.3552 36.6081 24.3892C36.6466 24.4232 36.6714 24.4698 36.678 24.5205Z" fill="#263238"/>
<path d="M37.5683 24.5205C37.5715 24.5439 37.5696 24.5677 37.5627 24.5903C37.5557 24.6129 37.5439 24.6337 37.528 24.6513C37.5121 24.669 37.4925 24.6829 37.4706 24.6923C37.4487 24.7017 37.425 24.7063 37.4012 24.7057C37.3499 24.7039 37.3009 24.6844 37.2626 24.6506C37.2244 24.6168 37.1993 24.5707 37.1917 24.5205C37.1885 24.4971 37.1904 24.4733 37.1973 24.4507C37.2043 24.4281 37.2161 24.4073 37.232 24.3896C37.2479 24.372 37.2675 24.358 37.2894 24.3486C37.3113 24.3393 37.335 24.3347 37.3588 24.3353C37.4102 24.3366 37.4595 24.3559 37.4979 24.3898C37.5362 24.4237 37.5612 24.47 37.5683 24.5205Z" fill="#263238"/>
<path d="M37.5931 25.2613H36.4261C36.4039 25.2577 36.3838 25.2465 36.3692 25.2295C36.3547 25.2125 36.3467 25.191 36.3467 25.1687C36.3467 25.1465 36.3547 25.125 36.3692 25.108C36.3838 25.091 36.4039 25.0797 36.4261 25.0761H37.5931C37.6153 25.0797 37.6355 25.091 37.65 25.108C37.6646 25.125 37.6726 25.1465 37.6726 25.1687C37.6726 25.191 37.6646 25.2125 37.65 25.2295C37.6355 25.2465 37.6153 25.2577 37.5931 25.2613Z" fill="#263238"/>
<path d="M32.2219 28.2641C32.2383 28.4127 32.2224 28.5631 32.1754 28.7052C32.1284 28.8473 32.0514 28.9778 31.9495 29.0881C31.8475 29.1984 31.723 29.2859 31.5843 29.3448C31.4455 29.4037 31.2956 29.4326 31.1447 29.4296C30.8248 29.4234 30.5183 29.3014 30.2831 29.0867C30.0478 28.8719 29.9002 28.5793 29.8679 28.2641C29.8508 28.1162 29.8659 27.9665 29.912 27.8249C29.9581 27.6833 30.0342 27.553 30.1352 27.4429C30.2363 27.3328 30.36 27.2453 30.4979 27.1863C30.6359 27.1274 30.785 27.0983 30.9352 27.101C31.2558 27.1069 31.5632 27.2282 31.8 27.4423C32.0368 27.6563 32.1868 27.9485 32.2219 28.2641Z" fill="white"/>
<path d="M30.7581 27.9974C30.7605 28.0209 30.7579 28.0446 30.7505 28.067C30.7431 28.0894 30.731 28.11 30.715 28.1275C30.699 28.1449 30.6795 28.1589 30.6577 28.1684C30.6359 28.1779 30.6123 28.1827 30.5885 28.1826C30.5373 28.1822 30.4881 28.1631 30.4503 28.1289C30.4126 28.0947 30.3889 28.0478 30.384 27.9974C30.3811 27.9739 30.3834 27.95 30.3907 27.9274C30.398 27.9048 30.41 27.884 30.4261 27.8665C30.4422 27.8489 30.4619 27.835 30.4839 27.8256C30.5059 27.8162 30.5296 27.8117 30.5536 27.8122C30.6048 27.8126 30.654 27.8317 30.6917 27.8659C30.7295 27.9001 30.7531 27.947 30.7581 27.9974Z" fill="#263238"/>
<path d="M31.6508 27.9974C31.6536 28.0209 31.6513 28.0448 31.6441 28.0674C31.6368 28.09 31.6247 28.1108 31.6087 28.1283C31.5926 28.1459 31.5729 28.1598 31.5509 28.1692C31.5289 28.1785 31.5051 28.1831 31.4812 28.1826C31.4303 28.1812 31.3817 28.1617 31.3442 28.1277C31.3066 28.0937 31.2827 28.0474 31.2767 27.9974C31.2738 27.9739 31.2761 27.95 31.2834 27.9274C31.2907 27.9048 31.3027 27.884 31.3188 27.8665C31.3349 27.8489 31.3546 27.835 31.3766 27.8256C31.3986 27.8162 31.4223 27.8117 31.4463 27.8122C31.4976 27.812 31.5471 27.8309 31.585 27.8653C31.6229 27.8996 31.6464 27.9467 31.6508 27.9974Z" fill="#263238"/>
<path d="M30.5088 28.9654C30.4972 28.9656 30.4858 28.9635 30.4751 28.9593C30.4644 28.955 30.4546 28.9487 30.4464 28.9407C30.4294 28.9236 30.4198 28.9006 30.4198 28.8765C30.4198 28.8525 30.4294 28.8294 30.4464 28.8123C30.5273 28.7272 30.6251 28.6595 30.7337 28.6136C30.8423 28.5677 30.9593 28.5446 31.0773 28.5456C31.3243 28.5482 31.5616 28.6415 31.7431 28.8074C31.7519 28.8157 31.7588 28.8257 31.7636 28.8367C31.7683 28.8477 31.7708 28.8596 31.7708 28.8716C31.7708 28.8836 31.7683 28.8955 31.7636 28.9065C31.7588 28.9175 31.7519 28.9275 31.7431 28.9358C31.7251 28.9523 31.7015 28.9614 31.677 28.9614C31.6525 28.9614 31.6289 28.9523 31.611 28.9358C31.4634 28.7995 31.2691 28.7236 31.0673 28.7234C30.9744 28.7214 30.882 28.7385 30.7961 28.7738C30.7103 28.8091 30.6328 28.8617 30.5686 28.9284C30.554 28.9477 30.5327 28.9609 30.5088 28.9654Z" fill="#263238"/>
<path d="M49.3956 19.72C48.6176 18.0976 46.8022 17.0234 44.8447 17.0234H40.8548C40.5809 17.0354 40.3086 16.9754 40.0656 16.8497C39.8225 16.7239 39.6174 16.5368 39.4709 16.3073C38.9148 15.275 37.5882 14.5392 36.082 14.5392C34.5758 14.5392 33.339 15.28 32.9001 16.3073C32.7181 16.7419 32.1969 17.0234 31.5984 17.0234H27.6086C25.6511 17.0234 23.9579 18.0976 23.3694 19.72C23.3476 19.7766 23.3391 19.8374 23.3445 19.8978C23.3509 20.0244 23.4062 20.1438 23.4991 20.2311C23.5919 20.3185 23.7151 20.3671 23.8432 20.3669H48.9991C49.076 20.3671 49.1516 20.3476 49.2186 20.3104C49.2856 20.2731 49.3418 20.2193 49.3817 20.1543C49.4216 20.0892 49.4438 20.015 49.4462 19.9389C49.4487 19.8628 49.4312 19.7874 49.3956 19.72ZM36.2441 17.4703C35.9465 17.4643 35.6619 17.3481 35.4464 17.1448C35.2309 16.9414 35.1 16.6655 35.0796 16.3715C35.0696 16.2298 35.0893 16.0877 35.1376 15.954C35.1858 15.8203 35.2616 15.6979 35.36 15.5947C35.4584 15.4914 35.5774 15.4095 35.7094 15.354C35.8414 15.2986 35.9835 15.2709 36.1269 15.2726C36.4264 15.2756 36.7138 15.3905 36.9315 15.5942C37.1492 15.7979 37.2813 16.0755 37.3014 16.3715C37.3115 16.5139 37.2915 16.6569 37.2426 16.7913C37.1937 16.9257 37.1171 17.0485 37.0176 17.1519C36.9181 17.2553 36.7979 17.3371 36.6647 17.3919C36.5316 17.4467 36.3883 17.4734 36.2441 17.4703Z" fill="#263238"/>
<path d="M75.2498 93.4439C75.0547 93.4677 74.8576 93.4193 74.6962 93.308C74.675 93.2819 74.662 93.2502 74.6589 93.2168C74.6558 93.1834 74.6627 93.1499 74.6788 93.1204C74.6907 93.095 74.7084 93.0726 74.7305 93.0551C74.7525 93.0375 74.7784 93.0252 74.806 93.0191C75.1002 92.9376 75.781 93.2982 75.8034 93.3155C75.8119 93.3191 75.819 93.3255 75.8235 93.3335C75.828 93.3415 75.8297 93.3508 75.8284 93.3599C75.828 93.3681 75.8248 93.376 75.8194 93.3823C75.814 93.3885 75.8066 93.3928 75.7984 93.3945C75.6173 93.4264 75.4338 93.4429 75.2498 93.4439ZM74.9207 93.0932C74.8934 93.0891 74.8657 93.0891 74.8384 93.0932C74.8214 93.0963 74.8053 93.1033 74.7915 93.1136C74.7776 93.1239 74.7664 93.1372 74.7586 93.1525C74.7337 93.2068 74.7586 93.234 74.7586 93.2488C74.8583 93.3648 75.3221 93.3673 75.6563 93.3204C75.4268 93.2016 75.1777 93.1246 74.9207 93.0932Z" fill="#512B58"/>
<path d="M75.7984 93.3945H75.7809C75.549 93.2957 75.0653 92.9006 75.0752 92.6981C75.0752 92.6487 75.1052 92.5895 75.2248 92.5771C75.3145 92.5696 75.4036 92.5961 75.4742 92.6512C75.6607 92.8448 75.7871 93.0874 75.8383 93.3501C75.8414 93.3562 75.843 93.363 75.843 93.3698C75.843 93.3767 75.8414 93.3834 75.8383 93.3896C75.8326 93.3936 75.8259 93.3962 75.819 93.397C75.812 93.3979 75.8049 93.397 75.7984 93.3945ZM75.2672 92.6537H75.2423C75.165 92.6537 75.1625 92.6907 75.1625 92.7006C75.1625 92.8241 75.4892 93.1328 75.7311 93.2661C75.6837 93.0553 75.5774 92.8618 75.4243 92.708C75.3791 92.6744 75.3237 92.657 75.2672 92.6586V92.6537Z" fill="#512B58"/>
<path d="M77.8082 93.3525H75.9754L75.3196 89.1496H77.1524L77.8082 93.3525Z" fill="#FFC3BD"/>
<path d="M75.963 93.1426H77.9579C77.9955 93.1436 78.0319 93.156 78.0622 93.178C78.0925 93.2001 78.1153 93.2308 78.1275 93.266L78.6711 94.8786C78.6826 94.9147 78.6856 94.953 78.6798 94.9904C78.674 95.0278 78.6595 95.0635 78.6376 95.0945C78.6157 95.1255 78.5868 95.1512 78.5533 95.1694C78.5197 95.1876 78.4824 95.1979 78.4442 95.1996C77.721 95.1996 76.6737 95.1477 75.766 95.1477C74.7062 95.1477 74.801 95.2045 73.5566 95.2045C72.8086 95.2045 72.5118 94.4514 72.8086 94.3822C74.2075 94.0735 74.3696 94.039 75.5216 93.2833C75.6507 93.1926 75.8048 93.1435 75.963 93.1426Z" fill="#263238"/>
<path opacity="0.2" d="M75.3196 89.1521L75.6587 91.3177H77.4915L77.1524 89.1521H75.3196Z" fill="black"/>
<path d="M77.5988 48.0908L76.3519 49.3379L78.2621 50.0071C78.2621 50.0071 79.0102 48.9897 78.484 48.2933L77.5988 48.0908Z" fill="#FFC3BD"/>
<path d="M75.9331 51.0813L77.8407 51.3578L78.2672 50.0071L76.357 49.3379L75.9331 51.0813Z" fill="#FFC3BD"/>
<path d="M78.4317 32.7361C78.5938 33.0818 78.7235 33.3757 78.8531 33.6967C78.9828 34.0177 79.1025 34.3264 79.2272 34.6425C79.4641 35.2771 79.676 35.9241 79.873 36.5785C80.0735 37.2406 80.24 37.9123 80.3718 38.5911L80.4665 39.1096L80.5438 39.6381C80.5712 39.8134 80.5887 39.9962 80.6037 40.1764C80.6186 40.3567 80.6436 40.5197 80.6436 40.7469V41.0679V41.3519L80.6286 41.6309L80.6012 41.8951C80.5688 42.2507 80.5214 42.5841 80.4765 42.9224C80.3767 43.5891 80.262 44.2411 80.1349 44.8979C79.8705 46.1894 79.5813 47.4513 79.2322 48.723L76.9605 48.2785C77.1051 47.0241 77.2547 45.7499 77.3744 44.4954C77.4318 43.8682 77.4941 43.2434 77.529 42.631C77.544 42.3297 77.5614 42.0235 77.5614 41.7346V41.5173V41.3173V41.1173L77.544 40.9543C77.5326 40.8242 77.5143 40.6948 77.4891 40.5666C77.4667 40.4283 77.4467 40.29 77.4143 40.1493L77.322 39.727L77.2148 39.3023C77.0602 38.7343 76.8856 38.1639 76.6861 37.5934C76.4867 37.023 76.2647 36.455 76.0303 35.892C75.9156 35.608 75.7959 35.3265 75.6712 35.0499C75.5466 34.7734 75.4219 34.4845 75.2997 34.2449L78.4317 32.7361Z" fill="#263238"/>
<path d="M69.8212 47.2068C69.8212 47.2068 70.1254 61.0948 70.9483 66.6262C71.8061 72.3799 74.9381 90.898 74.9381 90.898H78.0402C78.0402 90.898 76.9281 73.2738 76.574 67.6115C76.1874 61.438 76.2722 47.2068 76.2722 47.2068H69.8212Z" fill="#512B58"/>
<path d="M74.1925 89.6731C74.1775 89.6731 74.5117 90.9497 74.5117 90.9497H78.2871L78.2596 89.8114L74.1925 89.6731Z" fill="#263238"/>
<path d="M69.1221 24.6931C69.1317 24.5393 69.057 24.4096 68.9552 24.4034C68.8535 24.3972 68.7633 24.5169 68.7538 24.6707C68.7442 24.8245 68.8189 24.9542 68.9206 24.9604C69.0224 24.9666 69.1126 24.8469 69.1221 24.6931Z" fill="#263238"/>
<path d="M69.0456 24.96C68.8433 25.4308 68.5783 25.8726 68.2576 26.2737C68.3623 26.349 68.4826 26.4005 68.6097 26.4244C68.7369 26.4483 68.8679 26.4441 68.9932 26.412L69.0456 24.96Z" fill="#ED847E"/>
<path d="M69.7039 23.829C69.6846 23.829 69.6656 23.8239 69.649 23.8142C69.5598 23.7446 69.4549 23.6975 69.3433 23.6769C69.2317 23.6563 69.1167 23.6627 69.0082 23.6956C68.9971 23.7 68.9852 23.7021 68.9732 23.7018C68.9613 23.7016 68.9495 23.699 68.9386 23.6941C68.9276 23.6893 68.9178 23.6823 68.9096 23.6737C68.9015 23.6651 68.8951 23.6549 68.891 23.6438C68.887 23.6324 68.8854 23.6204 68.8862 23.6084C68.8869 23.5965 68.89 23.5848 68.8954 23.574C68.9007 23.5632 68.9081 23.5536 68.9172 23.5456C68.9263 23.5377 68.9369 23.5316 68.9483 23.5277C69.085 23.4837 69.2304 23.4733 69.372 23.4974C69.5137 23.5215 69.6473 23.5793 69.7613 23.666C69.7801 23.6806 69.7925 23.702 69.7957 23.7255C69.799 23.749 69.7929 23.7728 69.7787 23.7919C69.7699 23.8034 69.7586 23.8127 69.7457 23.8191C69.7327 23.8255 69.7184 23.8289 69.7039 23.829Z" fill="#263238"/>
<path d="M73.973 26.3774C73.6638 27.7059 73.3147 30.1383 74.2224 31.0223C74.2224 31.0223 73.8084 32.3681 71.3173 32.3681C68.5743 32.3681 70.058 31.0223 70.058 31.0223C71.5542 30.6692 71.5667 29.5728 71.3422 28.5406L73.973 26.3774Z" fill="#FFC3BD"/>
<path d="M75.1875 31.6446C75.4568 31.1038 75.7535 30.4816 75.1875 30.2889C74.569 30.0741 71.1502 29.8568 69.9508 30.2568C69.6304 30.3377 69.3555 30.5413 69.1867 30.8229C69.0179 31.1045 68.9689 31.4409 69.0506 31.7582L75.1875 31.6446Z" fill="#512B58"/>
<path d="M77.8108 31.5433C79.3893 32.2644 80.1922 37.7317 80.1922 37.7317L77.0128 38.7194C76.4449 37.2729 75.984 35.7873 75.6339 34.2745C75.1451 31.9928 76.1949 30.8075 77.8108 31.5433Z" fill="#263238"/>
<path d="M58.2706 40.0505L56.8044 38.801L55.4852 40.7024C55.4852 40.7024 56.6697 41.6433 57.9789 41.258L58.2706 40.0505Z" fill="#FFC3BD"/>
<path d="M54.8718 38.1959L54.6698 40.0751L55.4852 40.7023L56.8044 38.8009L54.8718 38.1959Z" fill="#FFC3BD"/>
<path d="M74.3097 24.355C74.1251 26.2416 74.1127 27.3528 73.1152 28.3208C72.7939 28.636 72.3922 28.8587 71.9529 28.9651C71.5137 29.0715 71.0535 29.0576 70.6216 28.9249C70.1897 28.7923 69.8023 28.5458 69.501 28.2119C69.1997 27.878 68.9957 27.4692 68.9109 27.0293C68.5618 25.3353 68.9109 22.535 70.8136 21.7843C71.2186 21.6114 71.6624 21.5469 72.1005 21.5974C72.5386 21.6478 72.9557 21.8115 73.3098 22.0719C73.6639 22.3322 73.9427 22.6802 74.1182 23.0809C74.2937 23.4817 74.3597 23.921 74.3097 24.355Z" fill="#FFC3BD"/>
<path d="M70.4072 24.96C70.2401 23.6561 70.2675 23.1623 70.9707 22.8733C70.2401 22.7301 69.6067 22.7104 69.305 22.2881C69.0032 21.8658 68.9309 20.7867 70.3972 20.2928C70.2625 20.5397 70.6889 21.0534 72.038 20.5891C73.3871 20.1249 75.3521 20.0755 75.5291 21.4337C76.2423 21.1867 77.4367 23.3672 76.0278 24.96C74.8533 26.2935 74.0703 27.2145 73.8384 27.9233C73.8275 27.9565 73.8097 27.987 73.7861 28.0129C73.7624 28.0387 73.7335 28.0594 73.7012 28.0734C73.6689 28.0874 73.634 28.0944 73.5988 28.0941C73.5635 28.0938 73.5288 28.086 73.4968 28.0714C73.0105 27.8467 72.1402 28.0393 71.7512 28.143C71.6964 28.1571 71.6385 28.1523 71.5868 28.1294C71.5351 28.1065 71.4929 28.0669 71.467 28.0171C71.2151 27.5035 70.5343 26.0366 70.4072 24.96Z" fill="#263238"/>
<path d="M75.2648 21.5991C75.2648 21.5991 75.8433 20.7916 76.953 21.3917C76.3824 21.3654 75.8115 21.4355 75.2648 21.5991Z" fill="#263238"/>
<path d="M75.3595 21.772C75.3595 21.772 76.1649 21.2781 75.5366 20.3471C75.5751 20.829 75.5148 21.3137 75.3595 21.772Z" fill="#263238"/>
<path d="M71.3398 25.0143C71.2523 25.4812 71.0184 25.9089 70.6715 26.2367C70.2102 26.6688 69.8112 26.3626 69.7987 25.807C69.7862 25.3131 70.0107 24.4785 70.5468 24.2562C71.0829 24.034 71.4345 24.4562 71.3398 25.0143Z" fill="#FFC3BD"/>
<path opacity="0.3" d="M70.078 54.9237C70.2575 59.0673 70.5393 63.8777 70.9483 66.6262C71.1054 67.6732 71.3348 69.14 71.6091 70.8414C72.7113 64.8853 73.3696 57.2104 70.078 54.9237Z" fill="black"/>
<path d="M68.7039 93.4439C68.4695 93.4439 68.2426 93.4118 68.1703 93.308C68.1514 93.2803 68.1414 93.2476 68.1414 93.2142C68.1414 93.1808 68.1514 93.1481 68.1703 93.1204C68.2038 93.0707 68.2543 93.0348 68.3124 93.0191C68.6192 92.9376 69.2476 93.2982 69.275 93.3155C69.2827 93.3196 69.2887 93.3264 69.2919 93.3345C69.2951 93.3427 69.2953 93.3516 69.2924 93.3599C69.2907 93.3684 69.2864 93.3762 69.2802 93.3824C69.274 93.3885 69.2661 93.3927 69.2575 93.3945C69.0747 93.4261 68.8895 93.4426 68.7039 93.4439ZM68.4272 93.0932C68.399 93.0892 68.3705 93.0892 68.3424 93.0932C68.3245 93.0966 68.3075 93.1036 68.2925 93.1138C68.2775 93.124 68.2647 93.1372 68.2551 93.1525C68.2227 93.2068 68.2326 93.234 68.2426 93.2488C68.3249 93.3648 68.7862 93.3673 69.1304 93.3204C68.9133 93.1997 68.6743 93.1225 68.4272 93.0932Z" fill="#512B58"/>
<path d="M69.26 93.3945H69.2426C69.0256 93.2957 68.5992 92.9006 68.6416 92.6981C68.6416 92.6487 68.6865 92.5894 68.8062 92.5771C68.8507 92.5715 68.8958 92.5753 68.9388 92.588C68.9817 92.6008 69.0215 92.6223 69.0556 92.6512C69.2825 92.8413 69.3049 93.3303 69.3049 93.35C69.3047 93.3576 69.3029 93.3651 69.2994 93.372C69.296 93.3788 69.291 93.3848 69.285 93.3895C69.2773 93.3934 69.2686 93.3951 69.26 93.3945ZM68.8386 92.6536H68.8137C68.7339 92.6536 68.7289 92.6907 68.7264 92.7006C68.7015 92.824 68.9882 93.1327 69.2102 93.2661C69.1964 93.0617 69.1188 92.8667 68.9882 92.708C68.9458 92.6745 68.8928 92.657 68.8386 92.6586V92.6536Z" fill="#512B58"/>
<path d="M71.2749 93.3525H69.4446L69.4097 89.1496H71.2425L71.2749 93.3525Z" fill="#FFC3BD"/>
<path d="M69.4621 93.1426H71.457C71.4927 93.1421 71.5274 93.1543 71.5549 93.1769C71.5823 93.1996 71.6007 93.2312 71.6066 93.2661L71.9134 94.8786C71.9203 94.9183 71.9184 94.959 71.9076 94.9979C71.8969 95.0368 71.8776 95.0729 71.8512 95.1035C71.8247 95.1342 71.7918 95.1587 71.7547 95.1753C71.7176 95.1919 71.6773 95.2002 71.6366 95.1996C70.9159 95.1996 69.8736 95.1477 68.9684 95.1477C67.9061 95.1477 66.9884 95.2045 65.7441 95.2045C64.996 95.2045 64.8115 94.4514 65.1281 94.3822C66.572 94.0736 67.744 94.039 69.0083 93.2833C69.1439 93.1965 69.3007 93.1479 69.4621 93.1426Z" fill="#263238"/>
<path opacity="0.2" d="M69.4122 89.1521L69.4272 91.3177H71.26L71.2451 89.1521H69.4122Z" fill="black"/>
<path d="M66.552 47.2068C66.552 47.2068 65.8039 60.7713 65.8188 66.3027C65.8188 72.0564 68.7613 90.898 68.7613 90.898H71.8634C71.8634 90.898 71.0555 72.3923 71.4046 66.7472C71.7761 60.5737 73.5766 47.2118 73.5766 47.2118L66.552 47.2068Z" fill="#512B58"/>
<path d="M68.2078 89.6731C68.1928 89.6731 68.3349 90.9497 68.3349 90.9497H72.1103L72.255 89.8114L68.2078 89.6731Z" fill="#263238"/>
<path d="M67.2203 31.5261C67.2203 31.5261 64.0983 39.3368 65.4573 52.8371H76.8582C76.9779 51.3554 75.786 38.4503 77.4866 31.4323C76.4079 31.2255 75.3167 31.0886 74.22 31.0224C72.833 30.9433 71.4426 30.9433 70.0556 31.0224C69.0988 31.1177 68.1509 31.2861 67.2203 31.5261Z" fill="#263238"/>
<path opacity="0.2" d="M65.6069 38.5959C65.4373 39.8306 65.2977 41.2407 65.2079 42.7939C67.4222 40.7789 68.1803 35.7586 68.1803 35.7586L65.6069 38.5959Z" fill="black"/>
<path d="M68.3948 35.245C67.9459 36.4007 67.4921 37.5144 66.9934 38.6331C66.4946 39.7517 65.9785 40.8555 65.3974 41.9618L65.1705 42.3742L65.0558 42.5816C65.0084 42.6656 65.0134 42.6705 64.8837 42.8854C64.6602 43.2336 64.3502 43.5192 63.9835 43.7151C63.6803 43.873 63.3493 43.9719 63.0085 44.0065C62.54 44.049 62.0677 44.0114 61.6121 43.8954C61.2518 43.807 60.8985 43.6932 60.5548 43.5546C59.9378 43.3016 59.3402 43.0045 58.7668 42.6656C58.485 42.5051 58.2157 42.3322 57.9489 42.1717C57.6821 42.0112 57.4402 41.8062 57.1534 41.6087L58.5 39.564C59.4663 40.0913 60.4807 40.527 61.5298 40.8654C61.7524 40.9335 61.98 40.9847 62.2106 41.0185C62.3421 41.0462 62.478 41.0462 62.6095 41.0185C62.6245 41.0185 62.5771 41.0037 62.4948 41.0457C62.3946 41.0963 62.3089 41.171 62.2455 41.263C62.1931 41.3494 62.2604 41.221 62.2829 41.1716L62.3726 40.9765L62.5522 40.5888C63.026 39.5418 63.4649 38.4577 63.8913 37.3786C64.3177 36.2995 64.7316 35.1734 65.1132 34.0844L68.3948 35.245Z" fill="#263238"/>
<path d="M69.6341 32.346C70.2176 33.961 66.0882 40.4629 66.0882 40.4629L63.6394 38.0602C63.6394 38.0602 64.2653 36.018 65.0907 33.5585C65.9036 31.1409 69.078 30.8026 69.6341 32.346Z" fill="#263238"/>
</g>
<defs>
<clipPath id="clip0_58_424">
<rect width="72" height="92" fill="white" transform="translate(10.1666 6)"/>
</clipPath>
</defs>
</svg>
