<svg width="58" height="80" viewBox="0 0 58 80" fill="none" xmlns="http://www.w3.org/2000/svg">
<path fill-rule="evenodd" clip-rule="evenodd" d="M18.898 28.8311H27.1049C28.3318 28.8311 29.5195 28.7435 30.6697 28.5709C31.6699 28.4209 32.5026 28.1587 33.1988 27.8157C33.8256 27.4779 34.2667 27.0725 34.5895 26.6034C34.8178 26.2187 35.0473 25.5382 35.0473 24.3563C35.0473 23.3064 34.6871 22.4964 33.7172 21.7131L33.6922 21.6928L33.6674 21.6721C32.7004 20.8597 31.4476 20.3769 29.6808 20.3769C28.0068 20.3769 26.887 20.8161 26.0694 21.4915C25.0823 22.3069 24.4968 23.2465 24.2143 24.3767L23.4345 27.4958L0.479682 22.7657L1.371 19.3489C2.25086 15.9762 3.60183 12.9925 5.48472 10.4758C7.31369 7.96599 9.51598 5.91013 12.0913 4.34936C14.5914 2.83414 17.3339 1.74871 20.2959 1.07916C23.2717 0.355939 26.3699 0 29.5818 0C32.959 0 36.2208 0.429602 39.356 1.30014C42.6299 2.12421 45.57 3.48588 48.1257 5.41613C50.7163 7.30646 52.7617 9.71118 54.2453 12.589C55.8699 15.6089 56.6131 19.0756 56.6131 22.8701C56.6131 27.3861 55.4142 31.4431 52.8866 34.8675C51.933 36.1596 50.828 37.269 49.587 38.2024C51.1379 39.2721 52.4931 40.5453 53.6347 42.0227C55.0086 43.8007 56.0431 45.8026 56.7495 48.0004C57.4562 50.1988 57.802 52.4948 57.802 54.8717C57.802 58.8089 57.0219 62.4219 55.3529 65.6142C53.8098 68.6896 51.6755 71.2891 48.9676 73.378L48.9564 73.3867C46.3279 75.3966 43.2553 76.8586 39.7984 77.8159C36.4411 78.7639 32.8985 79.228 29.1855 79.228C22.3769 79.228 16.3127 77.6448 11.1347 74.3428L11.1253 74.3369L11.1159 74.3308C5.74966 70.8585 2.36121 65.4396 0.754421 58.5011L0 55.2434L22.2481 50.0334L22.9545 53.3885C23.3634 55.331 24.12 56.6342 25.0833 57.5281C25.9056 58.2384 27.3939 58.8511 30.0771 58.8511C32.7978 58.8511 34.0974 58.1592 34.7436 57.4568L34.7474 57.4527C35.6855 56.4364 36.2362 55.1051 36.2362 53.1874C36.2362 51.6354 35.8937 50.9836 35.6988 50.7437L35.6272 50.6557L35.5618 50.563C35.1564 49.9886 34.627 49.5622 33.885 49.2654C32.9703 48.8995 31.8682 48.664 30.5376 48.6108L30.4709 48.6081L30.4043 48.6028C28.8417 48.4778 27.2796 48.4153 25.7178 48.4153H18.898V28.8311ZM22.8446 60.0236C21.4037 58.7028 20.3994 56.9454 19.8316 54.7514C19.7748 54.5316 19.7223 54.3075 19.6742 54.0791L4.02019 57.7449C4.03254 57.7982 4.045 57.8514 4.05757 57.9045C4.31119 58.9757 4.6095 59.9973 4.95249 60.9694C6.5925 65.6176 9.25401 69.1333 12.937 71.5164C17.4945 74.4226 22.9107 75.8758 29.1855 75.8758C32.6201 75.8758 35.8566 75.4464 38.8949 74.5878C41.9993 73.7291 44.6743 72.4411 46.9201 70.7238C49.2318 68.9404 51.0482 66.7278 52.3692 64.0857C53.7563 61.4437 54.4498 58.3723 54.4498 54.8717C54.4498 52.8241 54.1526 50.8756 53.5581 49.0262C52.9637 47.1768 52.105 45.5255 50.9822 44.0724C49.8593 42.6193 48.4722 41.3973 46.821 40.4066C46.661 40.3066 46.4983 40.2103 46.3329 40.1177C44.8758 39.3018 43.2097 38.7733 41.3348 38.532C41.3141 38.5294 41.2934 38.5267 41.2727 38.5241V38.2269C41.2854 38.2243 41.2982 38.2217 41.3109 38.2191C43.1823 37.8348 44.8399 37.2212 46.2835 36.3785C47.8315 35.4748 49.1335 34.3076 50.1896 32.8768C52.2371 30.1027 53.2609 26.7671 53.2609 22.8701C53.2609 19.5016 52.6004 16.5953 51.2794 14.1515C50.0244 11.7076 48.3071 9.69305 46.1274 8.10783C43.9478 6.45657 41.4048 5.26766 38.4986 4.5411C35.6584 3.7485 32.6861 3.35219 29.5818 3.35219C26.6095 3.35219 23.7693 3.68244 21.0612 4.34295C18.4192 4.9374 16.0084 5.89514 13.8287 7.21615C11.649 8.53716 9.76659 10.2875 8.18137 12.4672C7.18724 13.7927 6.34897 15.3 5.66656 16.9892C5.26082 17.9936 4.91018 19.0622 4.61464 20.1951L20.9622 23.5637C21.4245 21.7143 22.4153 20.1621 23.9344 18.9071C25.4536 17.6521 27.3691 17.0247 29.6808 17.0247C32.1247 17.0247 34.1723 17.7182 35.8236 19.1053C37.5409 20.4923 38.3995 22.2427 38.3995 24.3563C38.3995 26.0076 38.0693 27.3616 37.4088 28.4184C36.7483 29.4092 35.8566 30.2018 34.7337 30.7962C33.6769 31.3246 32.488 31.6879 31.167 31.8861C29.846 32.0842 28.4919 32.1833 27.1049 32.1833H22.2502V45.0631H25.7178C27.3691 45.0631 29.0203 45.1292 30.6716 45.2613C32.3229 45.3274 33.809 45.6246 35.13 46.153C36.451 46.6814 37.5078 47.507 38.3004 48.6299C39.1591 49.6867 39.5884 51.2059 39.5884 53.1874C39.5884 55.8294 38.7958 58.0091 37.2106 59.7264C35.6915 61.3777 33.3136 62.2033 30.0771 62.2033C26.9067 62.2033 24.4959 61.4767 22.8446 60.0236Z" fill="#512B58"/>
</svg>
