<svg width="48" height="48" viewBox="0 0 48 48" fill="none" xmlns="http://www.w3.org/2000/svg">
<rect x="4" y="4" width="40" height="40" rx="4" fill="#512B58"/>
<path d="M31.3214 17.5622C31.1695 17.4837 31.0217 17.3977 30.8784 17.3044C30.4618 17.029 30.0799 16.7044 29.7408 16.3378C28.8923 15.367 28.5755 14.3822 28.4588 13.6927H28.4634C28.3659 13.1203 28.4063 12.75 28.4123 12.75H24.548V27.6928C24.548 27.8934 24.548 28.0917 24.5395 28.2877C24.5395 28.312 24.5372 28.3345 24.5358 28.3608C24.5358 28.3716 24.5358 28.3828 24.5334 28.3941C24.5334 28.3969 24.5334 28.3997 24.5334 28.4025C24.4927 28.9386 24.3208 29.4566 24.033 29.9107C23.7451 30.3648 23.35 30.7413 22.8825 31.0069C22.3953 31.2841 21.8442 31.4295 21.2836 31.4288C19.4831 31.4288 18.0239 29.9606 18.0239 28.1475C18.0239 26.3344 19.4831 24.8663 21.2836 24.8663C21.6244 24.8659 21.9631 24.9196 22.2872 25.0252L22.2919 21.0905C21.3081 20.9634 20.3087 21.0416 19.3567 21.3201C18.4047 21.5986 17.5208 22.0714 16.7606 22.7086C16.0946 23.2873 15.5346 23.9778 15.1059 24.7491C14.9428 25.0303 14.3273 26.1605 14.2528 27.9947C14.2059 29.0358 14.5186 30.1144 14.6677 30.5602V30.5695C14.7614 30.832 15.1247 31.7278 15.7167 32.483C16.1941 33.0887 16.7581 33.6208 17.3906 34.0622V34.0528L17.4 34.0622C19.2708 35.3334 21.345 35.25 21.345 35.25C21.7041 35.2355 22.9069 35.25 24.2728 34.6027C25.7878 33.885 26.6503 32.8158 26.6503 32.8158C27.2013 32.1769 27.6395 31.4488 27.9459 30.6628C28.2956 29.7436 28.4123 28.6411 28.4123 28.2005V20.273C28.4592 20.3011 29.0836 20.7141 29.0836 20.7141C29.0836 20.7141 29.9831 21.2906 31.3866 21.6661C32.3934 21.9333 33.75 21.9895 33.75 21.9895V18.1533C33.2747 18.2048 32.3095 18.0548 31.3214 17.5622Z" fill="white"/>
</svg>
