<svg width="48" height="48" viewBox="0 0 48 48" fill="none" xmlns="http://www.w3.org/2000/svg">
<rect x="4" y="4" width="40" height="40" rx="4" fill="#512B58"/>
<g clip-path="url(#clip0_58_495)">
<path d="M24.003 12H23.997C17.3805 12 12 17.382 12 24C12 26.625 12.846 29.058 14.2845 31.0335L12.789 35.4915L17.4015 34.017C19.299 35.274 21.5625 36 24.003 36C30.6195 36 36 30.6165 36 24C36 17.3835 30.6195 12 24.003 12ZM30.9855 28.9455C30.696 29.763 29.547 30.441 28.6305 30.639C28.0035 30.7725 27.1845 30.879 24.4275 29.736C20.901 28.275 18.63 24.6915 18.453 24.459C18.2835 24.2265 17.028 22.5615 17.028 20.8395C17.028 19.1175 17.9025 18.279 18.255 17.919C18.5445 17.6235 19.023 17.4885 19.482 17.4885C19.6305 17.4885 19.764 17.496 19.884 17.502C20.2365 17.517 20.4135 17.538 20.646 18.0945C20.9355 18.792 21.6405 20.514 21.7245 20.691C21.81 20.868 21.8955 21.108 21.7755 21.3405C21.663 21.5805 21.564 21.687 21.387 21.891C21.21 22.095 21.042 22.251 20.865 22.47C20.703 22.6605 20.52 22.8645 20.724 23.217C20.928 23.562 21.633 24.7125 22.671 25.6365C24.0105 26.829 25.0965 27.21 25.485 27.372C25.7745 27.492 26.1195 27.4635 26.331 27.2385C26.5995 26.949 26.931 26.469 27.2685 25.9965C27.5085 25.6575 27.8115 25.6155 28.1295 25.7355C28.4535 25.848 30.168 26.6955 30.5205 26.871C30.873 27.048 31.1055 27.132 31.191 27.2805C31.275 27.429 31.275 28.1265 30.9855 28.9455Z" fill="#FCFCFD"/>
</g>
<defs>
<clipPath id="clip0_58_495">
<rect width="24" height="24" fill="white" transform="translate(12 12)"/>
</clipPath>
</defs>
</svg>
